<?xml version="1.0" encoding="UTF-8"?>
<svg width="81px" height="92px" viewBox="0 0 81 92" version="1.1" xmlns="http://www.w3.org/2000/svg" xmlns:xlink="http://www.w3.org/1999/xlink">
    <title>heart</title>
    <g id="Page-1" stroke="none" stroke-width="1" fill-rule="evenodd">
        <g id="Playing_card_heart_A-Copy" transform="translate(-58.000000, -80.000000)" fill-rule="nonzero">
            <path d="M118.202211,80.2537869 C110.254417,80.4550327 101.050382,88.6384656 98.6160536,95.5152992 L98.498,95.863 L98.4786585,95.8019488 C96.1660761,88.7911067 86.591954,80.25 78.5,80.25 C67.2238576,80.25 58,89.4738576 58,102.75 C58,108.687429 60.2611974,115.856058 64.4617262,124.090974 L65.0749598,125.274626 C65.4925309,126.06854 65.9275534,126.872054 66.3797491,127.685026 L67.0708878,128.911559 C67.1882127,129.117157 67.3066022,129.323342 67.426052,129.530112 C70.6176787,135.054871 74.4988499,140.879002 78.9947357,147.010668 C82.2072596,151.392034 85.5658527,155.710054 89.3366399,160.367911 L91.0848558,162.513157 L97.9671727,170.885615 L98.5,171.550391 L99.3359876,170.512943 L106.78574,161.449018 C110.916576,156.37399 114.545623,151.729062 118.005264,147.010668 C122.50115,140.879002 126.382321,135.054871 129.573948,129.530112 L129.929112,128.911559 L130.620251,127.685026 C131.072447,126.872054 131.507469,126.06854 131.92504,125.274626 L132.538274,124.090974 C136.738803,115.856058 139,108.687429 139,102.75 C139,89.4738576 129.776142,80.25 118.5,80.25 L118.202211,80.2537869 Z" id="heart"></path>
        </g>
    </g>
</svg>