<?xml version="1.0" encoding="UTF-8"?>
<svg width="230px" height="81px" viewBox="0 0 230 81" version="1.1" xmlns="http://www.w3.org/2000/svg" xmlns:xlink="http://www.w3.org/1999/xlink">
    <title>logo-firefox</title>
    <defs>
        <radialGradient cx="55%" cy="25%" fx="55%" fy="25%" r="60%" gradientTransform="translate(0.550000,0.250000),scale(1.000000,0.994410),translate(-0.550000,-0.250000)" id="radialGradient-1">
            <stop stop-color="#00DDFF" stop-opacity="0.4" offset="10%"></stop>
            <stop stop-color="#7542E5" stop-opacity="0.25" offset="90%"></stop>
        </radialGradient>
        <radialGradient cx="49.238%" cy="52.7%" fx="49.238%" fy="52.7%" r="51%" gradientTransform="translate(0.492380,0.527000),scale(1.000000,0.994410),translate(-0.492380,-0.527000)" id="radialGradient-2">
            <stop stop-color="#7542E5" stop-opacity="0" offset="91%"></stop>
            <stop stop-color="#00DDFF" stop-opacity="0.4" offset="100%"></stop>
        </radialGradient>
        <radialGradient cx="85.88618%" cy="-13%" fx="85.88618%" fy="-13%" r="127.303342%" gradientTransform="translate(0.858862,-0.130000),scale(0.817077,1.000000),translate(-0.858862,0.130000)" id="radialGradient-3">
            <stop stop-color="#80EBFF" offset="0%"></stop>
            <stop stop-color="#00DDFF" offset="26%"></stop>
            <stop stop-color="#0090ED" offset="53%"></stop>
            <stop stop-color="#0060DF" offset="86%"></stop>
        </radialGradient>
        <radialGradient cx="47.7860173%" cy="40%" fx="47.7860173%" fy="40%" r="127.303342%" gradientTransform="translate(0.477860,0.400000),scale(0.817077,1.000000),translate(-0.477860,-0.400000)" id="radialGradient-4">
            <stop stop-color="#321C64" stop-opacity="0.8" offset="30%"></stop>
            <stop stop-color="#212F83" stop-opacity="0.5" offset="37%"></stop>
            <stop stop-color="#0A47AC" stop-opacity="0.14" offset="48%"></stop>
            <stop stop-color="#0250BB" stop-opacity="0" offset="53%"></stop>
        </radialGradient>
        <radialGradient cx="88.2713%" cy="-50%" fx="88.2713%" fy="-50%" r="208.687983%" gradientTransform="translate(0.882713,-0.500000),scale(0.843842,1.000000),translate(-0.882713,0.500000)" id="radialGradient-5">
            <stop stop-color="#80EBFF" offset="0%"></stop>
            <stop stop-color="#00B3F4" offset="47%"></stop>
            <stop stop-color="#0060DF" offset="84%"></stop>
            <stop stop-color="#592ACB" offset="100%"></stop>
        </radialGradient>
        <linearGradient x1="42.0975618%" y1="-10%" x2="60.8658525%" y2="114%" id="linearGradient-6">
            <stop stop-color="#AAF2FF" offset="0%"></stop>
            <stop stop-color="#00DDFF" offset="29%"></stop>
            <stop stop-color="#0090ED" offset="61%"></stop>
            <stop stop-color="#0250BB" offset="89%"></stop>
        </linearGradient>
        <linearGradient x1="38.1463427%" y1="0%" x2="62.8414621%" y2="124%" id="linearGradient-7">
            <stop stop-color="#AAF2FF" offset="0%"></stop>
            <stop stop-color="#00DDFF" offset="29%"></stop>
            <stop stop-color="#0090ED" offset="74%"></stop>
            <stop stop-color="#0250BB" offset="100%"></stop>
        </linearGradient>
        <radialGradient cx="208%" cy="-104.03584%" fx="208%" fy="-104.03584%" r="300%" gradientTransform="translate(2.080000,-1.040358),scale(1.000000,0.991470),translate(-2.080000,1.040358)" id="radialGradient-8">
            <stop stop-color="#00DDFF" offset="0%"></stop>
            <stop stop-color="#0090ED" offset="82%"></stop>
        </radialGradient>
        <radialGradient cx="155.0235%" cy="-45%" fx="155.0235%" fy="-45%" r="310.788423%" gradientTransform="translate(1.550235,-0.450000),scale(0.900060,1.000000),translate(-1.550235,0.450000)" id="radialGradient-9">
            <stop stop-color="#80EBFF" offset="29%"></stop>
            <stop stop-color="#00B3F4" offset="100%"></stop>
        </radialGradient>
        <radialGradient cx="15.021%" cy="-43%" fx="15.021%" fy="-43%" r="228.860605%" gradientTransform="translate(0.150210,-0.430000),scale(0.986286,1.000000),translate(-0.150210,0.430000)" id="radialGradient-10">
            <stop stop-color="#AAF2FF" offset="18%"></stop>
            <stop stop-color="#00DDFF" offset="43%"></stop>
            <stop stop-color="#0060DF" offset="69%"></stop>
        </radialGradient>
        <linearGradient x1="85.5609719%" y1="15%" x2="20.3658568%" y2="84%" id="linearGradient-11">
            <stop stop-color="#80EBFF" stop-opacity="0.5" offset="24%"></stop>
            <stop stop-color="#00DDFF" stop-opacity="0" offset="70%"></stop>
        </linearGradient>
        <linearGradient x1="61%" y1="-10.7407471%" x2="20%" y2="150.222233%" id="linearGradient-12">
            <stop stop-color="#BFF3FF" stop-opacity="0.9" offset="0%"></stop>
            <stop stop-color="#80EBFF" stop-opacity="0.5" offset="100%"></stop>
        </linearGradient>
        <linearGradient x1="50.9878048%" y1="-2%" x2="48.0243905%" y2="139%" id="linearGradient-13">
            <stop stop-color="#BFF3FF" offset="0%"></stop>
            <stop stop-color="#00DDFF" stop-opacity="0" offset="100%"></stop>
        </linearGradient>
        <linearGradient x1="51.9756095%" y1="-4%" x2="47.0365857%" y2="143%" id="linearGradient-14">
            <stop stop-color="#BFF3FF" offset="0%"></stop>
            <stop stop-color="#AAF2FF" stop-opacity="0.5" offset="100%"></stop>
        </linearGradient>
        <linearGradient x1="52.9634143%" y1="-2%" x2="47.0365857%" y2="142%" id="linearGradient-15">
            <stop stop-color="#BFF3FF" offset="0%"></stop>
            <stop stop-color="#00DDFF" stop-opacity="0" offset="100%"></stop>
        </linearGradient>
        <linearGradient x1="49%" y1="-2.64198084%" x2="57%" y2="123.901242%" id="linearGradient-16">
            <stop stop-color="#BFF3FF" stop-opacity="0.8" offset="0%"></stop>
            <stop stop-color="#80EBFF" stop-opacity="0.2" offset="100%"></stop>
        </linearGradient>
        <linearGradient x1="116.18292%" y1="-23%" x2="24.3170759%" y2="128%" id="linearGradient-17">
            <stop stop-color="#BFF3FF" stop-opacity="0.8" offset="0%"></stop>
            <stop stop-color="#80EBFF" stop-opacity="0.2" offset="100%"></stop>
        </linearGradient>
        <linearGradient x1="51.9756095%" y1="-1%" x2="47.0365857%" y2="137%" id="linearGradient-18">
            <stop stop-color="#00DDFF" stop-opacity="0.4" offset="0%"></stop>
            <stop stop-color="#00DDFF" stop-opacity="0" offset="100%"></stop>
        </linearGradient>
        <linearGradient x1="50%" y1="-12%" x2="50%" y2="99%" id="linearGradient-19">
            <stop stop-color="#BFF3FF" offset="0%"></stop>
            <stop stop-color="#00DDFF" stop-opacity="0" offset="100%"></stop>
        </linearGradient>
        <linearGradient x1="52.9634143%" y1="-3%" x2="47.0365857%" y2="142%" id="linearGradient-20">
            <stop stop-color="#BFF3FF" stop-opacity="0.8" offset="0%"></stop>
            <stop stop-color="#00DDFF" stop-opacity="0" offset="100%"></stop>
        </linearGradient>
    </defs>
    <g id="logo-firefox" stroke="none" stroke-width="1" fill="none" fill-rule="evenodd">
        <g id="logo" fill-rule="nonzero">
            <polygon id="Path" fill="#09204D" points="21.2407348 47.206841 23.698091 54.0613375 27.390163 59.074131 36.0583309 60.7386498 40.2052453 61.0930181 47.2854902 59.3130765 50.3355503 56.3718191"></polygon>
            <polygon id="Path" fill="#09204D" points="57.9269897 37.095193 57.0585628 34.1974723 54.5770557 29.4853857 51.7383162 26.4742671 48.7244826 24.3085702 46.1081328 23.2758396 42.9685131 22.1519857 37.7992098 21.8209044 34.5388355 22.4121933 31.8792154 23.2353403 27.1597229 26.0146007 24.2102917 29.3264262 21.4902943 33.7712178 20.4206098 37.5538469 20.2203584 43.2936018 21.2407348 47.206841 23.4907956 51.6617574 25.076706 53.8132796 27.271421 55.8382417 30.0115442 57.7032317 33.3906605 59.1824665 39.0449948 59.8496915 41.9984512 59.9327149 46.3677552 58.6944506 50.2741667 56.5368536 52.7868687 54.3792565 54.7360493 52.0404253 57.4912668 46.6135271 58.099065 42.9007592 57.9269897 37.095193"></polygon>
            <polygon id="Path" fill="#0E56D7" points="37.8938009 24.4290555 35.5783314 26.7395372 39.3549316 28.2805333 42.1644887 24.7743115 37.8938009 24.4290555"></polygon>
            <polygon id="Path" fill="#1053D1" points="39.3549316 28.2805333 46.6666229 28.056775 42.1644887 24.7743115 39.3549316 28.2805333"></polygon>
            <polygon id="Path" fill="#0B4FBF" points="46.1232272 24.750012 42.1644887 24.7743115 46.6666229 28.056775 50.8296378 27.7834051 46.1232272 24.750012"></polygon>
            <polygon id="Path" fill="#0B48B0" points="50.8296378 27.7834051 48.4628476 24.4999291 51.7383162 26.4742671 50.8296378 27.7834051"></polygon>
            <polygon id="Path" fill="#0C45A7" points="53.9632198 29.7941924 50.8296378 27.7834051 51.7383162 26.4742671"></polygon>
            <polygon id="Path" fill="#0F46AF" points="50.8296378 27.7834051 50.3053616 30.0331379 53.1712709 31.1863538"></polygon>
            <polygon id="Path" fill="#0C47AD" points="50.8296378 27.7834051 53.9632198 29.7941924 53.1712709 31.1863538"></polygon>
            <polygon id="Path" fill="#0E4FC3" points="46.6666229 28.056775 50.8296378 27.7834051 50.3053616 30.0331379 46.6666229 28.056775"></polygon>
            <polygon id="Path" fill="#174DCA" points="46.6666229 28.056775 43.3770662 31.0537188 47.6105214 33.1394297"></polygon>
            <polygon id="Path" fill="#1650D4" points="39.3549316 28.2805333 46.6666229 28.056775 43.3770662 31.0537188"></polygon>
            <polygon id="Path" fill="#1246B2" points="50.3053616 30.0331379 52.2958 33.9190401 53.1712709 31.1863538 50.3053616 30.0331379"></polygon>
            <polygon id="Path" fill="#133EA1" points="52.2958 33.9190401 53.1712709 31.1863538 55.2573066 36.1778852"></polygon>
            <polygon id="Path" fill="#103D98" points="53.1712709 31.1863538 56.3501358 33.5292349 55.2573066 36.1778852 53.1712709 31.1863538"></polygon>
            <polygon id="Path" fill="#0B3785" points="53.9632198 29.7941924 54.5770557 29.4853857 56.3501358 33.5292349 53.9632198 29.7941924"></polygon>
            <polygon id="Path" fill="#0B3685" points="56.3501358 33.5292349 57.0585628 34.1974723 54.5770557 29.4853857"></polygon>
            <path d="M56.3501358,33.5292349 L53.9632198,29.7941924 L53.1712709,31.1863538 L56.3501358,33.5292349 Z M51.7383162,26.4742671 L53.9632198,29.7941924 L54.5770557,29.4904481 L51.7383162,26.4742671 Z" id="Shape" fill="#0C3B91"></path>
            <polygon id="Path" fill="#0B3279" points="57.7669898 39.3591006 57.0585628 34.1974723 57.9269897 37.095193 57.7559206 39.3591006"></polygon>
            <polygon id="Path" fill="#0F388D" points="56.3501358 33.5292349 57.7669898 39.3591006 57.0585628 34.1974723 56.3501358 33.5292349"></polygon>
            <polygon id="Path" fill="#0D3481" points="55.2573066 36.1778852 57.7669898 39.3591006 56.3501358 33.5292349"></polygon>
            <polygon id="Path" fill="#0B2E71" points="57.7559206 39.3591006 57.9269897 37.095193 58.099065 42.9007592 57.7669898 39.3591006 57.7559206 39.3591006"></polygon>
            <polygon id="Path" fill="#0E2F77" points="57.3463613 43.9476646 58.099065 42.9007592 57.7669898 39.3591006"></polygon>
            <polygon id="Path" fill="#0E2969" points="57.4912668 46.6135271 56.8895064 46.9051216 58.099065 42.9007592"></polygon>
            <polygon id="Path" fill="#0C2A69" points="56.8895064 46.9051216 58.099065 42.9007592 57.3463613 43.9476646"></polygon>
            <polygon id="Path" fill="#123180" points="57.3463613 43.9476646 57.7669898 39.3591006 56.4779344 40.8889594 57.3463613 43.9476646"></polygon>
            <polygon id="Path" fill="#112B70" points="56.8895064 46.9051216 57.3463613 43.9476646 54.8598227 48.1524982"></polygon>
            <polygon id="Path" fill="#12378C" points="55.2573066 36.1778852 57.7669898 39.3591006 56.4779344 40.8889594 55.2573066 36.1778852"></polygon>
            <polygon id="Path" fill="#122E7B" points="57.3463613 43.9476646 56.4779344 40.8889594 55.1667407 44.6553888"></polygon>
            <polygon id="Path" fill="#11296C" points="54.7360493 52.0404253 56.8895064 46.9051216 54.8749171 50.6482639"></polygon>
            <polygon id="Path" fill="#142A72" points="54.8749171 50.6482639 56.8895064 46.9051216 54.8598227 48.1524982 54.8749171 50.6482639"></polygon>
            <path d="M56.8895064,46.9051216 L54.7360493,52.0373879 L57.4912668,46.6104896 L56.8895064,46.9051216 Z M52.787875,54.3792565 L54.7360493,52.0404253 L54.8749171,50.6482639 L52.787875,54.3792565 Z M50.2721541,56.5368536 L52.787875,54.3792565 L50.1312737,55.6084085 L50.2721541,56.5368536 Z" id="Shape" fill="#112768"></path>
            <polygon id="Path" fill="#1C226A" points="35.6065075 58.0393754 33.0676419 58.6650887 33.1451261 56.8810971 35.6065075 58.0393754"></polygon>
            <polygon id="Path" fill="#182B7A" points="21.4902943 33.7712178 22.190671 33.5099977 20.4206098 37.5538469"></polygon>
            <polygon id="Path" fill="#1F308D" points="20.4206098 37.5538469 21.7609859 37.3027516 22.190671 33.5099977"></polygon>
            <polygon id="Path" fill="#1E2B7F" points="20.5011128 42.4107184 20.4206098 37.5538469 21.7609859 37.3027516 20.5011128 42.4107184"></polygon>
            <path d="M50.3053616,30.0331379 L47.6105214,33.1394297 L52.2958,33.9190401 L50.3053616,30.0331379 Z M26.7904151,26.8478726 L30.2299087,24.4796795 L27.1597229,26.0166257 L26.7904151,26.8478726 Z" id="Shape" fill="#1346B5"></path>
            <polyline id="Path" fill="#1244AC" points="27.1597229 26.0146007 31.8792154 23.2353403 30.2299087 24.4796795 27.1597229 26.0146007"></polyline>
            <polygon id="Path" fill="#0E4AB6" points="30.2299087 24.4796795 34.5388355 22.4121933 31.8792154 23.2353403"></polygon>
            <path d="M46.6666229,28.056775 L47.6105214,33.1394297 L50.3053616,30.0331379 L46.6666229,28.056775 Z M32.8522962,24.238709 L36.8673868,22.6187394 L34.5368229,22.4081434 L32.8522962,24.238709 Z" id="Shape" fill="#0E4BBA"></path>
            <polygon id="Path" fill="#0A4EBC" points="37.7992098 21.8209044 34.5388355 22.4121933 36.8693994 22.6227893 37.7992098 21.8209044"></polygon>
            <polyline id="Path" fill="#0C54CC" points="40.8824774 22.5833026 36.8693994 22.6227893 37.7992098 21.8209044"></polyline>
            <path d="M48.4628476,24.4979042 L46.1232272,24.747987 L50.8296378,27.78543 L48.4628476,24.4979042 Z M40.8824774,22.5833026 L46.1081328,23.2758396 L42.9685131,22.1519857 L40.8824774,22.5833026 Z" id="Shape" fill="#0B4BB4"></path>
            <polygon id="Path" fill="#0C3889" points="48.4628476 24.4999291 46.1081328 23.2758396 48.7244826 24.3085702"></polygon>
            <path d="M21.2407348,47.206841 L22.7894126,48.4856045 L20.505138,42.4107184 L21.2407348,47.206841 Z M42.5629789,59.288777 L43.9214682,56.0711123 L38.9715358,57.4085997 L42.5629789,59.288777 Z M43.9214682,56.0711123 L48.059326,57.2263531 L48.3098918,54.0066635 L43.9214682,56.0711123 Z" id="Shape" fill="#202575"></path>
            <polygon id="Path" fill="#1B2773" points="50.1312737 55.6084085 48.3098918 54.0066635 52.7103908 51.0643936 50.1312737 55.6084085"></polygon>
            <polygon id="Path" fill="#15276D" points="52.7103908 51.0643936 50.1312737 55.6084085 52.787875 54.3792565 54.8749171 50.6482639"></polygon>
            <path d="M48.7244826,24.3085702 L48.4628476,24.4999291 L51.7383162,26.4742671 L48.7244826,24.3085702 Z M46.1232272,24.750012 L48.4628476,24.4999291 L46.1081328,23.2758396 L46.1232272,24.750012 Z" id="Shape" fill="#0C409D"></path>
            <path d="M37.7992098,21.8209044 L40.8824774,22.5833026 L42.9685131,22.1519857 L37.7992098,21.8209044 Z M46.1081328,23.2758396 L40.8824774,22.5833026 L46.1232272,24.750012 L46.1081328,23.2758396 Z" id="Shape" fill="#0B4CB7"></path>
            <polygon id="Path" fill="#0B55CE" points="40.8824774 22.5833026 42.1644887 24.7743115 46.1232272 24.750012"></polygon>
            <polygon id="Path" fill="#0A52C5" points="40.8824774 22.5833026 42.1644887 24.7743115 37.8938009 24.4290555"></polygon>
            <polygon id="Path" fill="#0951C4" points="36.8693994 22.6227893 37.8938009 24.4290555 40.8824774 22.5833026"></polygon>
            <polygon id="Path" fill="#0B50C4" points="32.8543088 24.238709 36.8693994 22.6227893 37.8938009 24.4290555"></polygon>
            <path d="M30.2299087,24.4796795 L32.8543088,24.238709 L34.5388355,22.4162432 L30.2299087,24.4796795 Z M32.8543088,24.238709 L35.5783314,26.7395372 L37.8927946,24.4290555 L32.8543088,24.238709 Z" id="Shape" fill="#0F4DBF"></path>
            <polygon id="Path" fill="#1546B6" points="32.8543088 24.238709 28.419596 28.4232931 30.2299087 24.4796795"></polygon>
            <polygon id="Path" fill="#1549BD" points="28.419596 28.4232931 31.2492789 28.8961217 32.8543088 24.238709"></polygon>
            <polygon id="Path" fill="#144BC3" points="31.2492789 28.8961217 32.8543088 24.238709 35.5783314 26.7395372"></polygon>
            <polygon id="Path" fill="#173794" points="24.2102917 29.3264262 24.3823671 31.0091696 26.7904151 26.8478726"></polygon>
            <polygon id="Path" fill="#192F84" points="22.190671 33.5099977 24.2102917 29.3264262 24.3823671 31.0091696"></polygon>
            <polygon id="Path" fill="#1A389B" points="24.3823671 31.0091696 26.7904151 26.8478726 28.419596 28.4232931"></polygon>
            <polygon id="Path" fill="#1D3089" points="24.2364552 34.617652 24.3823671 31.0091696 22.190671 33.5099977"></polygon>
            <polygon id="Path" fill="#1E389F" points="24.2364552 34.617652 24.3823671 31.0091696 27.2271443 33.3328136"></polygon>
            <polygon id="Path" fill="#1C40AF" points="27.2271443 33.3328136 28.419596 28.4232931 24.3823671 31.0091696 27.2271443 33.3328136"></polygon>
            <polygon id="Path" fill="#1E41B7" points="27.2271443 33.3328136 28.419596 28.4232931 31.2492789 28.8961217 27.2271443 33.3328136"></polygon>
            <polygon id="Path" fill="#192C7D" points="21.7609859 37.3027516 22.190671 33.5099977 24.2364552 34.617652"></polygon>
            <path d="M42.5629789,59.288777 L46.3677552,58.6944506 L48.059326,57.2263531 L42.5629789,59.288777 Z M20.2233773,43.2915769 L20.5041317,42.4086934 L20.4236286,37.5487845 L20.2233773,43.2915769 Z M21.7640047,37.3007267 L20.5041317,42.4086934 L22.7884063,48.4835795 L21.6704199,41.4468364 L21.7640047,37.3007267 Z" id="Shape" fill="#162467"></path>
            <polygon id="Path" fill="#1A236A" points="22.7853874 48.4856045 24.6701655 48.751887 23.3499152 45.6516701"></polygon>
            <path d="M50.1312737,55.6084085 L48.059326,57.2283781 L46.3677552,58.6964756 L50.2741667,56.5388785 L50.1312737,55.6084085 Z M39.0449948,59.8496915 L41.9984512,59.9327149 L46.3677552,58.6944506 L42.5629789,59.288777 L39.0449948,59.8496915 Z M24.5443795,52.0110634 L26.524755,52.3937812 L24.6701655,48.7488496 L24.5443795,52.0110634 Z" id="Shape" fill="#132668"></path>
            <path d="M33.1451261,56.8810971 L29.791167,54.2830708 L28.3974576,55.632708 L33.0676419,58.6650887 L33.1451261,56.8810971 Z M21.2407348,47.206841 L23.4907956,51.6617574 L22.7863937,48.4856045 L21.2407348,47.206841 Z M20.2203584,43.2936018 L21.2407348,47.206841 L20.5011128,42.4107184 L20.2203584,43.2936018 Z M38.9715358,57.4085997 L33.1451261,56.8810971 L35.6065075,58.0393754 L33.0676419,58.6650887 L30.0115442,57.7072816 L33.3906605,59.1865164 L39.0449948,59.8537414 L42.5670041,59.2928269 L38.9715358,57.4085997 Z M24.6701655,48.751887 L22.7894126,48.4856045 L24.5484046,52.0110634 L24.6701655,48.751887 Z M21.6704199,41.4468364 L22.7894126,48.4856045 L23.3539404,45.6506576 L21.6704199,41.4468364 Z M26.524755,52.3937812 L24.5443795,52.0110634 L23.4938144,51.6617574 L25.0797249,53.8132796 L27.2744398,55.8382417 L30.0115442,57.7072816 L28.4014828,55.6367579 L26.524755,52.3937812 Z" id="Shape" fill="#1B2268"></path>
            <polygon id="Path" fill="#212A81" points="21.7609859 37.3027516 24.420606 41.4427865 24.2364552 34.617652"></polygon>
            <polygon id="Path" fill="#21267A" points="21.6704199 41.4468364 23.3499152 45.6516701 24.420606 41.4427865 21.6704199 41.4468364"></polygon>
            <polygon id="Path" fill="#262781" points="23.3499152 45.6516701 24.420606 41.4427865 25.7499129 44.7687867"></polygon>
            <polygon id="Path" fill="#272379" points="24.6701655 48.751887 29.770035 51.9320899 25.7499129 44.7687867 24.6701655 48.751887"></polygon>
            <path d="M23.4938144,51.6617574 L24.5473983,52.0110634 L22.7894126,48.4856045 L23.4938144,51.6617574 Z M34.7582064,53.4913106 L33.148145,56.8810971 L38.9745546,57.4085997 L34.7582064,53.4913106 Z M24.6701655,48.751887 L26.524755,52.3968187 L28.3974576,55.6367579 L29.791167,54.2871207 L29.770035,51.9361398 L24.6701655,48.751887 Z" id="Shape" fill="#1E226D"></path>
            <path d="M48.3098918,54.0066635 L48.059326,57.2263531 L50.1312737,55.6063835 L48.3098918,54.0066635 Z M39.3931706,53.5439597 L38.9695232,57.4085997 L43.9214682,56.0711123 L43.7453678,51.7265562 L39.3931706,53.5439597 Z" id="Shape" fill="#222475"></path>
            <path d="M21.6704199,41.4468364 L24.420606,41.4468364 L21.7609859,37.3068016 L21.6704199,41.4468364 Z M43.7453678,51.7265562 L43.9214682,56.0711123 L48.3098918,54.0066635 L43.7453678,51.7265562 Z" id="Shape" fill="#23277D"></path>
            <polygon id="Path" fill="#1E2776" points="43.7453678 51.7265562 46.5700192 49.1528295 48.3098918 54.0066635 43.7453678 51.7265562"></polygon>
            <polygon id="Path" fill="#222B86" points="48.3098918 54.0066635 50.4452357 47.499448 46.5700192 49.1528295"></polygon>
            <polygon id="Path" fill="#192974" points="52.7103908 51.0643936 48.3098918 54.0066635 50.4452357 47.499448"></polygon>
            <polygon id="Path" fill="#172A75" points="54.8598227 48.1524982 50.4452357 47.499448 52.7103908 51.0643936 54.8749171 50.6482639 54.8598227 48.1524982"></polygon>
            <polygon id="Path" fill="#172D7D" points="55.1667407 44.6553888 50.4452357 47.499448 54.8598227 48.1524982 57.3463613 43.9466521 55.1667407 44.6553888"></polygon>
            <path d="M22.190671,33.5089853 L24.2102917,29.3254137 L21.4933132,33.7702054 L22.190671,33.5089853 Z M53.4057361,38.6878257 L55.1667407,44.6543763 L56.4749156,40.8879469 L53.4057361,38.6878257 Z" id="Shape" fill="#18338A"></path>
            <polygon id="Path" fill="#153791" points="56.4779344 40.8889594 55.2573066 36.1778852 53.4057361 38.6888381 56.4779344 40.8889594"></polygon>
            <polygon id="Path" fill="#1B318B" points="50.4452357 47.499448 55.1667407 44.6553888 50.5911475 42.6061272"></polygon>
            <polygon id="Path" fill="#242D8D" points="50.4452357 47.499448 46.1664976 43.1498295 46.5700192 49.1528295"></polygon>
            <polygon id="Path" fill="#2A2B8F" points="43.7453678 51.7265562 40.4598362 48.7994736 46.5700192 49.1528295"></polygon>
            <path d="M24.6701655,48.751887 L25.7499129,44.7687867 L23.3499152,45.6516701 L24.6701655,48.751887 Z M40.4598362,48.7974486 L39.3931706,53.5439597 L43.7433552,51.7265562 L40.4598362,48.7974486 Z" id="Shape" fill="#27267F"></path>
            <polygon id="Path" fill="#2D2381" points="33.6593395 49.7704429 30.4975814 48.1524982 29.770035 51.9320899 34.7551875 53.4913106 39.3951832 53.5439597 33.6593395 49.7704429"></polygon>
            <polygon id="Path" fill="#2F2485" points="39.3951832 53.5439597 40.4598362 48.7994736 33.6593395 49.7704429"></polygon>
            <polygon id="Path" fill="#233196" points="24.420606 41.4427865 25.7841267 37.0607687 24.2364552 34.617652"></polygon>
            <polygon id="Path" fill="#293CB7" points="27.2271443 33.3328136 33.21456 31.5771715 30.0517957 38.0783121"></polygon>
            <polygon id="Path" fill="#25339C" points="50.4452357 47.499448 46.1664976 43.1498295 50.5911475 42.6061272 50.4452357 47.499448"></polygon>
            <polygon id="Path" fill="#19348F" points="55.1667407 44.6553888 53.4057361 38.6888381 50.5911475 42.6061272"></polygon>
            <polygon id="Path" fill="#2A309A" points="46.5700192 49.1528295 41.6764389 44.3921437 46.1664976 43.1498295 46.5700192 49.1528295"></polygon>
            <polygon id="Path" fill="#302B96" points="40.4598362 48.7994736 46.5700192 49.1528295 41.6764389 44.3921437"></polygon>
            <polygon id="Path" fill="#3630A7" points="40.4598362 48.7994736 37.1139274 46.057675 41.6764389 44.3921437 40.4598362 48.7994736"></polygon>
            <path d="M26.7904151,26.8478726 L27.1597229,26.0146007 L24.2102917,29.3264262 L26.7904151,26.8478726 Z M52.2958,33.9190401 L53.4027172,38.6888381 L55.2542878,36.1778852 L52.2958,33.9190401 Z" id="Shape" fill="#173DA2"></path>
            <polygon id="Path" fill="#2A36A8" points="27.2271443 33.3328136 30.0517957 38.0783121 25.7841267 37.0607687 27.2271443 33.3328136"></polygon>
            <polygon id="Path" fill="#312E9F" points="25.7841267 37.0607687 30.0517957 38.0783121 27.1657607 42.6516889 25.7841267 37.0607687"></polygon>
            <polygon id="Path" fill="#184DCD" points="33.21456 31.5771715 35.5783314 26.7395372 31.2492789 28.8961217"></polygon>
            <polygon id="Path" fill="#272986" points="24.420606 41.4427865 27.1657607 42.6516889 25.7499129 44.7687867 24.420606 41.4427865"></polygon>
            <polygon id="Path" fill="#2C2584" points="27.1657607 42.6516889 25.7499129 44.7687867 29.770035 51.9320899 30.4975814 48.1524982 27.1657607 42.6516889"></polygon>
            <polygon id="Path" fill="#32268B" points="30.4975814 48.1524982 30.9423609 41.4974605 27.1657607 42.6516889 30.4975814 48.1524982"></polygon>
            <polygon id="Path" fill="#372999" points="30.4975814 48.1524982 37.1139274 46.057675 30.9423609 41.4974605 30.4975814 48.1524982"></polygon>
            <polygon id="Path" fill="#392DA5" points="37.1139274 46.057675 36.4688966 40.9122465 30.9423609 41.4974605 37.1139274 46.057675"></polygon>
            <polygon id="Path" fill="#3338BC" points="36.4688966 40.9122465 41.136062 39.1566044 41.6764389 44.3921437"></polygon>
            <polygon id="Path" fill="#362896" points="33.6593395 49.7704429 40.4598362 48.7994736 37.1139274 46.057675"></polygon>
            <polygon id="Path" fill="#35268F" points="33.6593395 49.7704429 30.4975814 48.1524982 37.1139274 46.057675"></polygon>
            <polygon id="Path" fill="#2648D3" points="33.21456 31.5771715 37.2668833 32.0084884 35.5783314 26.7395372 33.21456 31.5771715"></polygon>
            <polygon id="Path" fill="#1057DC" points="39.3549316 28.2805333 35.5783314 26.7395372 37.2668833 32.0084884 39.3549316 28.2805333"></polygon>
            <polygon id="Path" fill="#1653DA" points="39.3549316 28.2805333 43.3770662 31.0537188 37.2668833 32.0084884 39.3549316 28.2805333"></polygon>
            <polygon id="Path" fill="#2B46D5" points="37.2668833 32.0084884 43.2603368 35.2069159 41.136062 39.1566044 37.2668833 32.0084884"></polygon>
            <polygon id="Path" fill="#244AD7" points="43.2603368 35.2069159 43.3770662 31.0537188 37.2668833 32.0084884"></polygon>
            <polygon id="Path" fill="#2547CF" points="43.2603368 35.2069159 43.3770662 31.0537188 47.6105214 33.1394297"></polygon>
            <polygon id="Path" fill="#333CC5" points="37.2668833 32.0084884 41.136062 39.1566044 34.3506596 35.7364435"></polygon>
            <polygon id="Path" fill="#3833B6" points="36.4688966 40.9122465 41.136062 39.1566044 34.3506596 35.7364435 36.4688966 40.9122465"></polygon>
            <polygon id="Path" fill="#2A41C6" points="41.136062 39.1566044 47.1204589 38.0560375 43.2603368 35.2069159 41.136062 39.1566044"></polygon>
            <polygon id="Path" fill="#2045C1" points="47.6105214 33.1394297 47.1204589 38.0560375 43.2603368 35.2069159"></polygon>
            <polygon id="Path" fill="#1B43B7" points="47.6105214 33.1394297 50.4351728 37.0000198 47.1204589 38.0560375 47.6105214 33.1394297"></polygon>
            <polygon id="Path" fill="#1742AF" points="52.2958 33.9190401 47.6105214 33.1394297 50.4351728 37.0000198"></polygon>
            <path d="M28.4246274,28.4232931 L30.2359465,24.4746171 L26.7964528,26.8428102 L28.4246274,28.4232931 Z M52.3008314,33.9190401 L50.4402042,37.0000198 L53.4107675,38.6888381 L52.3008314,33.9190401 Z" id="Shape" fill="#1740A9"></path>
            <polygon id="Path" fill="#1B3CA4" points="50.5911475 42.6061272 53.4057361 38.6888381 50.4351728 37.0000198"></polygon>
            <polygon id="Path" fill="#1F3DAD" points="50.5911475 42.6061272 50.4351728 37.0000198 47.1204589 38.0560375"></polygon>
            <path d="M27.2271443,33.3328136 L33.21456,31.5771715 L31.2492789,28.8961217 L27.2271443,33.3328136 Z M41.136062,39.1566044 L46.1675038,43.1498295 L47.1214652,38.0560375 L41.136062,39.1566044 Z" id="Shape" fill="#2543C3"></path>
            <polygon id="Path" fill="#2E37B2" points="41.6764389 44.3921437 46.1664976 43.1498295 41.136062 39.1566044"></polygon>
            <polygon id="Path" fill="#2D40C7" points="33.21456 31.5771715 34.3506596 35.7364435 37.2668833 32.0084884"></polygon>
            <polygon id="Path" fill="#3537B8" points="33.21456 31.5771715 30.0517957 38.0783121 34.3506596 35.7364435 33.21456 31.5771715"></polygon>
            <polygon id="Path" fill="#3931B0" points="34.3506596 35.7364435 30.9423609 41.4974605 36.4688966 40.9122465 34.3506596 35.7364435"></polygon>
            <path d="M36.4688966,40.9122465 L37.1139274,46.057675 L41.6764389,44.3921437 L36.4688966,40.9122465 Z M30.9403483,41.4974605 L34.348647,35.7364435 L30.0497831,38.0783121 L30.9403483,41.4974605 Z" id="Shape" fill="#3735B8"></path>
            <polygon id="Path" fill="#342892" points="27.1657607 42.6516889 30.0517957 38.0783121 30.9423609 41.4974605 27.1657607 42.6516889"></polygon>
            <path d="M30.0115442,57.7072816 L33.0676419,58.6691386 L28.3974576,55.6367579 L30.0115442,57.7072816 Z M29.791167,54.2871207 L33.1451261,56.885147 L34.7551875,53.4953606 L29.770035,51.9361398 L29.791167,54.2871207 Z M38.9715358,57.4126496 L39.3951832,53.5480096 L34.7551875,53.4953606 L38.9715358,57.4126496 Z M43.9214682,56.0711123 L42.5629789,59.288777 L48.059326,57.2263531 L43.9214682,56.0711123 Z" id="Shape" fill="#232372"></path>
            <polygon id="Path" fill="#2A2F96" points="24.420606 41.4427865 25.7841267 37.0607687 27.1657607 42.6516889 24.420606 41.4427865"></polygon>
            <path d="M25.7841267,37.0607687 L27.2271443,33.3328136 L24.2374615,34.6227144 L25.7841267,37.0607687 Z M47.1174401,38.0560375 L46.1634787,43.1498295 L50.5911475,42.6061272 L47.1174401,38.0560375 Z" id="Shape" fill="#2636A5"></path>
            <path d="M58.1845995,42.9058216 L58.1845995,42.8977217 L58.0095053,37.0921556 L58.0095053,37.071906 L57.1420847,34.1751978 L57.1420847,34.1691229 L54.6605776,29.4570362 L51.8007061,26.4155432 L51.7946684,26.4155432 L48.781841,24.2518713 L48.7697656,24.2518713 L46.1534158,23.2191407 L46.1353026,23.2191407 L42.9956829,22.0952867 L42.9745509,22.0952867 L37.8052475,21.7642054 L37.7831092,21.7642054 L34.5227349,22.3565068 L34.5106594,22.3565068 L31.8530519,23.1786414 L31.835945,23.1786414 L27.1164525,25.9406896 L24.1680276,29.2504901 L21.4510491,33.6942693 L21.4510491,33.7054066 L20.3803582,37.4880357 L20.3803582,37.5022104 L20.1791006,43.2419653 L20.1791006,43.2693023 L21.1984707,47.179504 L21.1984707,47.1926662 L23.4475252,51.6475827 L23.4475252,51.6546701 L25.003247,53.8598537 L25.003247,53.8649161 L27.1969556,55.8898782 L27.2029933,55.8898782 L29.9431166,57.7548682 L29.9491543,57.7548682 L33.3282706,59.2330905 L33.3494027,59.2330905 L39.003737,59.9003155 L39.0117873,59.9003155 L41.9642374,59.9833389 L41.987382,59.9833389 L46.3566861,58.7440622 L46.3717804,58.7440622 L50.2761792,56.5874776 L50.2832233,56.5824152 L50.2882547,56.5824152 L52.8039756,54.4258306 L54.7521499,52.085987 L54.7591939,52.0758622 L57.5144114,46.6489639 L57.5144114,46.6277018 L58.1181845,42.9169589 L58.1181845,42.9078466 L58.1845995,42.9058216 Z M27.3247542,55.7704054 L26.7562013,55.2459403 L28.0341875,56.2533589 L27.3247542,55.7704054 Z M35.6185829,57.9502771 L33.6211005,57.0106947 L38.3506558,57.4389741 L35.6185829,57.9502771 Z M36.3461294,40.8393478 L31.103367,41.3941874 L34.3365716,35.9267899 L36.3461294,40.8393478 Z M34.5166972,35.9156526 L40.9227289,39.1444546 L36.5161922,40.7988486 L34.5166972,35.9156526 Z M36.3944313,41.0064072 L37.004242,45.8663161 L31.1677695,41.5561844 L36.3944313,41.0064072 Z M36.9277641,46.0262881 L30.5881474,48.0330255 L31.0138074,41.6543951 L36.9277641,46.0262881 Z M36.5755632,41.0874057 L41.4872567,44.3688567 L37.1843676,45.9402272 L36.5755632,41.0874057 Z M36.6540537,40.9335086 L41.0615967,39.2750647 L41.5717849,44.220022 L36.6540537,40.9335086 Z M43.4253681,35.2221031 L47.5098925,33.2821895 L47.0490125,37.8980905 L43.4253681,35.2221031 Z M46.9091384,38.0074384 L41.2940493,39.0401691 L43.2885128,35.3314511 L46.9091384,38.0074384 Z M41.1340495,38.9763828 L37.4812227,32.218072 L43.1476325,35.2413403 L41.1340495,38.9763828 Z M40.9327918,38.9571456 L34.4844959,35.7070815 L37.2558141,32.163398 L40.9327918,38.9571456 Z M30.9755684,41.2777521 L30.1534308,38.1208363 L34.1212258,35.9602018 L30.9755684,41.2777521 Z M30.4321727,47.8771034 L27.2965782,42.7023129 L30.8487761,41.6159208 L30.4321727,47.8771034 Z M36.8311604,46.2378966 L33.6432389,49.6641324 L30.7250026,48.1717354 L36.8311604,46.2378966 Z M41.5516591,44.5298411 L40.4145533,48.6506389 L37.279965,46.087037 L41.5516591,44.5298411 Z M41.2437349,39.3499883 L45.9833531,43.1113552 L41.756942,44.2827958 L41.2437349,39.3499883 Z M41.338326,39.2062159 L47.0147987,38.1633605 L46.1091391,42.9939074 L41.338326,39.2062159 Z M47.2200815,37.9355523 L47.6749238,33.3702754 L50.2973113,36.9544582 L47.2200815,37.9355523 Z M50.3546697,37.1154426 L50.4995753,42.3428821 L47.2633519,38.1015992 L50.3546697,37.1154426 Z M43.351909,35.0692185 L43.4605882,31.1893912 L47.4163077,33.1384172 L43.351909,35.0692185 Z M43.18084,35.0692185 L37.5355623,32.056075 L43.2905254,31.1569918 L43.18084,35.0692185 Z M34.3899048,35.5521719 L33.3322958,31.6784196 L37.1068834,32.083412 L34.3899048,35.5521719 Z M34.2520433,35.6969567 L30.2460094,37.8748034 L33.1924217,31.8191544 L34.2520433,35.6969567 Z M30.8397195,41.4397491 L27.3629932,42.5028541 L30.0206008,38.2899206 L30.8397195,41.4397491 Z M30.2107893,47.8416666 L25.8676487,44.7475246 L27.1627418,42.8126733 L30.2107893,47.8416666 Z M30.5609776,48.2810833 L33.4792139,49.7734803 L29.8907896,51.768068 L30.5609776,48.2810833 Z M37.122984,46.1751228 L40.256566,48.7427747 L33.8887732,49.6540076 L37.122984,46.1751228 Z M41.7217219,44.5551532 L46.3506483,49.0546188 L40.5755594,48.7215126 L41.7217219,44.5551532 Z M41.844489,44.4356804 L46.0890134,43.2612024 L46.4703966,48.937171 L41.844489,44.4356804 Z M47.1697671,38.2595462 L50.4331602,42.5372785 L46.2731641,43.043519 L47.1697671,38.2595462 Z M50.5257388,37.1458171 L53.27995,38.7161751 L50.6636003,42.3499695 L50.5257388,37.1458171 Z M50.5549211,36.9655955 L52.2656113,34.1397609 L53.27995,38.5177289 L50.5549211,36.9655955 Z M50.4291351,36.8420728 L47.804735,33.255865 L52.1589448,33.9797889 L50.4291351,36.8420728 Z M43.5290158,31.0284068 L46.611277,28.2207969 L47.4958045,32.9845201 L43.5290158,31.0284068 Z M37.4288957,31.8930655 L39.3851203,28.4010185 L43.1526639,30.9990448 L37.4288957,31.8930655 Z M33.3453775,31.5042728 L35.5592119,26.9683579 L37.1431098,31.9092652 L33.3453775,31.5042728 Z M30.0447517,37.8980905 L27.3579618,33.3844501 L33.0525476,31.7138564 L30.0447517,37.8980905 Z M27.2009808,42.4370429 L25.9008562,37.177204 L29.9159468,38.1339985 L27.2009808,42.4370429 Z M25.7690324,44.5855276 L24.577587,41.6088334 L27.0379621,42.6921881 L25.7690324,44.5855276 Z M30.4029903,48.18996 L29.7328023,51.686057 L26.0095353,45.0603812 L30.4029903,48.18996 Z M33.6080188,49.8959905 L34.6273889,53.3607006 L29.986387,51.9088028 L33.6080188,49.8959905 Z M40.3501508,48.9007217 L39.338831,53.4042373 L33.8958173,49.8220794 L40.3501508,48.9007217 Z M46.3617175,49.2257281 L43.7453678,51.6101209 L40.7013455,48.8986967 L46.3617175,49.2257281 Z M46.2671264,43.3725753 L50.2922799,47.4690735 L46.642472,49.0262694 L46.2671264,43.3725753 Z M46.349642,43.2126033 L50.5025941,42.7063628 L50.3617138,47.2969518 L46.349642,43.2126033 Z M53.3735348,38.8801971 L55.031898,44.5004792 L50.7209587,42.5706904 L53.3735348,38.8801971 Z M52.4326552,34.1296361 L55.1385646,36.1940849 L53.4469939,38.4883669 L52.4326552,34.1296361 Z M47.7755527,33.0796933 L50.2912736,30.1850101 L52.145863,33.8056422 L47.7755527,33.0796933 Z M47.6618421,32.9490832 L46.7833523,28.2177594 L50.170519,30.0574375 L47.6618421,32.9490832 Z M43.3700222,30.9443708 L39.6185792,28.3584943 L46.4371891,28.1499232 L43.3700222,30.9443708 Z M37.2890216,31.7948549 L35.7161929,26.8883719 L39.2331707,28.3230575 L37.2890216,31.7948549 Z M33.1994657,31.4121371 L31.3790901,28.9275086 L35.3911618,26.9278586 L33.1994657,31.4121371 Z M33.0736797,31.5295849 L27.494817,33.1657542 L31.2422348,29.0317942 L33.0736797,31.5295849 Z M29.8746889,37.947702 L25.8998499,37.0000198 L27.2442512,33.5282224 L29.8746889,37.947702 Z M27.0409809,42.5038666 L24.52526,41.3951999 L25.7760764,37.3786877 L27.0409809,42.5038666 Z M25.6382149,44.7181626 L23.4736887,45.5149852 L24.4387192,41.7181814 L25.6382149,44.7181626 Z M29.5315446,51.6820071 L24.7697881,48.7124002 L25.7760764,44.992545 L29.5315446,51.6820071 Z M34.3808482,53.4639737 L29.8756952,54.1828352 L29.8565758,52.0485252 L34.3808482,53.4639737 Z M33.8072639,49.9699017 L39.1043658,53.4548613 L34.8185837,53.4062622 L33.8072639,49.9699017 Z M40.5121632,48.9574206 L43.5863742,51.6971943 L39.5149315,53.3981624 L40.5121632,48.9574206 Z M46.537818,49.3036892 L48.1629737,53.8355542 L43.9003362,51.7093441 L46.537818,49.3036892 Z M46.6827235,49.2024411 L50.3053616,47.6553701 L48.3068729,53.7454434 L46.6827235,49.2024411 Z M50.6776883,42.7387622 L54.9876214,44.668551 L50.5408331,47.3475758 L50.6776883,42.7387622 Z M53.562717,38.9055091 L56.3803245,40.9233838 L55.1727784,44.3789815 L53.562717,38.9055091 Z M53.5315221,38.671626 L55.2251054,36.375319 L56.3410792,40.6844382 L53.5315221,38.671626 Z M52.400454,33.8886656 L53.1793212,31.4333992 L55.0520238,35.9166651 L52.400454,33.8886656 Z M52.2827182,33.6973067 L50.4854872,30.1981723 L53.0656106,31.2359654 L52.2827182,33.6973067 Z M46.9725345,28.1286611 L50.7249838,27.8816157 L50.2520283,29.9065778 L46.9725345,28.1286611 Z M39.5431075,28.1944724 L42.1846145,24.8968217 L46.4190759,27.9838763 L39.5431075,28.1944724 Z M39.3871329,28.1154989 L38.026631,24.5303036 L42.00147,24.8522725 L39.3871329,28.1154989 Z M39.2100261,28.1316986 L35.7353124,26.7142251 L37.8656248,24.588015 L39.2100261,28.1316986 Z M31.403241,28.7320998 L32.8975792,24.3946311 L35.4344322,26.7233375 L31.403241,28.7320998 Z M27.3951944,33.0321067 L28.4890299,28.5255537 L31.0862601,28.959908 L27.3951944,33.0321067 Z M25.771045,36.8795346 L24.368279,34.6632136 L27.0792199,33.4988604 L25.771045,36.8795346 Z M25.6965797,37.0820308 L24.4970839,40.9294586 L24.3360778,34.9294961 L25.6965797,37.0820308 Z M24.3149457,41.5369473 L23.3368334,45.3843751 L21.8022437,41.5369473 L24.3149457,41.5369473 Z M21.7629984,41.3688754 L21.8445078,37.5933337 L24.2686565,41.365838 L21.7629984,41.3688754 Z M25.6291583,44.912559 L24.6520523,48.4937043 L23.4646321,45.7022942 L25.6291583,44.912559 Z M29.529532,51.8865282 L26.5780883,52.3067079 L24.891549,48.99387 L29.529532,51.8865282 Z M29.6905382,52.0363754 L29.7096577,54.140311 L26.7914214,52.4504802 L29.6905382,52.0363754 Z M34.6122946,53.607746 L33.1139312,56.7484621 L30.000475,54.3367323 L34.6122946,53.607746 Z M34.7873887,53.6391329 L38.7300266,57.3022892 L33.2749373,56.8081985 L34.7873887,53.6391329 Z M34.9805961,53.5854714 L39.3076361,53.635083 L38.913171,57.2364779 L34.9805961,53.5854714 Z M43.6698961,51.8642537 L43.8349274,55.9324024 L39.5944283,53.5561094 L43.6698961,51.8642537 Z M43.8419714,51.8794409 L48.118697,54.0157758 L44.0070027,55.9496146 L43.8419714,51.8794409 Z M50.4754243,47.710044 L52.5986928,51.0512314 L48.4729105,53.8092297 L50.4754243,47.710044 Z M50.6233487,47.6229707 L54.7108921,48.2304593 L52.7154222,50.913534 L50.6233487,47.6229707 Z M50.6988204,47.4609737 L55.0721496,44.828523 L54.78737,48.0684623 L50.6988204,47.4609737 Z M56.4749156,41.1835914 L57.2467387,43.9021029 L55.3096336,44.5318661 L56.4749156,41.1835914 Z M55.4424637,36.5464283 L57.6562981,39.3530257 L56.5191922,40.7036754 L55.4424637,36.5464283 Z M53.3695097,31.4344116 L56.2464881,33.5545469 L55.2573066,35.9510895 L53.3695097,31.4344116 Z M50.4049841,29.9774515 L50.8688831,27.9879263 L52.9398245,30.9970198 L50.4049841,29.9774515 Z M46.7390756,27.9666642 L46.2359315,24.9292211 L50.5629714,27.7175938 L46.7390756,27.9666642 Z M46.5488871,27.865416 L42.4231048,24.8593599 L46.045743,24.8360728 L46.5488871,27.865416 Z M38.1614736,24.3642567 L40.853295,22.7017629 L42.0095203,24.6761008 L38.1614736,24.3642567 Z M35.5763188,26.6241143 L33.0837425,24.3359072 L37.6935495,24.510054 L35.5763188,26.6241143 Z M31.1919204,28.799936 L28.6037467,28.3665942 L32.6600951,24.5394159 L31.1919204,28.799936 Z M27.1768298,33.1809414 L24.5282789,31.0172695 L28.2867659,28.6095896 L27.1768298,33.1809414 Z M27.0641255,33.310539 L24.3280275,34.485017 L24.4608576,31.1833163 L27.0641255,33.310539 Z M24.3270212,41.1390422 L21.8686587,37.3128764 L24.1569585,34.830273 L24.3270212,41.1390422 Z M23.2613618,45.6587575 L22.7954503,47.9996136 L21.8746965,42.1869601 L23.2613618,45.6587575 Z M23.3801038,45.9382022 L24.532304,48.644564 L22.8900414,48.4137183 L23.3801038,45.9382022 Z M26.3687803,52.2753209 L24.6319266,51.9361398 L24.7426183,49.0789184 L26.3687803,52.2753209 Z M29.6502866,54.300283 L28.4165771,55.4939981 L26.7592202,52.6276643 L29.6502866,54.300283 Z M29.7972047,54.3954562 L32.760724,56.6948006 L28.5655078,55.5911963 L29.7972047,54.3954562 Z M39.4656233,53.6806446 L43.6920345,56.0417503 L39.063108,57.2921644 L39.4656233,53.6806446 Z M48.2132881,54.1453734 L47.9818418,57.1149802 L44.1670026,56.0488377 L48.2132881,54.1453734 Z M52.4578124,51.3357386 L50.1091354,55.4798234 L48.4497659,54.0157758 L52.4578124,51.3357386 Z M54.7722756,48.4096684 L54.7843511,50.5763778 L52.9056107,50.9378335 L54.7722756,48.4096684 Z M55.2432186,44.7191751 L57.1551665,44.0975118 L54.9775585,47.7849676 L55.2432186,44.7191751 Z M56.5685004,40.9081965 L57.6532792,39.6213332 L57.3051035,43.4819233 L56.5685004,40.9081965 Z M55.3518977,36.1637105 L56.3259849,33.8036172 L57.5878705,38.9966324 L55.3518977,36.1637105 Z M53.27995,31.1620542 L53.9642261,29.9602393 L56.026111,33.1860038 L53.27995,31.1620542 Z M53.161208,31.0253693 L51.1365558,28.0891744 L53.8454841,29.8265918 L53.161208,31.0253693 Z M46.3697678,24.8097483 L48.4185709,24.59004 L50.4915249,27.4664985 L46.3697678,24.8097483 Z M42.2087654,24.6882506 L41.0807162,22.7594743 L45.693542,24.6669885 L42.2087654,24.6882506 Z M37.9199644,24.3095827 L37.0143049,22.7078377 L40.5745531,22.6713884 L37.9199644,24.3095827 Z M37.7388325,24.3369197 L33.2548116,24.1678354 L36.8281415,22.7311248 L37.7388325,24.3369197 Z M28.6822372,28.0587999 L30.2922986,24.560678 L32.6208499,24.3470445 L28.6822372,28.0587999 Z M28.3934325,28.2774958 L26.926264,26.8600224 L30.0236196,24.7277374 L28.3934325,28.2774958 Z M28.283747,28.4091184 L24.6339391,30.746937 L26.814566,26.98557 L28.283747,28.4091184 Z M24.1579648,34.4769171 L22.3265199,33.4856982 L24.2887822,31.2471027 L24.1579648,34.4769171 Z M24.1006063,34.6399265 L21.8746965,37.0526688 L22.2611112,33.6456702 L24.1006063,34.6399265 Z M21.5818665,41.4063372 L20.6409869,42.1798727 L21.6543193,38.0742622 L21.5818665,41.4063372 Z M21.6050112,41.6088334 L22.5650103,47.6695448 L20.5977165,42.4390678 L21.6050112,41.6088334 Z M24.577587,48.8268106 L24.4679016,51.6749197 L22.9343181,48.5949524 L24.577587,48.8268106 Z M26.4663903,52.4717423 L28.032175,55.1760791 L24.8180899,52.1548357 L26.4663903,52.4717423 Z M33.0535539,56.9469084 L32.9861326,58.5111915 L28.8885264,55.8514039 L33.0535539,56.9469084 Z M33.221604,57.0137321 L35.3488976,58.0140634 L33.155189,58.5537157 L33.221604,57.0137321 Z M38.8860012,57.5118728 L38.9524163,59.7059191 L35.8621047,58.0788621 L38.8860012,57.5118728 Z M43.7715313,56.1956475 L42.517696,59.1652543 L39.2029821,57.4308743 L43.7715313,56.1956475 Z M43.9727889,56.1693229 L47.7856155,57.234453 L42.7219725,59.1348799 L43.9727889,56.1693229 Z M48.3843571,54.1797977 L49.9994499,55.5972712 L48.1589485,57.0390441 L48.3843571,54.1797977 Z M52.7677492,51.1372923 L54.6293827,50.778874 L50.5478771,55.047494 L52.7677492,51.1372923 Z M54.9604516,50.3090828 L54.9473698,48.1960349 L56.6651041,47.1400172 L54.9604516,50.3090828 Z M55.1113948,47.8943156 L57.1944117,44.3729066 L56.8110159,46.8524726 L55.1113948,47.8943156 Z M57.7700087,40.2804583 L58.0135305,42.8724097 L57.4620844,43.6388578 L57.7700087,40.2804583 Z M56.5000728,33.7894425 L56.9760472,34.2389841 L57.4530279,37.711794 L56.5000728,33.7894425 Z M54.0849807,29.8286167 L54.532779,29.601821 L55.8288784,32.5572531 L54.0849807,29.8286167 Z M50.9483799,27.7591055 L51.7352974,26.6261393 L53.6613333,29.5005729 L50.9483799,27.7591055 Z M50.8256127,27.6355829 L48.774797,24.7884862 L51.6145428,26.5005916 L50.8256127,27.6355829 Z M46.2057428,24.6548387 L46.1926611,23.4175869 L48.1690114,24.4442427 L46.2057428,24.6548387 Z M46.0346738,24.6214269 L41.5174453,22.7544119 L46.021592,23.3507632 L46.0346738,24.6214269 Z M37.0998394,22.5347035 L37.8193356,21.9140526 L40.2032327,22.5043291 L37.0998394,22.5347035 Z M33.1753148,24.0169757 L34.5730493,22.4982542 L36.5071356,22.6734134 L33.1753148,24.0169757 Z M32.8140573,24.1566981 L30.7008517,24.3500819 L34.177578,22.6835382 L32.8140573,24.1566981 Z M26.9916728,26.6048772 L27.2251317,26.0773746 L29.1682745,25.1064053 L26.9916728,26.6048772 Z M24.4407318,30.7378247 L24.2988451,29.3578131 L26.4120507,27.332851 L24.4407318,30.7378247 Z M24.2938137,30.9808201 L22.5408594,32.9804702 L24.1559522,29.6392828 L24.2938137,30.9808201 Z M21.6824954,37.229853 L20.5635027,37.4394366 L22.0417403,34.0628124 L21.6824954,37.229853 Z M21.6452627,37.4120996 L20.5755782,41.7505807 L20.5071506,37.6247206 L21.6452627,37.4120996 Z M22.5881549,48.2142596 L21.3162064,47.1612793 L20.7063957,43.2126033 L22.5881549,48.2142596 Z M24.3712979,51.8591912 L23.5592232,51.5908838 L23.0158275,49.1416922 L24.3712979,51.8591912 Z M27.843999,55.2287281 L25.1491588,53.7586056 L24.7154485,52.2925331 L27.843999,55.2287281 Z M28.3370803,55.6944693 L29.5053811,57.1929413 L25.9330574,54.3772315 L28.3370803,55.6944693 Z M28.7738095,55.9769516 L32.4900324,58.3896938 L30.0578334,57.6242582 L28.7738095,55.9769516 Z M35.5914131,58.1254363 L38.4794607,59.6441578 L33.4590881,58.648889 L35.5914131,58.1254363 Z M39.0580766,57.5473096 L42.2902748,59.2391654 L39.1234853,59.7454059 L39.0580766,57.5473096 Z M47.6397037,57.4683361 L46.3315289,58.6083897 L43.3780725,59.0690686 L47.6397037,57.4683361 Z M50.0648587,55.7612931 L50.1745441,56.4700298 L48.4779419,56.9975324 L50.0648587,55.7612931 Z M54.4673703,51.1889288 L52.7264914,54.3134452 L50.505613,55.3411135 L54.4673703,51.1889288 Z M54.9544138,50.6685136 L56.1227146,48.4967418 L54.8739108,51.4764734 L54.9544138,50.6685136 Z M57.4238455,43.976014 L57.8645998,43.3624505 L57.1601979,45.7093815 L57.4238455,43.976014 Z M57.8484992,39.3469508 L57.8424614,39.3013892 L57.8867381,38.7202251 L57.9310148,40.2257843 L57.8484992,39.3469508 Z M57.7307634,38.4914043 L57.2900091,35.2737397 L57.8364237,37.0962055 L57.7307634,38.4914043 Z M56.4225886,33.4735484 L55.6175579,31.6358954 L56.7446008,33.7772927 L56.4225886,33.4735484 Z M53.9934085,29.6787696 L52.3833471,27.2781771 L54.4361753,29.4550112 L53.9934085,29.6787696 Z M48.617816,24.4979042 L48.7254889,24.4199431 L49.9591984,25.307889 L48.617816,24.4979042 Z M48.4547973,24.4037434 L47.6185717,23.9693891 L48.5483821,24.3369197 L48.4547973,24.4037434 Z M41.3946781,22.5640654 L42.9624754,22.2400715 L45.3212153,23.0844807 L41.3946781,22.5640654 Z M40.8834837,22.4952167 L38.749146,21.9667016 L42.3275075,22.1955223 L40.8834837,22.4952167 Z M36.840217,22.5347035 L35.175816,22.3838438 L37.5053736,21.9606267 L36.840217,22.5347035 Z M30.9665118,24.0311504 L31.9184606,23.3133014 L33.4540567,22.8374353 L30.9665118,24.0311504 Z M30.1846258,24.4057684 L29.358463,24.8188607 L30.6283989,24.0716497 L30.1846258,24.4057684 Z M26.7189686,26.7972486 L25.7388438,27.7388559 L26.8588427,26.4813545 L26.7189686,26.7972486 Z M22.1282811,33.4421615 L21.6925583,33.6041585 L23.3861416,30.8370478 L22.1282811,33.4421615 Z M21.5607345,33.8360166 L22.0306712,33.6608574 L20.8422446,36.377344 L21.5607345,33.8360166 Z M20.3904211,40.885922 L20.414572,42.3975561 L20.3280312,42.672951 L20.3904211,40.885922 Z M20.4719305,42.7843239 L20.9006093,45.5635843 L20.309918,43.2956268 L20.4719305,42.7843239 Z M22.7089095,48.5331911 L23.2593492,51.0137696 L21.5013635,47.5338723 L22.7089095,48.5331911 Z M24.4749456,52.0768747 L24.8573352,53.3708254 L23.719223,51.8267919 L24.4749456,52.0768747 Z M33.0122961,58.7359623 L33.1712896,58.99212 L31.5008509,58.2611087 L33.0122961,58.7359623 Z M33.4409749,59.1004555 L33.2397172,58.7865864 L36.8734245,59.5064604 L33.4409749,59.1004555 Z M42.3426018,59.4041998 L41.9602122,59.8395666 L39.9657487,59.7838802 L42.3426018,59.4041998 Z M42.6072556,59.3626881 L44.985115,58.9911075 L42.2540484,59.764643 L42.6072556,59.3626881 Z M48.1015901,57.2962143 L49.4963058,56.8628724 L47.0409621,58.2266844 L48.1015901,57.2962143 Z M50.3355503,56.3657443 L50.2258648,55.6570075 L52.2635988,54.7143877 L50.3355503,56.3657443 Z M54.749131,51.0421191 L54.6535336,51.9989136 L53.3131575,53.607746 L54.749131,51.0421191 Z M56.9559214,46.9618206 L57.300072,46.7947612 L55.7232182,49.9111778 L56.9559214,46.9618206 Z M57.4137826,46.5487283 L57.0273679,46.7370498 L57.8042225,44.165348 L57.4137826,46.5487283 Z" id="Shape" fill="url(#radialGradient-1)"></path>
            <path d="M58.1845995,42.9058216 L58.1845995,42.8977217 L58.0095053,37.0921556 L58.0095053,37.071906 L57.1420847,34.1751978 L57.1420847,34.1691229 L54.6605776,29.4570362 L51.8007061,26.4155432 L51.7946684,26.4155432 L48.781841,24.2518713 L48.7697656,24.2518713 L46.1534158,23.2191407 L46.1353026,23.2191407 L42.9956829,22.0952867 L42.9745509,22.0952867 L37.8052475,21.7642054 L37.7831092,21.7642054 L34.5227349,22.3565068 L34.5106594,22.3565068 L31.8530519,23.1786414 L31.835945,23.1786414 L27.1164525,25.9406896 L24.1680276,29.2504901 L21.4510491,33.6942693 L21.4510491,33.7054066 L20.3803582,37.4880357 L20.3803582,37.5022104 L20.1791006,43.2419653 L20.1791006,43.2693023 L21.1984707,47.179504 L21.1984707,47.1926662 L23.4475252,51.6475827 L23.4475252,51.6546701 L25.003247,53.8598537 L25.003247,53.8649161 L27.1969556,55.8898782 L27.2029933,55.8898782 L29.9431166,57.7548682 L29.9491543,57.7548682 L33.3282706,59.2330905 L33.3494027,59.2330905 L39.003737,59.9003155 L39.0117873,59.9003155 L41.9642374,59.9833389 L41.987382,59.9833389 L46.3566861,58.7440622 L46.3717804,58.7440622 L50.2761792,56.5874776 L50.2832233,56.5824152 L50.2882547,56.5824152 L52.8039756,54.4258306 L54.7521499,52.085987 L54.7591939,52.0758622 L57.5144114,46.6489639 L57.5144114,46.6277018 L58.1181845,42.9169589 L58.1181845,42.9078466 L58.1845995,42.9058216 Z M27.3247542,55.7704054 L26.7562013,55.2459403 L28.0341875,56.2533589 L27.3247542,55.7704054 Z M35.6185829,57.9502771 L33.6211005,57.0106947 L38.3506558,57.4389741 L35.6185829,57.9502771 Z M36.3461294,40.8393478 L31.103367,41.3941874 L34.3365716,35.9267899 L36.3461294,40.8393478 Z M34.5166972,35.9156526 L40.9227289,39.1444546 L36.5161922,40.7988486 L34.5166972,35.9156526 Z M36.3944313,41.0064072 L37.004242,45.8663161 L31.1677695,41.5561844 L36.3944313,41.0064072 Z M36.9277641,46.0262881 L30.5881474,48.0330255 L31.0138074,41.6543951 L36.9277641,46.0262881 Z M36.5755632,41.0874057 L41.4872567,44.3688567 L37.1843676,45.9402272 L36.5755632,41.0874057 Z M36.6540537,40.9335086 L41.0615967,39.2750647 L41.5717849,44.220022 L36.6540537,40.9335086 Z M43.4253681,35.2221031 L47.5098925,33.2821895 L47.0490125,37.8980905 L43.4253681,35.2221031 Z M46.9091384,38.0074384 L41.2940493,39.0401691 L43.2885128,35.3314511 L46.9091384,38.0074384 Z M41.1340495,38.9763828 L37.4812227,32.218072 L43.1476325,35.2413403 L41.1340495,38.9763828 Z M40.9327918,38.9571456 L34.4844959,35.7070815 L37.2558141,32.163398 L40.9327918,38.9571456 Z M30.9755684,41.2777521 L30.1534308,38.1208363 L34.1212258,35.9602018 L30.9755684,41.2777521 Z M30.4321727,47.8771034 L27.2965782,42.7023129 L30.8487761,41.6159208 L30.4321727,47.8771034 Z M36.8311604,46.2378966 L33.6432389,49.6641324 L30.7250026,48.1717354 L36.8311604,46.2378966 Z M41.5516591,44.5298411 L40.4145533,48.6506389 L37.279965,46.087037 L41.5516591,44.5298411 Z M41.2437349,39.3499883 L45.9833531,43.1113552 L41.756942,44.2827958 L41.2437349,39.3499883 Z M41.338326,39.2062159 L47.0147987,38.1633605 L46.1091391,42.9939074 L41.338326,39.2062159 Z M47.2200815,37.9355523 L47.6749238,33.3702754 L50.2973113,36.9544582 L47.2200815,37.9355523 Z M50.3546697,37.1154426 L50.4995753,42.3428821 L47.2633519,38.1015992 L50.3546697,37.1154426 Z M43.351909,35.0692185 L43.4605882,31.1893912 L47.4163077,33.1384172 L43.351909,35.0692185 Z M43.18084,35.0692185 L37.5355623,32.056075 L43.2905254,31.1569918 L43.18084,35.0692185 Z M34.3899048,35.5521719 L33.3322958,31.6784196 L37.1068834,32.083412 L34.3899048,35.5521719 Z M34.2520433,35.6969567 L30.2460094,37.8748034 L33.1924217,31.8191544 L34.2520433,35.6969567 Z M30.8397195,41.4397491 L27.3629932,42.5028541 L30.0206008,38.2899206 L30.8397195,41.4397491 Z M30.2107893,47.8416666 L25.8676487,44.7475246 L27.1627418,42.8126733 L30.2107893,47.8416666 Z M30.5609776,48.2810833 L33.4792139,49.7734803 L29.8907896,51.768068 L30.5609776,48.2810833 Z M37.122984,46.1751228 L40.256566,48.7427747 L33.8887732,49.6540076 L37.122984,46.1751228 Z M41.7217219,44.5551532 L46.3506483,49.0546188 L40.5755594,48.7215126 L41.7217219,44.5551532 Z M41.844489,44.4356804 L46.0890134,43.2612024 L46.4703966,48.937171 L41.844489,44.4356804 Z M47.1697671,38.2595462 L50.4331602,42.5372785 L46.2731641,43.043519 L47.1697671,38.2595462 Z M50.5257388,37.1458171 L53.27995,38.7161751 L50.6636003,42.3499695 L50.5257388,37.1458171 Z M50.5549211,36.9655955 L52.2656113,34.1397609 L53.27995,38.5177289 L50.5549211,36.9655955 Z M50.4291351,36.8420728 L47.804735,33.255865 L52.1589448,33.9797889 L50.4291351,36.8420728 Z M43.5290158,31.0284068 L46.611277,28.2207969 L47.4958045,32.9845201 L43.5290158,31.0284068 Z M37.4288957,31.8930655 L39.3851203,28.4010185 L43.1526639,30.9990448 L37.4288957,31.8930655 Z M33.3453775,31.5042728 L35.5592119,26.9683579 L37.1431098,31.9092652 L33.3453775,31.5042728 Z M30.0447517,37.8980905 L27.3579618,33.3844501 L33.0525476,31.7138564 L30.0447517,37.8980905 Z M27.2009808,42.4370429 L25.9008562,37.177204 L29.9159468,38.1339985 L27.2009808,42.4370429 Z M25.7690324,44.5855276 L24.577587,41.6088334 L27.0379621,42.6921881 L25.7690324,44.5855276 Z M30.4029903,48.18996 L29.7328023,51.686057 L26.0095353,45.0603812 L30.4029903,48.18996 Z M33.6080188,49.8959905 L34.6273889,53.3607006 L29.986387,51.9088028 L33.6080188,49.8959905 Z M40.3501508,48.9007217 L39.338831,53.4042373 L33.8958173,49.8220794 L40.3501508,48.9007217 Z M46.3617175,49.2257281 L43.7453678,51.6101209 L40.7013455,48.8986967 L46.3617175,49.2257281 Z M46.2671264,43.3725753 L50.2922799,47.4690735 L46.642472,49.0262694 L46.2671264,43.3725753 Z M46.349642,43.2126033 L50.5025941,42.7063628 L50.3617138,47.2969518 L46.349642,43.2126033 Z M53.3735348,38.8801971 L55.031898,44.5004792 L50.7209587,42.5706904 L53.3735348,38.8801971 Z M52.4326552,34.1296361 L55.1385646,36.1940849 L53.4469939,38.4883669 L52.4326552,34.1296361 Z M47.7755527,33.0796933 L50.2912736,30.1850101 L52.145863,33.8056422 L47.7755527,33.0796933 Z M47.6618421,32.9490832 L46.7833523,28.2177594 L50.170519,30.0574375 L47.6618421,32.9490832 Z M43.3700222,30.9443708 L39.6185792,28.3584943 L46.4371891,28.1499232 L43.3700222,30.9443708 Z M37.2890216,31.7948549 L35.7161929,26.8883719 L39.2331707,28.3230575 L37.2890216,31.7948549 Z M33.1994657,31.4121371 L31.3790901,28.9275086 L35.3911618,26.9278586 L33.1994657,31.4121371 Z M33.0736797,31.5295849 L27.494817,33.1657542 L31.2422348,29.0317942 L33.0736797,31.5295849 Z M29.8746889,37.947702 L25.8998499,37.0000198 L27.2442512,33.5282224 L29.8746889,37.947702 Z M27.0409809,42.5038666 L24.52526,41.3951999 L25.7760764,37.3786877 L27.0409809,42.5038666 Z M25.6382149,44.7181626 L23.4736887,45.5149852 L24.4387192,41.7181814 L25.6382149,44.7181626 Z M29.5315446,51.6820071 L24.7697881,48.7124002 L25.7760764,44.992545 L29.5315446,51.6820071 Z M34.3808482,53.4639737 L29.8756952,54.1828352 L29.8565758,52.0485252 L34.3808482,53.4639737 Z M33.8072639,49.9699017 L39.1043658,53.4548613 L34.8185837,53.4062622 L33.8072639,49.9699017 Z M40.5121632,48.9574206 L43.5863742,51.6971943 L39.5149315,53.3981624 L40.5121632,48.9574206 Z M46.537818,49.3036892 L48.1629737,53.8355542 L43.9003362,51.7093441 L46.537818,49.3036892 Z M46.6827235,49.2024411 L50.3053616,47.6553701 L48.3068729,53.7454434 L46.6827235,49.2024411 Z M50.6776883,42.7387622 L54.9876214,44.668551 L50.5408331,47.3475758 L50.6776883,42.7387622 Z M53.562717,38.9055091 L56.3803245,40.9233838 L55.1727784,44.3789815 L53.562717,38.9055091 Z M53.5315221,38.671626 L55.2251054,36.375319 L56.3410792,40.6844382 L53.5315221,38.671626 Z M52.400454,33.8886656 L53.1793212,31.4333992 L55.0520238,35.9166651 L52.400454,33.8886656 Z M52.2827182,33.6973067 L50.4854872,30.1981723 L53.0656106,31.2359654 L52.2827182,33.6973067 Z M46.9725345,28.1286611 L50.7249838,27.8816157 L50.2520283,29.9065778 L46.9725345,28.1286611 Z M39.5431075,28.1944724 L42.1846145,24.8968217 L46.4190759,27.9838763 L39.5431075,28.1944724 Z M39.3871329,28.1154989 L38.026631,24.5303036 L42.00147,24.8522725 L39.3871329,28.1154989 Z M39.2100261,28.1316986 L35.7353124,26.7142251 L37.8656248,24.588015 L39.2100261,28.1316986 Z M31.403241,28.7320998 L32.8975792,24.3946311 L35.4344322,26.7233375 L31.403241,28.7320998 Z M27.3951944,33.0321067 L28.4890299,28.5255537 L31.0862601,28.959908 L27.3951944,33.0321067 Z M25.771045,36.8795346 L24.368279,34.6632136 L27.0792199,33.4988604 L25.771045,36.8795346 Z M25.6965797,37.0820308 L24.4970839,40.9294586 L24.3360778,34.9294961 L25.6965797,37.0820308 Z M24.3149457,41.5369473 L23.3368334,45.3843751 L21.8022437,41.5369473 L24.3149457,41.5369473 Z M21.7629984,41.3688754 L21.8445078,37.5933337 L24.2686565,41.365838 L21.7629984,41.3688754 Z M25.6291583,44.912559 L24.6520523,48.4937043 L23.4646321,45.7022942 L25.6291583,44.912559 Z M29.529532,51.8865282 L26.5780883,52.3067079 L24.891549,48.99387 L29.529532,51.8865282 Z M29.6905382,52.0363754 L29.7096577,54.140311 L26.7914214,52.4504802 L29.6905382,52.0363754 Z M34.6122946,53.607746 L33.1139312,56.7484621 L30.000475,54.3367323 L34.6122946,53.607746 Z M34.7873887,53.6391329 L38.7300266,57.3022892 L33.2749373,56.8081985 L34.7873887,53.6391329 Z M34.9805961,53.5854714 L39.3076361,53.635083 L38.913171,57.2364779 L34.9805961,53.5854714 Z M43.6698961,51.8642537 L43.8349274,55.9324024 L39.5944283,53.5561094 L43.6698961,51.8642537 Z M43.8419714,51.8794409 L48.118697,54.0157758 L44.0070027,55.9496146 L43.8419714,51.8794409 Z M50.4754243,47.710044 L52.5986928,51.0512314 L48.4729105,53.8092297 L50.4754243,47.710044 Z M50.6233487,47.6229707 L54.7108921,48.2304593 L52.7154222,50.913534 L50.6233487,47.6229707 Z M50.6988204,47.4609737 L55.0721496,44.828523 L54.78737,48.0684623 L50.6988204,47.4609737 Z M56.4749156,41.1835914 L57.2467387,43.9021029 L55.3096336,44.5318661 L56.4749156,41.1835914 Z M55.4424637,36.5464283 L57.6562981,39.3530257 L56.5191922,40.7036754 L55.4424637,36.5464283 Z M53.3695097,31.4344116 L56.2464881,33.5545469 L55.2573066,35.9510895 L53.3695097,31.4344116 Z M50.4049841,29.9774515 L50.8688831,27.9879263 L52.9398245,30.9970198 L50.4049841,29.9774515 Z M46.7390756,27.9666642 L46.2359315,24.9292211 L50.5629714,27.7175938 L46.7390756,27.9666642 Z M46.5488871,27.865416 L42.4231048,24.8593599 L46.045743,24.8360728 L46.5488871,27.865416 Z M38.1614736,24.3642567 L40.853295,22.7017629 L42.0095203,24.6761008 L38.1614736,24.3642567 Z M35.5763188,26.6241143 L33.0837425,24.3359072 L37.6935495,24.510054 L35.5763188,26.6241143 Z M31.1919204,28.799936 L28.6037467,28.3665942 L32.6600951,24.5394159 L31.1919204,28.799936 Z M27.1768298,33.1809414 L24.5282789,31.0172695 L28.2867659,28.6095896 L27.1768298,33.1809414 Z M27.0641255,33.310539 L24.3280275,34.485017 L24.4608576,31.1833163 L27.0641255,33.310539 Z M24.3270212,41.1390422 L21.8686587,37.3128764 L24.1569585,34.830273 L24.3270212,41.1390422 Z M23.2613618,45.6587575 L22.7954503,47.9996136 L21.8746965,42.1869601 L23.2613618,45.6587575 Z M23.3801038,45.9382022 L24.532304,48.644564 L22.8900414,48.4137183 L23.3801038,45.9382022 Z M26.3687803,52.2753209 L24.6319266,51.9361398 L24.7426183,49.0789184 L26.3687803,52.2753209 Z M29.6502866,54.300283 L28.4165771,55.4939981 L26.7592202,52.6276643 L29.6502866,54.300283 Z M29.7972047,54.3954562 L32.760724,56.6948006 L28.5655078,55.5911963 L29.7972047,54.3954562 Z M39.4656233,53.6806446 L43.6920345,56.0417503 L39.063108,57.2921644 L39.4656233,53.6806446 Z M48.2132881,54.1453734 L47.9818418,57.1149802 L44.1670026,56.0488377 L48.2132881,54.1453734 Z M52.4578124,51.3357386 L50.1091354,55.4798234 L48.4497659,54.0157758 L52.4578124,51.3357386 Z M54.7722756,48.4096684 L54.7843511,50.5763778 L52.9056107,50.9378335 L54.7722756,48.4096684 Z M55.2432186,44.7191751 L57.1551665,44.0975118 L54.9775585,47.7849676 L55.2432186,44.7191751 Z M56.5685004,40.9081965 L57.6532792,39.6213332 L57.3051035,43.4819233 L56.5685004,40.9081965 Z M55.3518977,36.1637105 L56.3259849,33.8036172 L57.5878705,38.9966324 L55.3518977,36.1637105 Z M53.27995,31.1620542 L53.9642261,29.9602393 L56.026111,33.1860038 L53.27995,31.1620542 Z M53.161208,31.0253693 L51.1365558,28.0891744 L53.8454841,29.8265918 L53.161208,31.0253693 Z M46.3697678,24.8097483 L48.4185709,24.59004 L50.4915249,27.4664985 L46.3697678,24.8097483 Z M42.2087654,24.6882506 L41.0807162,22.7594743 L45.693542,24.6669885 L42.2087654,24.6882506 Z M37.9199644,24.3095827 L37.0143049,22.7078377 L40.5745531,22.6713884 L37.9199644,24.3095827 Z M37.7388325,24.3369197 L33.2548116,24.1678354 L36.8281415,22.7311248 L37.7388325,24.3369197 Z M28.6822372,28.0587999 L30.2922986,24.560678 L32.6208499,24.3470445 L28.6822372,28.0587999 Z M28.3934325,28.2774958 L26.926264,26.8600224 L30.0236196,24.7277374 L28.3934325,28.2774958 Z M28.283747,28.4091184 L24.6339391,30.746937 L26.814566,26.98557 L28.283747,28.4091184 Z M24.1579648,34.4769171 L22.3265199,33.4856982 L24.2887822,31.2471027 L24.1579648,34.4769171 Z M24.1006063,34.6399265 L21.8746965,37.0526688 L22.2611112,33.6456702 L24.1006063,34.6399265 Z M21.5818665,41.4063372 L20.6409869,42.1798727 L21.6543193,38.0742622 L21.5818665,41.4063372 Z M21.6050112,41.6088334 L22.5650103,47.6695448 L20.5977165,42.4390678 L21.6050112,41.6088334 Z M24.577587,48.8268106 L24.4679016,51.6749197 L22.9343181,48.5949524 L24.577587,48.8268106 Z M26.4663903,52.4717423 L28.032175,55.1760791 L24.8180899,52.1548357 L26.4663903,52.4717423 Z M33.0535539,56.9469084 L32.9861326,58.5111915 L28.8885264,55.8514039 L33.0535539,56.9469084 Z M33.221604,57.0137321 L35.3488976,58.0140634 L33.155189,58.5537157 L33.221604,57.0137321 Z M38.8860012,57.5118728 L38.9524163,59.7059191 L35.8621047,58.0788621 L38.8860012,57.5118728 Z M43.7715313,56.1956475 L42.517696,59.1652543 L39.2029821,57.4308743 L43.7715313,56.1956475 Z M43.9727889,56.1693229 L47.7856155,57.234453 L42.7219725,59.1348799 L43.9727889,56.1693229 Z M48.3843571,54.1797977 L49.9994499,55.5972712 L48.1589485,57.0390441 L48.3843571,54.1797977 Z M52.7677492,51.1372923 L54.6293827,50.778874 L50.5478771,55.047494 L52.7677492,51.1372923 Z M54.9604516,50.3090828 L54.9473698,48.1960349 L56.6651041,47.1400172 L54.9604516,50.3090828 Z M55.1113948,47.8943156 L57.1944117,44.3729066 L56.8110159,46.8524726 L55.1113948,47.8943156 Z M57.7700087,40.2804583 L58.0135305,42.8724097 L57.4620844,43.6388578 L57.7700087,40.2804583 Z M56.5000728,33.7894425 L56.9760472,34.2389841 L57.4530279,37.711794 L56.5000728,33.7894425 Z M54.0849807,29.8286167 L54.532779,29.601821 L55.8288784,32.5572531 L54.0849807,29.8286167 Z M50.9483799,27.7591055 L51.7352974,26.6261393 L53.6613333,29.5005729 L50.9483799,27.7591055 Z M50.8256127,27.6355829 L48.774797,24.7884862 L51.6145428,26.5005916 L50.8256127,27.6355829 Z M46.2057428,24.6548387 L46.1926611,23.4175869 L48.1690114,24.4442427 L46.2057428,24.6548387 Z M46.0346738,24.6214269 L41.5174453,22.7544119 L46.021592,23.3507632 L46.0346738,24.6214269 Z M37.0998394,22.5347035 L37.8193356,21.9140526 L40.2032327,22.5043291 L37.0998394,22.5347035 Z M33.1753148,24.0169757 L34.5730493,22.4982542 L36.5071356,22.6734134 L33.1753148,24.0169757 Z M32.8140573,24.1566981 L30.7008517,24.3500819 L34.177578,22.6835382 L32.8140573,24.1566981 Z M26.9916728,26.6048772 L27.2251317,26.0773746 L29.1682745,25.1064053 L26.9916728,26.6048772 Z M24.4407318,30.7378247 L24.2988451,29.3578131 L26.4120507,27.332851 L24.4407318,30.7378247 Z M24.2938137,30.9808201 L22.5408594,32.9804702 L24.1559522,29.6392828 L24.2938137,30.9808201 Z M21.6824954,37.229853 L20.5635027,37.4394366 L22.0417403,34.0628124 L21.6824954,37.229853 Z M21.6452627,37.4120996 L20.5755782,41.7505807 L20.5071506,37.6247206 L21.6452627,37.4120996 Z M22.5881549,48.2142596 L21.3162064,47.1612793 L20.7063957,43.2126033 L22.5881549,48.2142596 Z M24.3712979,51.8591912 L23.5592232,51.5908838 L23.0158275,49.1416922 L24.3712979,51.8591912 Z M27.843999,55.2287281 L25.1491588,53.7586056 L24.7154485,52.2925331 L27.843999,55.2287281 Z M28.3370803,55.6944693 L29.5053811,57.1929413 L25.9330574,54.3772315 L28.3370803,55.6944693 Z M28.7738095,55.9769516 L32.4900324,58.3896938 L30.0578334,57.6242582 L28.7738095,55.9769516 Z M35.5914131,58.1254363 L38.4794607,59.6441578 L33.4590881,58.648889 L35.5914131,58.1254363 Z M39.0580766,57.5473096 L42.2902748,59.2391654 L39.1234853,59.7454059 L39.0580766,57.5473096 Z M47.6397037,57.4683361 L46.3315289,58.6083897 L43.3780725,59.0690686 L47.6397037,57.4683361 Z M50.0648587,55.7612931 L50.1745441,56.4700298 L48.4779419,56.9975324 L50.0648587,55.7612931 Z M54.4673703,51.1889288 L52.7264914,54.3134452 L50.505613,55.3411135 L54.4673703,51.1889288 Z M54.9544138,50.6685136 L56.1227146,48.4967418 L54.8739108,51.4764734 L54.9544138,50.6685136 Z M57.4238455,43.976014 L57.8645998,43.3624505 L57.1601979,45.7093815 L57.4238455,43.976014 Z M57.8484992,39.3469508 L57.8424614,39.3013892 L57.8867381,38.7202251 L57.9310148,40.2257843 L57.8484992,39.3469508 Z M57.7307634,38.4914043 L57.2900091,35.2737397 L57.8364237,37.0962055 L57.7307634,38.4914043 Z M56.4225886,33.4735484 L55.6175579,31.6358954 L56.7446008,33.7772927 L56.4225886,33.4735484 Z M53.9934085,29.6787696 L52.3833471,27.2781771 L54.4361753,29.4550112 L53.9934085,29.6787696 Z M48.617816,24.4979042 L48.7254889,24.4199431 L49.9591984,25.307889 L48.617816,24.4979042 Z M48.4547973,24.4037434 L47.6185717,23.9693891 L48.5483821,24.3369197 L48.4547973,24.4037434 Z M41.3946781,22.5640654 L42.9624754,22.2400715 L45.3212153,23.0844807 L41.3946781,22.5640654 Z M40.8834837,22.4952167 L38.749146,21.9667016 L42.3275075,22.1955223 L40.8834837,22.4952167 Z M36.840217,22.5347035 L35.175816,22.3838438 L37.5053736,21.9606267 L36.840217,22.5347035 Z M30.9665118,24.0311504 L31.9184606,23.3133014 L33.4540567,22.8374353 L30.9665118,24.0311504 Z M30.1846258,24.4057684 L29.358463,24.8188607 L30.6283989,24.0716497 L30.1846258,24.4057684 Z M26.7189686,26.7972486 L25.7388438,27.7388559 L26.8588427,26.4813545 L26.7189686,26.7972486 Z M22.1282811,33.4421615 L21.6925583,33.6041585 L23.3861416,30.8370478 L22.1282811,33.4421615 Z M21.5607345,33.8360166 L22.0306712,33.6608574 L20.8422446,36.377344 L21.5607345,33.8360166 Z M20.3904211,40.885922 L20.414572,42.3975561 L20.3280312,42.672951 L20.3904211,40.885922 Z M20.4719305,42.7843239 L20.9006093,45.5635843 L20.309918,43.2956268 L20.4719305,42.7843239 Z M22.7089095,48.5331911 L23.2593492,51.0137696 L21.5013635,47.5338723 L22.7089095,48.5331911 Z M24.4749456,52.0768747 L24.8573352,53.3708254 L23.719223,51.8267919 L24.4749456,52.0768747 Z M33.0122961,58.7359623 L33.1712896,58.99212 L31.5008509,58.2611087 L33.0122961,58.7359623 Z M33.4409749,59.1004555 L33.2397172,58.7865864 L36.8734245,59.5064604 L33.4409749,59.1004555 Z M42.3426018,59.4041998 L41.9602122,59.8395666 L39.9657487,59.7838802 L42.3426018,59.4041998 Z M42.6072556,59.3626881 L44.985115,58.9911075 L42.2540484,59.764643 L42.6072556,59.3626881 Z M48.1015901,57.2962143 L49.4963058,56.8628724 L47.0409621,58.2266844 L48.1015901,57.2962143 Z M50.3355503,56.3657443 L50.2258648,55.6570075 L52.2635988,54.7143877 L50.3355503,56.3657443 Z M54.749131,51.0421191 L54.6535336,51.9989136 L53.3131575,53.607746 L54.749131,51.0421191 Z M56.9559214,46.9618206 L57.300072,46.7947612 L55.7232182,49.9111778 L56.9559214,46.9618206 Z M57.4137826,46.5487283 L57.0273679,46.7370498 L57.8042225,44.165348 L57.4137826,46.5487283 Z" id="Shape" fill="url(#radialGradient-2)"></path>
            <path d="M75.1757785,27.1627542 C73.4791763,23.0601811 70.0437079,18.6305767 67.3428299,17.2313279 C69.2642165,20.9716075 70.5966537,24.9894198 71.2925117,29.1411421 C71.2925117,29.1320298 71.2925117,29.149242 71.2985495,29.1786039 L71.3055935,29.2201157 C74.3157035,37.874495 73.8800789,47.365186 70.0899971,55.7035817 C65.6160391,65.3545508 54.7833448,75.2444654 37.8273859,74.7635369 C19.5109251,74.2421091 3.3730786,60.5796903 0.360251234,42.6861132 C-0.188175924,39.8643286 0.360251234,38.4336929 0.635974246,36.1404234 C0.258210397,37.9212613 0.0466412653,39.7337165 0.00402515346,41.5541594 L0.00402515346,41.7566556 C0.0507904802,62.1312747 15.5686053,79.0898462 35.7457832,80.8168691 C55.9229611,82.5438921 74.0648501,68.4663519 77.5314996,48.3924562 C77.5969083,47.8862157 77.6502416,47.3850376 77.7086063,46.8787971 C78.5140724,40.197088 77.6432984,33.4188072 75.1757785,27.1627542 L75.1757785,27.1627542 Z" id="Path" fill="url(#radialGradient-3)"></path>
            <path d="M75.1757785,27.1627542 C73.4791763,23.0601811 70.0437079,18.6305767 67.3428299,17.2313279 C69.2642165,20.9716075 70.5966537,24.9894198 71.2925117,29.1411421 C71.2925117,29.1320298 71.2925117,29.149242 71.2985495,29.1786039 L71.3055935,29.2201157 C74.3157035,37.874495 73.8800789,47.365186 70.0899971,55.7035817 C65.6160391,65.3545508 54.7833448,75.2444654 37.8273859,74.7635369 C19.5109251,74.2421091 3.3730786,60.5796903 0.360251234,42.6861132 C-0.188175924,39.8643286 0.360251234,38.4336929 0.635974246,36.1404234 C0.258210397,37.9212613 0.0466412653,39.7337165 0.00402515346,41.5541594 L0.00402515346,41.7566556 C0.0507904802,62.1312747 15.5686053,79.0898462 35.7457832,80.8168691 C55.9229611,82.5438921 74.0648501,68.4663519 77.5314996,48.3924562 C77.5969083,47.8862157 77.6502416,47.3850376 77.7086063,46.8787971 C78.5140724,40.197088 77.6432984,33.4188072 75.1757785,27.1627542 L75.1757785,27.1627542 Z" id="Path" fill="url(#radialGradient-4)"></path>
            <path d="M0.360251234,42.6861132 C3.3730786,60.5796903 19.5109251,74.2421091 37.831411,74.7635369 C54.78737,75.2454778 65.6200642,65.3545508 70.0940223,55.7035817 C73.8841041,47.365186 74.3197287,37.874495 71.3096186,29.2201157 L71.3096186,29.1826539 C71.3096186,29.1532919 71.3035809,29.1360797 71.3035809,29.1451921 L71.3116312,29.2110033 C72.696284,38.3000454 68.0965399,47.1055929 60.9056032,53.0599937 L60.8834649,53.1106178 C46.8638554,64.5739279 33.4560692,60.0248507 30.7390907,58.1639106 C30.5483745,58.0711729 30.3588414,57.9759919 30.1705377,57.8783909 C22.0014888,53.955027 18.6263976,46.4738047 19.349919,40.058725 C15.3892235,40.1188634 11.7645872,37.8272253 10.1001163,34.2106346 C14.4619645,31.5262859 19.8947036,31.3075011 24.4558261,33.6325079 C29.0801005,35.7426008 34.3409619,35.9504352 39.115435,34.2116471 C39.101347,33.8927156 32.3058816,31.174204 29.6563244,28.5518782 C28.2404766,27.149592 27.568276,26.4742671 26.9735596,25.9670141 C26.6519412,25.6933608 26.3160339,25.4371761 25.9672712,25.1995535 C25.7348186,25.040594 25.4741899,24.8684722 25.1622405,24.6619261 C22.3144445,22.800986 16.6510536,22.9042591 16.4638839,22.908309 L16.4457707,22.908309 C14.8970929,20.9370084 15.0067784,14.4368803 15.0953317,13.0801557 C14.6361106,13.2645267 14.1976033,13.4973476 13.7871569,13.7747177 C12.4214424,14.754574 11.1445208,15.8540229 9.9713114,17.0602186 C8.63526064,18.4223401 7.414428,19.8941874 6.3215035,21.4604611 L6.3215035,21.466536 L6.3215035,21.4604611 C3.81116338,25.0344429 2.03022642,29.0738676 1.08175999,33.3449633 C1.0636468,33.4300117 -0.323018565,39.5251475 0.360251234,42.6861132 Z" id="Path" fill="url(#radialGradient-5)"></path>
            <path d="M52.8190699,27.2012285 C54.2432797,28.6079181 55.4628724,30.2099627 56.441708,31.9598893 C56.6447849,32.1110379 56.8405637,32.2718685 57.0283742,32.4418303 C65.8837118,40.6429265 61.2417035,52.2348217 60.8965466,53.0610062 C68.0874833,47.1066053 72.6872274,38.3010579 71.3025746,29.2120158 C66.8869813,18.1506607 59.4012021,13.6906818 53.2900129,3.97997632 C52.9743873,3.48445563 52.667754,2.98319446 52.3702653,2.47644201 C52.2167289,2.21211214 52.0733938,1.94191593 51.9405802,1.66645719 C51.6861248,1.17181208 51.4902363,0.648833329 51.3569329,0.108248903 C51.3573026,0.0567515192 51.3191936,0.0131793051 51.2683796,0.00700080119 C51.244404,-0.000115545188 51.2188961,-0.000115545188 51.1949205,0.00700080119 L51.175801,0.0171256114 L51.1466187,0.0292753836 C49.6371861,0.753199312 40.682226,15.0038697 52.8190699,27.2012285 L52.8190699,27.2012285 Z" id="Path" fill="url(#linearGradient-6)"></path>
            <path d="M37.7992098,21.8209044 L42.9685131,22.1519857 L46.1081328,23.2758396 L48.7244826,24.3085702 L51.7383162,26.4742671 L54.5770557,29.4853857 L55.5632183,31.3574631 C55.7781009,31.4933881 55.9907909,31.6327911 56.2012051,31.7756177 C56.2867396,31.8353541 56.3642238,31.8950905 56.4437206,31.9548269 C55.4644893,30.2066848 54.2449129,28.606366 52.8210825,27.2012285 C40.682226,15.0038697 49.6371861,0.753199312 51.1466187,0.0292753836 L51.1667444,0.00700080119 C41.3584518,5.77814261 38.0306561,16.4608298 37.7257508,21.8047047 L37.7257508,21.8350791 L37.7992098,21.8209044 Z" id="Path" fill="url(#linearGradient-7)"></path>
            <path d="M25.1541902,24.6619261 C25.4262524,24.8354335 25.6946553,25.0146824 25.9592209,25.1995535 C25.0687246,22.070529 25.0308402,18.7581476 25.8495355,15.6093333 C22.2485859,17.3620513 19.0482281,19.8474218 16.4508022,22.908309 C16.6430033,22.9042591 22.3063942,22.800986 25.1541902,24.6619261 L25.1541902,24.6619261 Z" id="Path" fill="url(#radialGradient-8)"></path>
            <path d="M21.5164578,45.3043891 C21.5164578,45.3043891 23.3187203,38.5541782 34.4221061,38.5541782 C35.6226081,38.5541782 39.0510325,35.1876788 39.1174476,34.2116471 C34.3429745,35.9504352 29.0821131,35.7426008 24.4578387,33.6325079 C19.8967162,31.3075011 14.4639771,31.5262859 10.1021289,34.2106346 C11.7665998,37.8272253 15.3912361,40.1188634 19.3519315,40.058725 C18.6284102,46.4738047 22.0035014,53.955027 30.1725503,57.8783909 C30.3556948,57.9664768 30.5267638,58.0626625 30.7139334,58.1466984 C25.9461392,55.6691573 22.0085328,50.9884576 21.5164578,45.3043891 L21.5164578,45.3043891 Z" id="Path" fill="url(#radialGradient-9)"></path>
            <path d="M57.0303867,32.4367679 C56.8425763,32.266806 56.6467975,32.1059755 56.4437206,31.9548269 C56.3642238,31.8950905 56.2867396,31.8353541 56.2012051,31.7756177 C53.4538831,29.8633758 50.0991046,29.0447742 46.7863712,29.4782983 C60.8311379,36.535291 57.0605754,60.835848 37.5999647,59.9185402 C35.8669605,59.8475319 34.1543354,59.5154584 32.5192148,58.9333961 C32.1326721,58.7869076 31.7501424,58.6299155 31.372046,58.4625925 C31.1526752,58.3613444 30.932298,58.2600963 30.7139334,58.1466984 L30.7411032,58.1639106 C33.4580818,60.0248507 46.8638554,64.5739279 60.8764209,53.1065679 L60.8985592,53.0559438 C61.2437161,52.2297593 65.8816992,40.6348267 57.0303867,32.4367679 L57.0303867,32.4367679 Z" id="Path" fill="url(#radialGradient-10)"></path>
            <path d="M75.1727597,27.1617417 C73.4761575,23.0581562 70.040689,18.6295642 67.339811,17.2293029 C69.2619665,20.9698812 70.5954071,24.9879896 71.2925117,29.1401297 L71.300562,29.2049284 C66.885975,18.1445858 59.3991895,13.6846069 53.2859877,3.97288895 C52.9698594,3.47802771 52.6632202,2.97709446 52.3662402,2.47036712 C52.2132051,2.20557967 52.069551,1.93541495 51.9355488,1.66038231 C51.6822569,1.16685223 51.4870591,0.645273381 51.3539141,0.106223941 C51.3542838,0.0547265571 51.3161747,0.011154343 51.2653607,0.00497583915 C51.2413183,-0.00165861305 51.2159441,-0.00165861305 51.1919017,0.00497583915 C51.1858639,0.00497583915 51.1778136,0.0140881683 51.1717759,0.0161131304 C51.1657382,0.0181380924 51.1526564,0.0272504216 51.1435998,0.0313003457 L51.1597004,0.00902576323 C41.3514077,5.78016757 38.0256247,16.4952542 37.719713,21.839129 L37.7992098,21.8249543 L42.9685131,22.1560356 L45.8776928,23.1968661 L48.7244826,24.3105952 L51.7383162,26.4762921 L54.5740368,29.4853857 C54.5740368,29.4853857 55.5501366,31.3281011 55.5632183,31.359488 C52.9397589,29.7325131 49.8380136,29.0679276 46.7833523,29.4782983 C60.8271127,36.535291 57.0575565,60.835848 37.5969459,59.9185402 C35.8640473,59.8473874 34.1514926,59.5156688 32.5161959,58.9344086 C32.1364898,58.7913113 31.7541002,58.6333643 31.3690272,58.4605675 C31.1470646,58.3608249 30.9276247,58.2554937 30.7109146,58.1446734 L30.7380844,58.1618856 C30.5472723,58.0696914 30.3577365,57.9748466 30.1695314,57.8773784 C30.3516696,57.9644518 30.5237449,58.0606375 30.7109146,58.1446734 C25.9431203,55.6681448 22.0055139,50.9864326 21.5134389,45.3023642 C21.5134389,45.3023642 23.3157014,38.5521532 34.4190872,38.5521532 C35.6195892,38.5521532 39.0480137,35.1856538 39.1144287,34.2096221 C39.1003407,33.8906906 32.3038691,31.1721791 29.6553181,28.5498532 C28.2394704,27.1485795 27.5672697,26.4722422 26.971547,25.9649892 C26.6487206,25.6909695 26.3110999,25.4350972 25.9602272,25.198541 C25.0703363,22.0690828 25.032454,18.7565402 25.8505418,15.6073083 C22.2496386,17.3605489 19.0493168,19.8462361 16.4518085,22.9072965 L16.4336953,22.9072965 C14.8860238,20.9370084 14.9957092,14.4368803 15.0832563,13.0791432 C14.624311,13.2641147 14.1858648,13.4969032 13.7750814,13.7737052 C12.4091532,14.7536615 11.1322115,15.8534665 9.95923594,17.0602186 C8.6241745,18.4202358 7.40433844,19.890067 6.31244691,21.4543862 C3.80415241,25.0306604 2.02530302,29.0717253 1.07874113,33.3439508 C1.05962165,33.4289993 1.04452732,33.5170851 1.02641413,33.6021335 C0.952955081,33.948402 0.623898786,35.7010067 0.575596944,36.0776496 C0.575596944,36.1059991 0.575596944,36.0482876 0.575596944,36.0776496 C0.274418214,37.8895014 0.0822030857,39.7179917 0,41.5531469 L0,41.7556432 C0.0283486776,62.143371 15.5504612,79.1222872 35.7405722,80.8505911 C55.9306832,82.578895 74.0804619,68.4823434 77.5314996,48.3924562 C77.5979146,47.8862157 77.6512479,47.3799752 77.7096126,46.8737347 C78.5128185,40.1930187 77.6406799,33.4162799 75.1727597,27.1617417 L75.1727597,27.1617417 Z" id="Shape" fill="url(#linearGradient-11)"></path>
            <path d="M39.1174476,34.2116471 C39.1174476,34.2116471 38.9524163,34.2804958 38.6465046,34.3857938 C37.883738,35.682782 35.1717909,38.1593106 34.1353139,38.1542482 C23.0319281,38.1056491 21.2004833,44.7819489 21.2004833,44.7819489 C21.4035074,47.0640446 22.1497418,49.2633904 23.3760787,51.1939912 C22.3390643,49.3896994 21.7045225,47.3800431 21.5164578,45.3043891 C21.5164578,45.3043891 23.3187203,38.5541782 34.4221061,38.5541782 C35.6226081,38.5541782 39.0510325,35.1876788 39.1174476,34.2116471 L39.1174476,34.2116471 Z" id="Path" fill="url(#linearGradient-12)"></path>
            <path d="M71.3096186,29.2201157 L71.3096186,29.1826539 C71.3096186,29.1532919 71.3035809,29.1360797 71.3096186,29.1451921 C71.3156564,29.1543044 71.3096186,29.1674666 71.3166626,29.2110033 C71.05437,28.5555272 70.7745197,27.9073027 70.4774181,27.2670398 C70.3767893,27.0523938 70.2761605,26.8519225 70.1705002,26.642339 C69.974274,26.2373466 69.7800603,25.8323542 69.5767901,25.4516613 C69.451004,25.2137283 69.3191802,24.987945 69.1903753,24.7570993 C69.0011931,24.4179182 68.8140235,24.0767121 68.6198098,23.7446183 C68.4769169,23.5056728 68.3299988,23.2768521 68.1850933,23.0439814 C67.9949048,22.7402371 67.8057225,22.4364928 67.6115089,22.1408484 C67.4575468,21.9069653 67.2995595,21.681182 67.1435848,21.4533738 C66.9493711,21.171904 66.7561638,20.8904343 66.557925,20.616052 C66.3949063,20.3892562 66.2288687,20.1675229 66.0628311,19.9457895 C65.8615734,19.681532 65.6673598,19.4172744 65.4671084,19.1580793 C65.2953812,18.9372941 65.1222963,18.7175816 64.9478636,18.4989541 C64.7466059,18.2468464 64.5453482,17.9927136 64.3390591,17.7446558 C64.1612815,17.5279848 63.9824976,17.3123264 63.8027074,17.0976804 C63.7020786,16.9812451 63.6084938,16.8617723 63.5098775,16.745337 L63.6346573,16.8992341 C60.2394403,12.8837344 56.5674941,9.18311628 53.2890066,3.97491392 C52.9732416,3.47948133 52.6666067,2.97821758 52.369259,2.4713796 C52.2157226,2.20704974 52.0723875,1.93685353 51.9395739,1.66139479 C51.718706,1.21932498 51.538825,0.757704136 51.4022159,0.282395638 C51.3951719,0.257083613 51.3830964,0.218609334 51.3790713,0.198359714 C51.3713826,0.168062179 51.3640028,0.137686154 51.3569329,0.107236422 C51.3573026,0.0557390382 51.3191936,0.0121668241 51.2683796,0.00598832017 C51.244404,-0.00112802621 51.2188961,-0.00112802621 51.1949205,0.00598832017 L51.175801,0.0171256114 C51.165778,0.0215910756 51.1560327,0.026662751 51.1466187,0.0323128267 C51.0606485,0.0802464969 50.9811693,0.139116778 50.9101409,0.207472043 C50.8908613,0.223779817 50.8720689,0.240661992 50.8537888,0.258096094 C50.7443518,0.361454173 50.6411889,0.471337791 50.5448582,0.587152425 L50.5337891,0.598289716 C48.1981938,3.36033794 42.2238598,15.385575 51.8510205,26.1725478 C42.8376957,15.5009978 48.5181935,3.96883903 50.9866188,0.947595668 C51.1181281,1.3545044 51.2792343,1.75111903 51.468631,2.13422342 C51.6012083,2.40980312 51.7445483,2.68000851 51.8983161,2.94420824 C52.2002026,3.463611 52.5091331,3.95668926 52.8180636,4.44673007 C58.9322717,14.158448 66.4190572,18.6214643 70.8306254,29.6787696 C70.8306254,29.6362454 70.8235813,29.6200457 70.8235813,29.6139708 C70.8235813,29.6078959 70.8235813,29.6220706 70.8286128,29.6514326 L70.8346505,29.6888944 C73.847547,38.3445941 73.4133522,47.8377385 69.6230793,56.1784353 C68.0704893,59.4910302 65.9734617,62.5162711 63.4203178,65.1267425 C66.1852829,62.4109863 68.445409,59.2197255 70.0940223,55.7035817 C73.883586,47.3650598 74.3192013,37.8745726 71.3096186,29.2201157 Z" id="Path" fill="url(#linearGradient-13)"></path>
            <path d="M51.1466187,0.0292753836 L51.1667444,0.00700080119 C42.3315326,5.2081158 38.7551838,14.3903062 37.9099015,20.0662748 C39.3245864,12.6505993 43.555411,6.08135614 49.7046074,1.75251808 C50.0620541,1.08421557 50.5530063,0.497514291 51.1466187,0.0292753836 Z" id="Path" fill="url(#linearGradient-14)"></path>
            <path d="M60.8764209,53.1065679 L60.8985592,53.0559438 C61.2437161,52.2297593 65.8816992,40.6348267 57.0303867,32.4367679 C56.8425763,32.266806 56.6467975,32.1059755 56.4437206,31.9548269 C56.3642238,31.8950905 56.2867396,31.8353541 56.2012051,31.7756177 C53.5529022,29.9404741 50.3449551,29.1066545 47.1446099,29.4215994 L47.141591,29.4215994 C47.0228144,29.4376882 46.9043824,29.4562543 46.7863712,29.4772858 C60.6721443,36.455305 57.143091,60.2891082 38.2520396,59.9347399 L38.4060017,59.9438522 C57.5566756,60.701188 61.3302569,37.0708935 48.0241059,29.6615574 C50.6392225,29.6757853 53.1991746,30.4195121 55.4193191,31.8100421 C55.5031999,31.8655492 55.5860649,31.9225952 55.6678723,31.9811514 C55.8767006,32.1233155 56.0782178,32.2760593 56.2716453,32.4387928 C65.4359134,40.2824833 61.2527727,52.0505502 60.9388107,52.8909094 L60.918685,52.9435584" id="Path" fill="url(#linearGradient-15)"></path>
            <path d="M24.5624927,34.0253506 C29.0597356,35.9116197 34.0957546,36.0362272 38.6797121,34.3746565 C34.0154922,35.9391196 28.9361785,35.6740627 24.4578387,33.6325079 C19.9634362,31.3570712 14.6291242,31.528594 10.2882922,34.0881244 L10.2369715,34.1215363 L10.2319401,34.1215363 L10.189676,34.1498857 L10.1574747,34.1721603 L10.137349,34.1863351 L10.1313112,34.1863351 L10.1172232,34.1964599 L10.1121918,34.1964599 L10.130305,34.2399965 L10.130305,34.2460714 L10.1524433,34.2966955 L10.1524433,34.3068203 L10.1856508,34.3797189 L10.1856508,34.3857938 C10.265546,34.5530624 10.351131,34.7175189 10.4422544,34.8788721 C12.2354772,38.123541 15.6606424,40.1090631 19.349919,40.0425253 C18.6455171,46.2652336 21.80325,53.4902982 29.449029,57.499723 C22.1413629,53.2624899 19.0711771,45.5726966 19.9245096,39.4562988 C14.2822507,39.3064516 11.7594858,35.9035029 11.0379771,34.4607174 C15.2390929,32.2282815 20.2281383,32.0676795 24.5624927,34.0253506 L24.5624927,34.0253506 Z" id="Path" fill="url(#linearGradient-16)"></path>
            <path d="M25.9582146,25.1782914 L25.7670198,25.065906 L25.9682775,25.1995535 L25.9582146,25.1782914 Z M25.9179631,25.0345191 C25.0737444,21.9530211 25.0518775,18.7020456 25.8545669,15.6093333 C22.4131258,17.2747906 19.3399689,19.6200113 16.8180974,22.5053415 C19.2100304,20.0913013 21.997685,18.1102268 25.0585928,16.6491513 C24.6964632,19.4735267 24.9906345,22.3439247 25.9179631,25.0345191 L25.9179631,25.0345191 Z" id="Shape" fill="url(#linearGradient-17)"></path>
            <path d="M1.30213714,46.7988111 L1.2709422,46.6864257 C0.894412221,45.3712155 0.592043785,44.0356493 0.365282676,42.6861132 C0.113780139,41.0081316 0.113780139,39.3016897 0.365282676,37.6237081 C0.169384125,38.9249583 0.0500986652,40.2367211 0.00805030691,41.5521345 L0.00805030691,41.7546307 C0.014615594,58.4608854 10.5286985,73.3329362 26.2117993,78.8195358 C12.6954582,73.5568309 3.13281138,61.2642965 1.30213714,46.7988111 Z" id="Path" fill="url(#linearGradient-18)"></path>
            <path d="M0.989181462,42.8440602 C0.305911663,39.6830945 1.69358332,33.5889713 1.71069022,33.5029104 C2.65865367,29.2303993 4.4396106,25.1895528 6.95043373,21.6143582 L6.95043373,21.6204331 L6.95043373,21.6143582 C8.04230129,20.0499915 9.26177796,18.5798492 10.5962165,17.2191781 C11.7694259,16.0129824 13.0463475,14.9135335 14.4120619,13.9336772 C14.4660957,13.898342 14.5211289,13.8645787 14.5770932,13.8324291 C14.5630052,16.8172232 14.7320616,21.8543162 16.1056453,23.5056728 L16.1237585,23.5056728 C16.3119344,23.495548 21.9954511,23.2434402 24.9026181,25.0243943 C25.2256367,25.2268905 25.4912968,25.387875 25.7287809,25.5407596 C26.0866795,25.7689055 26.4323203,26.0159593 26.7642516,26.2808833 C27.3740624,26.772949 28.0663888,27.4300492 29.5245006,28.7938611 C31.6377062,30.7692116 36.2354377,32.7334248 38.2228572,33.6689573 C36.2867584,32.6878631 31.7182092,30.591015 29.658337,28.5508657 C28.2424892,27.1485795 27.5702886,26.4732546 26.9755722,25.9660017 C26.6539538,25.6923483 26.3180465,25.4361636 25.9692838,25.198541 C25.7368312,25.0395815 25.4762025,24.8674598 25.1642531,24.6609136 C22.316457,22.7999735 16.6530661,22.9032466 16.4658965,22.9072965 L16.4477833,22.9072965 C15.0329419,21.1060928 15.0027532,15.5232724 15.075206,13.5398221 C15.075206,13.4628735 15.075206,13.3930124 15.0832563,13.3272011 L15.0832563,13.198616 C15.0832563,13.1560918 15.0832563,13.1145801 15.0903003,13.0791432 C15.0903003,13.0791432 15.0832563,13.0720559 15.0741997,13.0720559 L15.0389796,13.0720559 L15.0168413,13.0801557 L14.98464,13.0923055 L14.9534451,13.1054677 L14.9162124,13.1226799 L14.8759609,13.1419171 L14.8357093,13.1621667 L14.7864012,13.1864662 L14.747156,13.2077283 L14.6887912,13.2381028 L14.6555837,13.2563274 C14.3614813,13.4175006 14.0715733,13.5863039 13.7861506,13.7625679 C12.4204361,14.7424242 11.1435145,15.8418731 9.97030511,17.0480688 C8.63407459,18.4140984 7.41356568,19.8900252 6.3215035,21.4604611 L6.3215035,21.466536 L6.3215035,21.4604611 C3.81116338,25.0344429 2.03022642,29.0738676 1.08175999,33.3449633 C1.0636468,33.4300117 -0.327043718,39.5210975 0.360251234,42.6861132 C2.92427399,57.9097778 14.9947029,70.0747373 29.8253808,73.6822071 C15.2835077,69.8884408 3.51697783,57.8561163 0.989181462,42.8440602 Z" id="Path" fill="url(#linearGradient-19)"></path>
            <path d="M75.1757785,27.1627542 C73.6798808,23.5424316 71.3273749,20.3447452 68.3229548,17.8479288 L68.2535209,17.7983173 C68.1769173,17.7441991 68.0997645,17.6908723 68.0220745,17.6383453 C67.9932276,17.6180957 67.9640452,17.5988585 67.9345274,17.5806339 C67.860733,17.5333847 67.7882802,17.4878231 67.7171692,17.4439489 L67.6326409,17.3933249 C67.5371636,17.3376357 67.4405388,17.2839625 67.3428299,17.2323404 C67.4474854,17.4388845 67.5501317,17.6464531 67.6507541,17.8550162 C67.7139576,17.9838771 67.7763488,18.1131398 67.8379238,18.2427964 C69.4995063,21.6914735 70.6627921,25.3613442 71.2925117,29.1411421 L71.300562,29.2069534 C72.6852148,38.2959955 68.0854707,47.1015429 60.8945341,53.0559438 L60.8723957,53.1065679 C51.9335362,60.4217432 43.2422236,61.2195783 37.4138014,60.3549195 C43.2210915,61.446374 52.3813345,60.9856952 61.8162942,53.2675523 L61.8374263,53.2169283 C69.0283629,47.2625274 73.6291133,38.45698 72.2444605,29.3679379 L72.2364102,29.3021266 C71.6940282,26.0060105 70.7374318,22.7926298 69.3896204,19.7392434 C71.0988679,21.5622019 72.5369916,23.6243869 73.659302,25.8617161 C76.4640608,31.8624438 77.7058365,38.4823363 77.267852,45.0988555 C77.2376634,45.6000336 77.2125062,46.1001992 77.1742672,46.5973274 C74.8345213,65.4392862 59.3822865,79.8683434 40.5332953,80.8120985 C37.9594618,80.9576314 35.3776681,80.8518389 32.8241201,80.4962044 C53.9481537,83.9118775 73.8752188,69.6025288 77.5314996,48.3924562 C77.5969083,47.8862157 77.6502416,47.3850376 77.7086063,46.8787971 C78.5140724,40.197088 77.6432984,33.4188072 75.1757785,27.1627542 L75.1757785,27.1627542 Z" id="Shape" fill="url(#linearGradient-20)"></path>
            <path d="M96,26.1259078 L116.078823,26.1259078 L116.078823,31.6283507 L101.760902,31.6283507 L101.760902,39.0841609 L116.078823,39.0841609 L116.078823,44.5410664 L101.760902,44.5410664 L101.760902,56.5344946 L96,56.5344946 L96,26.1259078 Z M125.311893,24.9717441 C125.944669,25.6201384 126.281436,26.5064968 126.240986,27.4170845 C126.242769,29.2773049 124.765784,30.7926378 122.928566,30.8155087 C121.091347,30.8383796 119.578009,29.3602723 119.534614,27.5005698 C119.50038,26.5769812 119.842017,25.6796368 120.479679,25.0182583 C121.117341,24.3568798 121.995149,23.9894257 122.907947,24.0017751 C123.807763,23.9717668 124.679118,24.3233498 125.311893,24.9717441 Z M120.068725,34.0399387 L125.747168,34.0399387 L125.747168,56.5344946 L120.068725,56.5344946 L120.068725,34.0399387 Z M142.204344,40.2890062 C141.418053,39.6596287 140.449744,39.3084058 139.447582,39.2890795 C137.143409,39.2890795 135.826872,40.7889695 135.826872,44.079051 L135.826872,56.5344946 L130.190596,56.5344946 L130.190596,34.0399387 L135.580431,34.0399387 L135.580431,37.2892261 C136.403472,35.0783932 138.559421,33.6740777 140.887807,33.832174 C142.236499,33.8284931 143.555248,34.2346592 144.673436,34.9981227 L142.204344,40.2890062 Z M144.546936,45.4119703 C144.460454,42.2918927 145.629517,39.2700881 147.78604,37.0395062 C149.942563,34.8089243 152.901532,33.5609332 155.984406,33.581718 C162.649548,33.581718 167.381584,38.3726381 167.381584,45.037235 L167.381584,47.4089776 L150.103564,47.4089776 C150.721071,50.2417871 152.901555,52.1164124 156.234595,52.1164124 C158.557181,52.1893669 160.709656,50.8882556 161.748119,48.7836397 L166.479217,51.6581918 C164.136626,55.1569865 160.801712,56.9898705 156.069676,56.9898705 C148.869486,56.9927153 144.549747,52.1192585 144.549747,45.4119703 L144.546936,45.4119703 Z M161.86806,42.8713596 C161.251489,39.9968075 158.947316,38.4124834 155.943176,38.4124834 C153.218815,38.3160079 150.807491,40.1838657 150.18696,42.8713596 L161.86806,42.8713596 Z M168.78058,34.0399387 L172.771419,34.0399387 L172.771419,32.9157326 C172.771419,26.7918931 175.322033,24.2512824 180.918016,24.2512824 L182.892353,24.2512824 L182.892353,29.2082245 L181.288146,29.2082245 C178.655073,29.2082245 178.078795,30.1246659 178.078795,32.9157326 L178.078795,34.0399387 L182.892353,34.0399387 L182.892353,39.2055942 L178.207169,39.2055942 L178.207169,56.5344946 L172.772356,56.5344946 L172.772356,39.2055942 L168.781517,39.2055942 L168.78058,34.0399387 Z M183.960575,45.287691 C183.909272,42.1594986 185.117163,39.1447841 187.306481,36.936812 C189.495799,34.7288398 192.478127,33.5176319 195.567648,33.581718 C199.72302,33.5438429 203.57885,35.7665778 205.66741,39.4038352 C207.755971,43.0410926 207.755971,47.5333407 205.66741,51.1705981 C203.57885,54.8078555 199.72302,57.0305905 195.567648,56.9927153 C192.464979,57.1052589 189.455221,55.9096543 187.255992,53.6909698 C185.056762,51.4722853 183.865145,48.4293499 183.96526,45.287691 L183.960575,45.287691 Z M201.651828,45.287691 C201.651828,41.88201 198.924911,39.1211601 195.561089,39.1211601 C192.197267,39.1211601 189.47035,41.88201 189.47035,45.287691 C189.47035,48.693372 192.197267,51.4542219 195.561089,51.4542219 C198.924911,51.4542219 201.651828,48.693372 201.651828,45.287691 Z M214.818131,45.037235 L206.795223,34.0399387 L213.460365,34.0399387 L218.1924,40.9549915 L223.047187,34.0399387 L229.588641,34.0399387 L221.442044,44.9954923 L230,56.5344946 L223.376087,56.5344946 L218.068711,49.2029638 L212.925317,56.5344946 L206.306089,56.5344946 L214.818131,45.037235 Z" id="Shape" fill="#20123A"></path>
        </g>
    </g>
</svg>