<?xml version="1.0" encoding="UTF-8"?>
<svg width="2079px" height="1054px" viewBox="0 0 2079 1054" version="1.1" xmlns="http://www.w3.org/2000/svg" xmlns:xlink="http://www.w3.org/1999/xlink">
    <title>beep-lines</title>
    <g id="Page-1" stroke="none" stroke-width="1" fill="none" fill-rule="evenodd">
        <g id="Face-Copy-6" transform="translate(-6559.000000, -255.000000)" stroke="#000000" stroke-width="6">
            <path d="M6809,979 L6708,1088 C6745.14787,1028.96195 6753.83747,1018.98934 6809,979 L6809,979 Z M6758,865 L6581,913 C6704.09907,875.607362 6644.99129,891.198112 6758,865 L6758,865 Z M8402,750 L8579,801 C8531.75766,796.723396 8485.71052,780.462624 8440.29283,763.864143 L8436.80039,762.586867 C8435.63665,762.161017 8434.47332,761.735141 8433.31038,761.309436 L8429.82274,760.03303 C8428.0795,759.395279 8426.33713,758.758354 8424.59559,758.122917 L8421.11362,756.854224 C8414.73201,754.532645 8408.36133,752.237016 8402,750 L8402,750 Z M6581,636 C6642.50742,644.835496 6716.32129,688.393389 6771,718 L6771,718 Z M8637,603 C8435.95935,637.060037 8535.65558,633.015781 8338,617.194534 L8338,617.194534 Z M7508,360 L7525,464 C7508.0372,380.47067 7511.74592,415.43173 7508,360 Z M8350.95028,351.491406 L8351.098,351.568 L8226,442 C8231.45663,436.656385 8236.66517,431.01376 8241.85992,425.354522 L8243.69317,423.356914 L8243.69317,423.356914 L8245.52757,421.360686 C8255.6241,410.390283 8265.87643,399.607667 8277.99845,391.078498 C8337.46559,349.236852 8346.2159,349.091835 8350.95028,351.491406 Z M8456.12054,275.649801 C8454.31195,277.783821 8453.00373,279.653808 8451.73831,281.512789 L8451.29273,282.168855 L8451.29273,282.168855 L8450.84623,282.82648 C8447.40814,287.880556 8443.49526,293.289963 8430.04275,304.067654 C8426.24993,307.106329 8420.8953,307.674938 8417.00952,310.593428 C8405.42457,319.294523 8420.63005,315.668767 8406.14988,321.469718 C8404.80544,322.008321 8403.01065,320.665319 8401.80582,321.469718 C8394.23515,326.524227 8391.43778,333.467565 8380.08446,341.047563 C8356.5441,356.764183 8354.88784,353.607907 8351.20481,351.62458 L8351.098,351.568 Z M8480,258.386713 L8456.121,275.648 L8456.44499,275.270417 C8459.96316,271.193321 8465.34959,266.127954 8475.65594,258.386713 C8476.81435,257.516609 8478.55198,258.386713 8480,258.386713 Z M7581.94521,1261.77968 C7514.74682,1173.7768 7509.68264,1162.51353 7517.80562,1169.14303 L7517.985,1169.293 L7626,1306 C7621.90188,1301.88648 7617.644,1297.91352 7613.36011,1293.96343 L7611.21661,1291.98975 C7600.85191,1282.45425 7590.4655,1272.93784 7581.94521,1261.77968 Z M7261,1110 C7235.04154,1215.90608 7260.38716,1153.02671 7189,1285 L7261,1110 Z M7966.67634,1190.63068 C7972.06063,1198.19203 7976.64887,1206.27917 7981.20528,1214.38734 L7982.91393,1217.4279 C7984.9091,1220.97407 7986.91646,1224.5122 7989,1228 L7952.064,1176.417 L7951.94189,1176.17331 C7946.90942,1166.14824 7944.73339,1159.8154 7966.67634,1190.63068 Z M7929.471,1144.865 L7952.064,1176.417 L7952.30593,1176.89521 C7959.18118,1190.47111 7970.23458,1209.19483 7935.06606,1153.76349 L7933.13753,1150.72256 C7932.02909,1148.97409 7931.01087,1147.35173 7930.07831,1145.84933 L7929.471,1144.865 Z M7498,1144 C7564.22695,1220.23759 7530.24622,1179.75443 7518.4076,1169.6462 L7517.985,1169.293 L7498,1144 Z M7924.022,1131.349 L7924.32249,1131.63805 C7936.91078,1144.02361 7984.67471,1208.36043 7924.95372,1132.53321 L7924.022,1131.349 Z M7873,1066 C7893.98178,1093.01961 7909.99583,1113.51562 7922.02805,1128.81567 L7924.022,1131.349 L7923.75021,1131.0883 C7920.11984,1127.69531 7920.26273,1129.84535 7928.74315,1143.68495 L7929.471,1144.865 L7873,1066 Z M7859,265 C7827.40748,335.655334 7853.22273,279.550054 7771,428 L7771,428 Z" id="beep-lines"></path>
        </g>
    </g>
</svg>