<?xml version="1.0" encoding="UTF-8"?>
<svg width="1201px" height="513px" viewBox="0 0 1201 513" version="1.1" xmlns="http://www.w3.org/2000/svg" xmlns:xlink="http://www.w3.org/1999/xlink">
    <title>beep</title>
    <g id="Page-1" stroke="none" stroke-width="1" fill="none" fill-rule="evenodd">
        <g id="Face-Copy-6" transform="translate(-6951.000000, -482.000000)" fill="#000000" fill-rule="nonzero">
            <path d="M7023.90169,993.747185 L7024.40024,993.659959 C7042.45209,990.47693 7056.75634,984.574892 7069.98905,977.044206 L7071.5113,976.168115 C7072.77613,975.432119 7074.03201,974.681454 7075.2813,973.917087 L7076.77746,972.993334 C7077.27523,972.683265 7077.7721,972.371066 7078.26822,972.056799 L7079.75448,971.107857 C7080.24926,970.789516 7080.74344,970.469169 7081.23718,970.146878 L7082.71722,969.174236 L7082.71722,969.174236 L7084.19551,968.190302 C7084.4418,968.025393 7084.68805,967.860028 7084.93429,967.694217 L7086.41167,966.694044 L7086.41167,966.694044 L7087.8896,965.683509 C7088.13601,965.514244 7088.38249,965.344563 7088.62905,965.174473 L7090.10949,964.149095 L7090.10949,964.149095 L7092.33574,962.593462 L7092.33574,962.593462 L7095.31927,960.48845 L7095.31927,960.48845 L7097.57232,958.888193 L7097.57232,958.888193 L7105.99921,952.884427 L7105.99921,952.884427 C7139.19268,927.588151 7156.37576,895.856193 7151.78408,869.815461 C7147.10135,843.258405 7128.26797,831.127546 7113.90494,823.909921 L7112.59236,823.257357 L7112.59236,823.257357 L7111.30843,822.631039 L7111.30843,822.631039 L7110.05641,822.029305 L7110.05641,822.029305 L7105.97254,820.092831 L7105.97254,820.092831 L7104.90435,819.581149 C7104.73038,819.497202 7104.55849,819.413897 7104.38873,819.331202 L7103.39647,818.842056 C7100.661,817.475265 7098.58404,816.264355 7097.4987,815.03914 L7097.16913,814.592229 C7096.68291,813.92043 7096.25156,813.238955 7096.12201,812.504263 C7095.56784,809.361417 7097.48125,804.394658 7100.45467,800.166863 L7110.56916,786.347034 L7112.24506,780.033341 L7121.56118,769.594847 C7128.43389,763.75363 7131.27984,753.530127 7130.01316,746.346477 C7123.04647,706.836403 7063.67168,681.196663 7010.81944,687.275379 L6993.97982,689.318783 L6984.53622,693.761568 L6967.85494,696.702929 L6952.54365,710.050282 L6951.8419,724.525077 L6959.01118,744.093123 L6962.62201,769.843869 L6961.81694,781.096321 L6970.42198,827.261571 L6976.19853,894.294807 L6978.92107,904.462311 L6979.69934,924.694326 L6986.80021,962.328992 L6986.82837,962.566237 L6986.82837,962.566237 L6987.02559,964.773563 L6987.02559,964.773563 L6987.15184,965.992443 L6987.15184,965.992443 L6987.3177,967.389298 L6987.3177,967.389298 L6987.43889,968.300195 L6987.43889,968.300195 L6987.52956,968.933735 L6987.52956,968.933735 L6987.62862,969.586024 L6987.62862,969.586024 L6987.79383,970.59536 L6987.79383,970.59536 L6987.85353,970.939072 C6988.06465,972.136347 6988.31996,973.393012 6988.62593,974.672738 L6988.865,975.636289 C6990.19176,980.792234 6992.35466,986.171854 6995.76617,989.45017 C7001.81246,994.537551 7008.64315,995.447398 7016.1599,994.80701 L7017.10306,994.719078 L7017.10306,994.719078 L7018.05332,994.616137 C7018.21229,994.597793 7018.37155,994.578871 7018.5311,994.559395 L7019.49194,994.436081 L7019.49194,994.436081 L7020.45978,994.30061 L7020.45978,994.30061 L7021.43457,994.154121 L7021.43457,994.154121 L7022.41627,993.997756 L7022.41627,993.997756 L7023.90169,993.747185 L7023.90169,993.747185 Z M7016.55885,816.183476 C7014.31226,816.579611 7013.17845,815.404354 7012.62972,812.292361 L7012.55372,811.851752 C7012.41122,810.990973 7012.27072,809.852134 7012.45192,808.656571 L7012.26274,783.936729 L7007.75249,753.102921 C7006.92655,743.163919 7014.07361,736.402989 7024.40793,734.580768 C7034.99551,732.713893 7045.24579,733.999619 7051.38579,736.93402 L7074.00113,747.838993 L7074.4141,752.808494 L7076.99527,756.93729 L7072.30896,761.889147 L7058.54255,775.77635 L7046.82961,793.427006 L7032.51448,804.202216 C7032.1418,804.497126 7031.75163,804.820586 7031.34688,805.166247 L7030.72917,805.700598 L7030.72917,805.700598 L7030.09177,806.26349 L7030.09177,806.26349 L7028.76657,807.455857 L7028.76657,807.455857 L7027.03803,809.022062 L7027.03803,809.022062 L7025.97554,809.973618 L7025.97554,809.973618 L7025.26119,810.603001 C7025.14188,810.707235 7025.02247,810.811072 7024.90302,810.914411 L7024.18605,811.527692 L7024.18605,811.527692 L7023.47006,812.124287 C7020.96835,814.177614 7018.52462,815.836858 7016.55885,816.183476 Z M7030.35069,936.343165 L7025.59405,927.939684 L7024.69634,925.693555 L7024.69634,925.693555 L7024.43674,925.024503 C7024.10854,924.158154 7023.85681,923.393847 7023.73827,922.721583 C7023.60656,921.974623 7023.52527,921.218774 7023.45785,920.443362 L7023.31417,918.661171 C7023.23023,917.647723 7023.12516,916.591202 7022.9276,915.470762 L7022.37442,912.33353 C7022.051,910.499328 7022.40994,908.590606 7022.99696,906.51445 L7023.21287,905.774585 L7023.21287,905.774585 L7023.68376,904.249511 L7023.68376,904.249511 L7024.05364,903.062454 C7024.09488,902.928367 7024.13609,902.793531 7024.17715,902.657925 L7024.42119,901.834921 C7025.42507,898.366052 7026.22867,894.393245 7025.3872,889.621001 L7025.22914,888.724649 L7022.08854,873.566671 C7021.44291,869.905073 7027.06774,865.992263 7034.84422,862.517762 L7035.94286,862.035861 C7037.05464,861.556944 7038.20458,861.087186 7039.38149,860.628459 L7040.56698,860.173478 C7040.76592,860.098284 7040.9655,860.023414 7041.16569,859.948876 L7042.37348,859.505708 L7042.37348,859.505708 L7043.59305,859.070934 L7043.59305,859.070934 L7044.82189,858.644972 L7044.82189,858.644972 L7046.05752,858.228237 C7046.26389,858.159574 7046.47043,858.091312 7046.67711,858.023461 L7047.91827,857.621348 L7047.91827,857.621348 L7049.16,857.229504 L7049.16,857.229504 L7050.39983,856.848344 C7050.60617,856.785731 7050.81232,856.72358 7051.01824,856.661901 L7052.25054,856.297548 L7052.25054,856.297548 L7053.4747,855.944921 L7053.4747,855.944921 L7054.68826,855.604435 L7054.68826,855.604435 L7055.88871,855.276508 L7055.88871,855.276508 L7057.07357,854.961554 L7057.07357,854.961554 L7058.24036,854.65999 L7058.24036,854.65999 L7059.38659,854.372234 L7059.38659,854.372234 L7060.50977,854.0987 L7060.50977,854.0987 L7061.60742,853.839805 L7061.60742,853.839805 L7062.67705,853.595966 L7062.67705,853.595966 L7063.71617,853.367599 L7063.71617,853.367599 L7064.72229,853.155119 C7065.05189,853.086987 7065.37558,853.021572 7065.69294,852.958944 L7066.62561,852.77949 L7066.62561,852.77949 L7067.51784,852.617172 L7067.51784,852.617172 C7084.30597,849.656971 7102.41978,862.174769 7105.02762,876.964576 C7105.04079,877.039272 7105.05301,877.126973 7105.06456,877.22629 L7105.09755,877.557696 L7105.09755,877.557696 L7105.1435,878.167245 L7105.1435,878.167245 L7105.24473,879.687958 L7105.24473,879.687958 L7105.28776,880.253663 L7105.28776,880.253663 L7105.3384,880.834874 L7105.3384,880.834874 L7105.39842,881.423256 C7105.45285,881.914245 7105.5189,882.40402 7105.60122,882.87087 L7096.45018,894.650872 L7094.00569,902.013555 L7093.59749,902.408554 L7093.59749,902.408554 L7092.91517,903.053459 L7092.91517,903.053459 L7092.15227,903.757656 L7092.15227,903.757656 L7091.31266,904.517098 L7091.31266,904.517098 L7090.71222,905.052087 L7090.71222,905.052087 L7089.75338,905.894613 L7089.75338,905.894613 L7089.07703,906.481244 L7089.07703,906.481244 L7088.00972,907.395615 L7088.00972,907.395615 L7086.8825,908.347697 L7086.8825,908.347697 L7085.69924,909.333444 L7085.69924,909.333444 L7084.88118,910.007314 L7084.88118,910.007314 L7083.61313,911.040178 L7083.61313,911.040178 L7082.29938,912.095918 L7082.29938,912.095918 L7081.40006,912.810455 L7081.40006,912.810455 L7080.48331,913.532161 L7080.48331,913.532161 L7078.60207,914.992286 L7078.60207,914.992286 L7077.15389,916.097284 L7077.15389,916.097284 L7075.6781,917.206274 L7075.6781,917.206274 L7074.17856,918.31521 L7074.17856,918.31521 L7072.65916,919.420046 L7072.65916,919.420046 L7071.6371,920.152328 L7071.6371,920.152328 L7070.60908,920.87979 L7070.60908,920.87979 L7069.57624,921.601234 L7069.57624,921.601234 L7068.53975,922.315461 L7068.53975,922.315461 L7067.50074,923.021272 L7067.50074,923.021272 L7066.46036,923.717467 C7066.28692,923.832632 7066.11346,923.947346 7065.94002,924.061585 L7064.89975,924.74111 C7064.72647,924.853347 7064.55324,924.965057 7064.38011,925.076218 L7063.34252,925.736375 L7063.34252,925.736375 L7062.30816,926.382122 L7062.30816,926.382122 L7061.27818,927.012259 C7061.10694,927.115914 7060.93594,927.21887 7060.76519,927.321099 L7059.74392,927.925574 L7059.74392,927.925574 C7057.17957,929.301959 7052.72126,930.550189 7049.09139,931.190233 L7048.17577,931.34553 L7048.17577,931.34553 L7047.58089,931.440029 L7047.58089,931.440029 L7046.43575,931.608401 L7046.43575,931.608401 L7045.62232,931.717557 L7045.62232,931.717557 L7044.36934,931.869215 L7044.36934,931.869215 L7043.26678,931.986214 L7043.26678,931.986214 L7042.17796,932.086024 L7042.17796,932.086024 L7040.84516,932.182155 L7040.84516,932.182155 L7030.35069,936.343165 Z M7381.35409,934.332349 C7382.56123,934.119498 7384.33593,933.398226 7386.23456,932.489327 L7386.95149,932.140321 L7386.95149,932.140321 L7387.67484,931.777485 C7387.79564,931.716068 7387.91649,931.654232 7388.03729,931.592055 L7389.20493,930.980147 L7389.20493,930.980147 L7390.44739,930.307582 L7390.44739,930.307582 L7391.63085,929.64909 L7391.63085,929.64909 L7393.13426,928.790122 L7393.13426,928.790122 L7394.8292,927.793236 L7394.8292,927.793236 L7395.91633,927.135789 L7395.91633,927.135789 L7399.61721,919.077073 L7405.65517,911.069152 L7399.73263,888.043467 L7387.17653,882.851295 L7378.23309,877.022113 L7363.09339,878.302999 L7350.34655,877.31042 L7347.10874,876.232834 L7347.10874,876.232834 L7345.70794,875.756361 L7345.70794,875.756361 L7344.14246,875.213697 L7344.14246,875.213697 L7341.9764,874.444028 L7341.9764,874.444028 L7340.57621,873.93437 L7340.57621,873.93437 L7339.10815,873.389409 L7339.10815,873.389409 L7337.57845,872.809627 L7337.57845,872.809627 L7335.99328,872.195508 L7335.99328,872.195508 L7334.90875,871.767256 L7334.90875,871.767256 L7333.80415,871.324101 L7333.80415,871.324101 L7332.68133,870.866184 L7332.68133,870.866184 L7331.54213,870.39365 L7331.54213,870.39365 L7330.38836,869.90664 L7330.38836,869.90664 L7329.22188,869.405297 L7329.22188,869.405297 L7328.04452,868.889766 L7328.04452,868.889766 L7326.8581,868.360188 L7326.8581,868.360188 L7325.66448,867.816706 L7325.66448,867.816706 L7324.46548,867.259464 L7324.46548,867.259464 L7323.26294,866.688604 C7323.06232,866.592334 7322.86163,866.495502 7322.66091,866.398112 L7321.4565,865.807094 C7321.2558,865.707482 7321.05515,865.607317 7320.85457,865.506603 L7319.65242,864.895748 C7319.45233,864.792847 7319.25239,864.689403 7319.05266,864.585419 L7317.85689,863.955048 C7311.69414,860.664863 7305.79385,856.860881 7301.29523,852.631813 C7300.15459,851.444286 7298.93479,849.807831 7298.69732,848.461051 C7297.82658,843.522857 7303.96706,838.737049 7315.70821,836.666767 C7321.01883,835.730363 7327.29705,835.312855 7334.1299,835.100938 L7336.09687,835.045714 C7336.4271,835.037352 7336.75849,835.029389 7337.09101,835.02179 L7339.09925,834.980304 L7339.09925,834.980304 L7341.13232,834.945947 L7341.13232,834.945947 L7346.30959,834.880588 L7346.30959,834.880588 L7353.73234,834.798577 L7353.73234,834.798577 L7356.95581,834.751597 L7356.95581,834.751597 L7359.11353,834.712272 L7359.11353,834.712272 L7361.27574,834.66465 C7371.37324,834.420524 7381.54771,833.852291 7390.82021,832.217299 C7412.04461,828.474866 7425.5077,807.122699 7421.94559,786.920995 C7412.76328,734.845494 7381.64032,708.857171 7341.90103,715.86428 L7317.45976,722.488357 L7307.40918,728.890515 L7307.40918,728.890515 L7306.5273,729.30165 L7306.5273,729.30165 L7305.40225,729.851811 L7305.40225,729.851811 L7304.4996,730.308826 L7304.4996,730.308826 L7303.67743,730.735981 L7303.67743,730.735981 L7303.00673,731.091779 L7303.00673,731.091779 L7302.04562,731.612849 L7302.04562,731.612849 L7301.0141,732.186606 L7301.0141,732.186606 L7299.91873,732.812338 L7299.91873,732.812338 L7299.05923,733.315318 L7299.05923,733.315318 L7298.17025,733.846834 L7298.17025,733.846834 L7297.56258,734.216882 L7297.56258,734.216882 L7296.63061,734.79529 L7296.63061,734.79529 L7295.99683,735.196322 L7295.99683,735.196322 L7295.02953,735.820787 L7295.02953,735.820787 L7294.04471,736.472487 L7294.04471,736.472487 L7293.37979,736.921936 L7293.37979,736.921936 L7292.37191,737.618359 L7292.37191,737.618359 L7291.69417,738.097345 L7291.69417,738.097345 L7291.01274,738.58799 L7291.01274,738.58799 L7290.32844,739.090206 L7290.32844,739.090206 L7289.64207,739.603903 L7289.64207,739.603903 L7288.95446,740.128992 L7288.95446,740.128992 L7288.26642,740.665385 L7288.26642,740.665385 L7287.57878,741.212992 L7287.57878,741.212992 L7286.89235,741.771725 L7286.89235,741.771725 L7286.20795,742.341494 C7286.0941,742.43737 7285.98037,742.533702 7285.86677,742.630489 L7285.18695,743.216646 C7285.07396,743.315243 7284.96114,743.41429 7284.84851,743.513786 C7281.02252,746.997408 7276.75571,751.950292 7272.62234,757.232374 L7271.54748,758.617027 L7271.54748,758.617027 L7270.48094,760.012118 L7270.48094,760.012118 L7269.42498,761.413148 L7269.42498,761.413148 L7268.38187,762.815621 C7268.20922,763.049236 7268.03719,763.282725 7267.86585,763.515992 L7266.84626,764.912196 C7266.67781,765.144204 7266.51013,765.375804 7266.34327,765.606903 L7265.35231,766.986716 L7265.35231,766.986716 L7264.38326,768.349982 L7264.38326,768.349982 L7262.86584,770.511655 L7262.86584,770.511655 L7261.16049,772.97922 L7261.16049,772.97922 L7259.79288,774.986703 L7259.79288,774.986703 L7258.52287,776.873643 L7258.52287,776.873643 L7256.99885,779.167266 L7256.99885,779.167266 L7255.39974,781.609944 L7255.39974,781.609944 L7253.08987,785.218675 L7253.08987,785.218675 L7252.79794,789.34851 L7252.79794,789.34851 L7252.49029,794.210053 L7252.49029,794.210053 L7252.32984,797.030429 L7252.32984,797.030429 L7252.17803,799.990111 L7252.17803,799.990111 L7252.11414,801.365941 L7252.11414,801.365941 L7252.03564,803.22484 L7252.03564,803.22484 L7251.96744,805.08845 L7251.96744,805.08845 L7251.91298,806.911094 L7251.91298,806.911094 L7251.87466,808.670653 L7251.87466,808.670653 L7251.85796,809.935616 L7251.85796,809.935616 L7251.85271,811.143319 L7251.85271,811.143319 L7251.85991,812.284432 L7251.85991,812.284432 L7251.88057,813.349621 L7251.88057,813.349621 L7251.90233,814.012959 L7251.90233,814.012959 L7251.93083,814.635642 L7251.93083,814.635642 L7251.96636,815.214904 C7251.97288,815.307675 7251.97971,815.398522 7251.98685,815.487388 L7252.0335,815.996333 C7252.06716,816.31916 7252.10601,816.608431 7252.15045,816.86046 L7255.60097,841.710684 L7255.48061,842.903003 L7255.48061,842.903003 L7255.39499,843.829841 L7255.39499,843.829841 L7255.33186,844.566211 L7255.33186,844.566211 L7255.23734,845.779417 L7255.23734,845.779417 L7255.17662,846.653319 L7255.17662,846.653319 L7255.11952,847.57343 L7255.11952,847.57343 L7255.06753,848.534719 C7255.05937,848.698086 7255.05149,848.862959 7255.04392,849.029233 L7255.00243,850.042856 C7254.99,850.385777 7254.97905,850.733464 7254.96983,851.08508 L7254.94763,852.150873 C7254.89263,855.73721 7255.03609,859.632524 7255.62957,862.998323 C7255.86081,864.309795 7256.26817,865.7186 7256.79527,867.168324 L7257.04683,867.840127 C7257.09011,867.95251 7257.13405,868.065084 7257.17861,868.177822 L7257.45337,868.856031 L7257.45337,868.856031 L7257.74206,869.536969 C7257.79127,869.650617 7257.841,869.764328 7257.89124,869.878076 L7258.19851,870.560797 L7258.19851,870.560797 L7258.51661,871.243166 L7258.51661,871.243166 L7258.84433,871.92395 L7258.84433,871.92395 L7259.18043,872.601918 L7259.18043,872.601918 L7259.52368,873.275835 L7259.52368,873.275835 L7259.87284,873.944471 L7259.87284,873.944471 L7260.22669,874.606591 L7260.22669,874.606591 L7260.58399,875.260964 L7260.58399,875.260964 L7261.12372,876.225301 L7261.12372,876.225301 L7261.6643,877.165273 L7261.6643,877.165273 L7262.20155,878.076721 L7262.20155,878.076721 L7262.55582,878.666451 L7262.55582,878.666451 L7263.24947,879.797401 L7263.24947,879.797401 L7263.75183,880.598314 L7263.75183,880.598314 L7264.38989,881.595224 L7264.38989,881.595224 L7265.25893,882.918469 L7265.25893,882.918469 L7266.29855,884.450206 L7266.29855,884.450206 L7267.05026,885.517421 L7267.05026,885.517421 L7297.405,909.789663 L7303.87642,917.443382 L7324.33685,925.21733 L7324.33685,925.21733 L7325.76395,925.729691 L7325.76395,925.729691 L7327.29865,926.261418 L7327.29865,926.261418 L7328.80837,926.76866 L7328.80837,926.76866 L7330.09322,927.189146 L7330.09322,927.189146 L7331.50033,927.638467 L7331.50033,927.638467 L7332.50253,927.95159 L7332.50253,927.95159 L7333.5534,928.273864 L7333.5534,928.273864 L7335.21597,928.771224 L7335.21597,928.771224 L7336.37856,929.109959 L7336.37856,929.109959 L7337.58185,929.452713 L7337.58185,929.452713 L7338.8236,929.798019 L7338.8236,929.798019 L7340.10152,930.144413 L7340.10152,930.144413 L7341.41334,930.490427 L7341.41334,930.490427 L7342.7568,930.834596 L7342.7568,930.834596 L7344.12963,931.175453 C7344.36075,931.231906 7344.593,931.288159 7344.82634,931.344182 L7346.23896,931.677323 C7347.18885,931.897255 7348.15453,932.112535 7349.13299,932.32121 L7350.60986,932.629022 L7350.60986,932.629022 L7352.10362,932.92546 L7352.10362,932.92546 L7353.61198,933.209057 C7362.95395,934.915297 7372.99981,935.805434 7381.35409,934.332349 Z M7346.12893,793.763878 L7331.36384,794.488824 C7330.91247,794.568413 7330.40202,794.606237 7329.85517,794.633086 L7328.57286,794.68797 C7327.83696,794.722606 7327.07074,794.776179 7326.31845,794.908827 L7316.33095,796.669209 L7315.01909,796.89183 C7314.73107,796.938976 7314.44547,796.984281 7314.16247,797.027169 L7313.32141,797.148002 C7310.40611,797.541483 7307.79535,797.604678 7305.68554,796.668426 C7302.52007,795.139318 7301.24061,791.793379 7300.60052,788.829459 L7300.48769,788.278737 L7300.48769,788.278737 L7300.38802,787.740191 L7300.38802,787.740191 C7299.10303,780.452613 7301.84986,769.636307 7309.97452,768.203709 L7328.10964,765.475633 L7338.46717,760.828513 L7338.46717,760.828513 L7339.3198,760.305409 L7339.3198,760.305409 L7339.93684,759.940703 L7339.93684,759.940703 L7340.68721,759.509884 L7340.68721,759.509884 L7341.55173,759.029968 L7341.55173,759.029968 L7342.02079,758.776916 L7342.02079,758.776916 L7342.76364,758.386956 L7342.76364,758.386956 L7343.54641,757.990916 L7343.54641,757.990916 L7344.36098,757.595977 L7344.36098,757.595977 L7344.91771,757.336841 L7344.91771,757.336841 L7345.48258,757.083512 C7345.57727,757.041893 7345.6722,757.000604 7345.76731,756.95969 L7346.33989,756.71906 C7346.62692,756.60135 7346.91475,756.487811 7347.20203,756.37964 L7347.77547,756.170812 C7348.72865,755.835876 7349.66577,755.569454 7350.53684,755.415862 C7356.40465,754.381208 7362.70157,757.207558 7367.60923,761.376059 L7368.16923,761.862853 C7372.41371,765.638407 7375.51629,770.388442 7376.21822,774.369281 L7376.38338,775.336507 L7376.38338,775.336507 L7376.49426,776.040437 L7376.49426,776.040437 L7376.59148,776.726312 L7376.59148,776.726312 L7376.64757,777.173691 L7376.64757,777.173691 L7376.69591,777.613287 L7376.69591,777.613287 L7376.7358,778.045195 C7376.74171,778.116544 7376.74724,778.187578 7376.75238,778.258297 L7376.77835,778.678855 L7376.77835,778.678855 L7376.7942,779.091968 C7376.79926,779.29668 7376.80071,779.498635 7376.79751,779.697889 L7376.78509,780.09281 C7376.7789,780.22326 7376.77064,780.352526 7376.76018,780.480624 L7376.7221,780.861426 L7376.7221,780.861426 L7376.67018,781.235314 C7376.12877,784.631223 7373.75768,787.167776 7367.21554,789.179685 L7366.4852,789.397101 C7366.11164,789.504784 7365.72542,789.610943 7365.32615,789.715631 L7364.51012,789.923063 L7364.51012,789.923063 L7363.65863,790.126671 C7363.51372,790.160292 7363.36731,790.193758 7363.21938,790.227071 L7362.31344,790.425122 L7362.31344,790.425122 L7346.12893,793.763878 Z M7651.35409,887.332349 C7651.98913,887.220374 7652.78124,886.967695 7653.66584,886.621014 L7654.20718,886.402099 L7654.20718,886.402099 L7654.76761,886.162866 C7654.86244,886.121425 7654.95793,886.079231 7655.05402,886.03633 L7655.63729,885.770822 L7655.63729,885.770822 L7656.2319,885.4906 L7656.2319,885.4906 L7657.13831,885.047583 L7657.13831,885.047583 L7658.0528,884.584069 L7658.0528,884.584069 L7659.26662,883.947245 L7659.26662,883.947245 L7660.1593,883.46533 L7660.1593,883.46533 L7661.02518,882.98814 L7661.02518,882.98814 L7662.11994,882.372311 L7662.11994,882.372311 L7663.35746,881.660571 L7663.35746,881.660571 L7664.4043,881.046021 L7664.4043,881.046021 L7665.91633,880.135789 L7665.91633,880.135789 L7669.61721,872.077073 L7675.65517,864.069152 L7669.73263,841.043467 L7657.17653,835.851295 L7648.23309,830.022113 L7633.09339,831.302999 L7620.34655,830.31042 L7617.10874,829.232834 L7617.10874,829.232834 L7615.70794,828.756361 L7615.70794,828.756361 L7614.14246,828.213697 L7614.14246,828.213697 L7611.9764,827.444028 L7611.9764,827.444028 L7610.57621,826.93437 L7610.57621,826.93437 L7609.10815,826.389409 L7609.10815,826.389409 L7607.57845,825.809627 L7607.57845,825.809627 L7605.99328,825.195508 L7605.99328,825.195508 L7604.90875,824.767256 L7604.90875,824.767256 L7603.80415,824.324101 L7603.80415,824.324101 L7602.68133,823.866184 L7602.68133,823.866184 L7601.54213,823.39365 L7601.54213,823.39365 L7600.38836,822.90664 L7600.38836,822.90664 L7599.22188,822.405297 L7599.22188,822.405297 L7598.04452,821.889766 L7598.04452,821.889766 L7596.8581,821.360188 L7596.8581,821.360188 L7595.66448,820.816706 L7595.66448,820.816706 L7594.46548,820.259464 L7594.46548,820.259464 L7593.26294,819.688604 C7593.06232,819.592334 7592.86163,819.495502 7592.66091,819.398112 L7591.4565,818.807094 C7591.2558,818.707482 7591.05515,818.607317 7590.85457,818.506603 L7589.65242,817.895748 C7589.45233,817.792847 7589.25239,817.689403 7589.05266,817.585419 L7587.85689,816.955048 C7581.69414,813.664863 7575.79385,809.860881 7571.29523,805.631813 C7570.15459,804.444286 7568.93479,802.807831 7568.69732,801.461051 C7567.82658,796.522857 7573.96706,791.737049 7585.70821,789.666767 C7591.01883,788.730363 7597.29705,788.312855 7604.1299,788.100938 L7606.09687,788.045714 C7606.4271,788.037352 7606.75849,788.029389 7607.09101,788.02179 L7609.09925,787.980304 L7609.09925,787.980304 L7611.13232,787.945947 L7611.13232,787.945947 L7616.30959,787.880588 L7616.30959,787.880588 L7623.73234,787.798577 L7623.73234,787.798577 L7626.95581,787.751597 L7626.95581,787.751597 L7629.11353,787.712272 L7629.11353,787.712272 L7631.27574,787.66465 C7641.37324,787.420524 7651.54771,786.852291 7660.82021,785.217299 C7682.04461,781.474866 7695.5077,760.122699 7691.94559,739.920995 C7682.76328,687.845494 7651.64032,661.857171 7611.90103,668.86428 L7587.45976,675.488357 L7577.40918,681.890515 L7577.40918,681.890515 L7576.5273,682.30165 L7576.5273,682.30165 L7575.40225,682.851811 L7575.40225,682.851811 L7574.4996,683.308826 L7574.4996,683.308826 L7573.67743,683.735981 L7573.67743,683.735981 L7573.00673,684.091779 L7573.00673,684.091779 L7572.04562,684.612849 L7572.04562,684.612849 L7571.0141,685.186606 L7571.0141,685.186606 L7569.91873,685.812338 L7569.91873,685.812338 L7569.05923,686.315318 L7569.05923,686.315318 L7568.17025,686.846834 L7568.17025,686.846834 L7567.56258,687.216882 L7567.56258,687.216882 L7566.63061,687.79529 L7566.63061,687.79529 L7565.99683,688.196322 L7565.99683,688.196322 L7565.02953,688.820787 L7565.02953,688.820787 L7564.04471,689.472487 L7564.04471,689.472487 L7563.37979,689.921936 L7563.37979,689.921936 L7562.37191,690.618359 L7562.37191,690.618359 L7561.69417,691.097345 L7561.69417,691.097345 L7561.01274,691.58799 L7561.01274,691.58799 L7560.32844,692.090206 L7560.32844,692.090206 L7559.64207,692.603903 L7559.64207,692.603903 L7558.95446,693.128992 L7558.95446,693.128992 L7558.26642,693.665385 L7558.26642,693.665385 L7557.57878,694.212992 L7557.57878,694.212992 L7556.89235,694.771725 L7556.89235,694.771725 L7556.20795,695.341494 C7556.0941,695.43737 7555.98037,695.533702 7555.86677,695.630489 L7555.18695,696.216646 C7555.07396,696.315243 7554.96114,696.41429 7554.84851,696.513786 C7551.02252,699.997408 7546.75571,704.950292 7542.62234,710.232374 L7541.54748,711.617027 L7541.54748,711.617027 L7540.48094,713.012118 L7540.48094,713.012118 L7539.42498,714.413148 L7539.42498,714.413148 L7538.38187,715.815621 C7538.20922,716.049236 7538.03719,716.282725 7537.86585,716.515992 L7536.84626,717.912196 C7536.67781,718.144204 7536.51013,718.375804 7536.34327,718.606903 L7535.35231,719.986716 L7535.35231,719.986716 L7534.38326,721.349982 L7534.38326,721.349982 L7532.86584,723.511655 L7532.86584,723.511655 L7531.16049,725.97922 L7531.16049,725.97922 L7529.79288,727.986703 L7529.79288,727.986703 L7528.52287,729.873643 L7528.52287,729.873643 L7526.99885,732.167266 L7526.99885,732.167266 L7525.39974,734.609944 L7525.39974,734.609944 L7523.08987,738.218675 L7523.08987,738.218675 L7522.79794,742.34851 L7522.79794,742.34851 L7522.49029,747.210053 L7522.49029,747.210053 L7522.32984,750.030429 L7522.32984,750.030429 L7522.17803,752.990111 L7522.17803,752.990111 L7522.09386,754.825334 L7522.09386,754.825334 L7522.01786,756.682293 L7522.01786,756.682293 L7521.95275,758.539152 L7521.95275,758.539152 L7521.90199,760.349571 L7521.90199,760.349571 L7521.86799,762.091387 L7521.86799,762.091387 L7521.85365,763.339395 L7521.85365,763.339395 L7521.85365,764.526997 L7521.85365,764.526997 L7521.85986,765.280555 L7521.85986,765.280555 L7521.88049,766.346701 L7521.88049,766.346701 L7521.90224,767.010631 L7521.90224,767.010631 L7521.93073,767.633861 L7521.93073,767.633861 L7521.96627,768.213622 C7521.97279,768.306472 7521.97962,768.397396 7521.98677,768.486335 L7522.03343,768.995696 C7522.06711,769.31878 7522.10598,769.608266 7522.15045,769.86046 L7525.60097,794.710684 L7525.44366,796.293908 L7525.44366,796.293908 L7525.34072,797.459818 L7525.34072,797.459818 L7525.23675,798.787498 L7525.23675,798.787498 L7525.13852,800.254387 L7525.13852,800.254387 L7525.07268,801.432339 L7525.07268,801.432339 L7525.01674,802.666388 L7525.01674,802.666388 L7524.98635,803.515553 L7524.98635,803.515553 L7524.96247,804.382599 L7524.96247,804.382599 L7524.94595,805.264707 L7524.94595,805.264707 L7524.93763,806.159057 C7524.93698,806.308979 7524.9367,806.459293 7524.93682,806.609942 L7524.94239,807.517367 C7524.94416,807.669115 7524.94635,807.82108 7524.949,807.973202 L7524.97037,808.887357 C7525.04243,811.327639 7525.23809,813.778177 7525.62957,815.998323 C7525.86081,817.309795 7526.26817,818.7186 7526.79527,820.168324 L7527.04683,820.840127 C7527.09011,820.95251 7527.13405,821.065084 7527.17861,821.177822 L7527.45337,821.856031 L7527.45337,821.856031 L7527.74206,822.536969 C7527.79127,822.650617 7527.841,822.764328 7527.89124,822.878076 L7528.19851,823.560797 L7528.19851,823.560797 L7528.51661,824.243166 L7528.51661,824.243166 L7528.84433,824.92395 L7528.84433,824.92395 L7529.18043,825.601918 L7529.18043,825.601918 L7529.52368,826.275835 L7529.52368,826.275835 L7529.87284,826.944471 L7529.87284,826.944471 L7530.22669,827.606591 L7530.22669,827.606591 L7530.58399,828.260964 L7530.58399,828.260964 L7531.12372,829.225301 L7531.12372,829.225301 L7531.6643,830.165273 L7531.6643,830.165273 L7532.20155,831.076721 L7532.20155,831.076721 L7532.55582,831.666451 L7532.55582,831.666451 L7533.24947,832.797401 L7533.24947,832.797401 L7533.75183,833.598314 L7533.75183,833.598314 L7534.38989,834.595224 L7534.38989,834.595224 L7535.25893,835.918469 L7535.25893,835.918469 L7536.29855,837.450206 L7536.29855,837.450206 L7537.05026,838.517421 L7537.05026,838.517421 L7567.405,862.789663 L7573.87642,870.443382 L7594.33685,878.21733 L7594.33685,878.21733 L7595.76395,878.729691 L7595.76395,878.729691 L7597.29865,879.261418 L7597.29865,879.261418 L7598.80837,879.76866 L7598.80837,879.76866 L7600.09322,880.189146 L7600.09322,880.189146 L7601.50033,880.638467 L7601.50033,880.638467 L7602.50253,880.95159 L7602.50253,880.95159 L7603.5534,881.273864 L7603.5534,881.273864 L7605.21597,881.771224 L7605.21597,881.771224 L7606.37856,882.109959 L7606.37856,882.109959 L7607.58185,882.452713 L7607.58185,882.452713 L7608.8236,882.798019 L7608.8236,882.798019 L7610.10152,883.144413 L7610.10152,883.144413 L7611.41334,883.490427 L7611.41334,883.490427 L7612.7568,883.834596 L7612.7568,883.834596 L7614.12963,884.175453 C7614.36075,884.231906 7614.593,884.288159 7614.82634,884.344182 L7616.23896,884.677323 C7617.18885,884.897255 7618.15453,885.112535 7619.13299,885.32121 L7620.60986,885.629022 L7620.60986,885.629022 L7622.10362,885.92546 L7622.10362,885.92546 L7623.61198,886.209057 C7632.95395,887.915297 7642.99981,888.805434 7651.35409,887.332349 Z M7616.12893,746.763878 L7601.36384,747.488824 C7600.91247,747.568413 7600.40202,747.606237 7599.85517,747.633086 L7598.57286,747.68797 C7597.83696,747.722606 7597.07074,747.776179 7596.31845,747.908827 L7586.33095,749.669209 L7585.01909,749.89183 C7584.73107,749.938976 7584.44547,749.984281 7584.16247,750.027169 L7583.32141,750.148002 C7580.40611,750.541483 7577.79535,750.604678 7575.68554,749.668426 C7572.52007,748.139318 7571.24061,744.793379 7570.60052,741.829459 L7570.48769,741.278737 L7570.48769,741.278737 L7570.38802,740.740191 L7570.38802,740.740191 C7569.10303,733.452613 7571.84986,722.636307 7579.97452,721.203709 L7598.10964,718.475633 L7608.46717,713.828513 L7608.46717,713.828513 L7609.3198,713.305409 L7609.3198,713.305409 L7609.93684,712.940703 L7609.93684,712.940703 L7610.68721,712.509884 L7610.68721,712.509884 L7611.55173,712.029968 L7611.55173,712.029968 L7612.02079,711.776916 L7612.02079,711.776916 L7612.76364,711.386956 L7612.76364,711.386956 L7613.54641,710.990916 L7613.54641,710.990916 L7614.36098,710.595977 L7614.36098,710.595977 L7614.91771,710.336841 L7614.91771,710.336841 L7615.48258,710.083512 C7615.57727,710.041893 7615.6722,710.000604 7615.76731,709.95969 L7616.33989,709.71906 C7616.62692,709.60135 7616.91475,709.487811 7617.20203,709.37964 L7617.77547,709.170812 C7618.72865,708.835876 7619.66577,708.569454 7620.53684,708.415862 C7626.40465,707.381208 7632.70157,710.207558 7637.60923,714.376059 L7638.16923,714.862853 C7642.41371,718.638407 7645.51629,723.388442 7646.21822,727.369281 L7646.38338,728.336507 L7646.38338,728.336507 L7646.49426,729.040437 L7646.49426,729.040437 L7646.59148,729.726312 L7646.59148,729.726312 L7646.64757,730.173691 L7646.64757,730.173691 L7646.69591,730.613287 L7646.69591,730.613287 L7646.7358,731.045195 C7646.74171,731.116544 7646.74724,731.187578 7646.75238,731.258297 L7646.77835,731.678855 L7646.77835,731.678855 L7646.7942,732.091968 C7646.79926,732.29668 7646.80071,732.498635 7646.79751,732.697889 L7646.78509,733.09281 C7646.7789,733.22326 7646.77064,733.352526 7646.76018,733.480624 L7646.7221,733.861426 L7646.7221,733.861426 L7646.67018,734.235314 C7646.12877,737.631223 7643.75768,740.167776 7637.21554,742.179685 L7636.4852,742.397101 C7636.11164,742.504784 7635.72542,742.610943 7635.32615,742.715631 L7634.51012,742.923063 L7634.51012,742.923063 L7633.65863,743.126671 C7633.51372,743.160292 7633.36731,743.193758 7633.21938,743.227071 L7632.31344,743.425122 L7632.31344,743.425122 L7616.12893,746.763878 Z M7846.75541,968.673327 C7861.69488,966.039095 7876.90169,949.037349 7874.92675,937.836895 L7874.76875,936.940859 L7872.42009,926.268248 L7872.21345,909.212624 L7861.1508,875.593302 L7861.9924,867.129849 L7858.15796,840.089108 L7859.273,827.881859 L7858.69874,821.977797 L7858.68389,821.584902 L7858.68389,821.584902 L7858.67777,821.178733 L7858.67777,821.178733 L7858.68141,820.761025 L7858.68141,820.761025 L7858.69585,820.333512 C7858.69921,820.261539 7858.70306,820.18923 7858.70743,820.11662 L7858.73999,819.67765 L7858.73999,819.67765 L7858.78592,819.233209 C7859.1743,815.95815 7860.72459,812.381633 7865.26759,811.58058 C7867.74317,811.144068 7870.68617,811.812242 7873.48791,812.88099 L7874.10794,813.124797 L7874.10794,813.124797 L7874.72184,813.380075 C7874.82357,813.423481 7874.92497,813.467294 7875.02603,813.511478 L7875.62795,813.780742 L7875.62795,813.780742 L7876.22002,814.057183 L7876.22002,814.057183 L7876.80076,814.339086 L7876.80076,814.339086 L7877.36868,814.624731 L7877.36868,814.624731 L7877.92231,814.912404 L7877.92231,814.912404 L7878.46016,815.200385 L7878.46016,815.200385 L7878.98074,815.486959 L7878.98074,815.486959 L7879.48257,815.770408 L7879.48257,815.770408 L7880.1969,816.185967 L7880.1969,816.185967 L7880.8607,816.584836 L7880.8607,816.584836 L7881.65848,817.080684 L7881.65848,817.080684 L7882.34564,817.522823 L7882.34564,817.522823 L7882.91029,817.897516 L7882.91029,817.897516 L7883.75585,818.483448 L7883.75585,818.483448 L7900.23272,819.273711 L7901.53883,819.511329 L7901.53883,819.511329 L7903.33596,819.814033 L7903.33596,819.814033 L7905.11117,820.092516 L7905.11117,820.092516 L7906.47545,820.294036 L7906.47545,820.294036 L7907.58498,820.45023 L7907.58498,820.45023 L7909.16975,820.661534 L7909.16975,820.661534 L7910.00389,820.767195 L7910.00389,820.767195 L7911.30305,820.924078 L7911.30305,820.924078 L7912.6552,821.077305 L7912.6552,821.077305 L7913.58355,821.176465 L7913.58355,821.176465 L7915.01268,821.319278 L7915.01268,821.319278 L7916.48118,821.453253 L7916.48118,821.453253 L7917.98396,821.576445 L7917.98396,821.576445 L7919.00232,821.651623 L7919.00232,821.651623 L7920.03214,821.720569 L7920.03214,821.720569 L7921.07189,821.782709 C7921.24593,821.792466 7921.42031,821.801916 7921.59502,821.811046 L7922.64684,821.861894 C7922.82269,821.869697 7922.99881,821.877157 7923.17515,821.884262 L7924.23562,821.922524 C7924.41274,821.928158 7924.59001,821.933412 7924.76741,821.938274 L7925.83315,821.962655 C7926.36655,821.972399 7926.90055,821.978403 7927.4343,821.980343 L7928.50123,821.978708 C7932.41026,821.95214 7936.27554,821.695394 7939.76142,821.08074 C7979.6,814.056123 8007.52824,771.251917 8000.33945,730.482263 C7997.24116,712.910991 7990.933,700.187822 7985.68773,692.109537 L7985.0987,691.214846 C7984.90402,690.923223 7984.71108,690.638203 7984.52012,690.359776 L7983.95338,689.54426 L7983.95338,689.54426 L7983.39986,688.768233 C7983.30878,688.642182 7983.21832,688.517774 7983.12848,688.395007 L7982.59737,687.678092 L7982.59737,687.678092 L7982.0829,687.000501 C7981.99863,686.890843 7981.9151,686.78282 7981.83235,686.676432 L7981.34546,686.057707 L7981.34546,686.057707 L7980.87867,685.478143 L7980.87867,685.478143 L7980.43336,684.937676 L7980.43336,684.937676 L7980.01091,684.436239 L7980.01091,684.436239 L7979.6127,683.973766 L7979.6127,683.973766 L7979.24009,683.550194 L7979.24009,683.550194 L7978.73222,682.987628 L7978.73222,682.987628 L7978.03336,682.243587 L7978.03336,682.243587 L7977.61948,681.821978 L7977.61948,681.821978 L7977.22067,681.434754 L7977.22067,681.434754 L7960.71032,656.629119 L7947.16543,653.936025 L7933.06756,648.106803 L7921.8075,647.782517 L7921.44688,647.70357 L7921.44688,647.70357 L7920.87063,647.590627 L7920.87063,647.590627 L7920.36802,647.501767 L7920.36802,647.501767 L7919.80601,647.410726 L7919.80601,647.410726 L7919.18548,647.318746 L7919.18548,647.318746 L7918.26861,647.196788 L7918.26861,647.196788 L7917.7724,647.13693 L7917.7724,647.13693 L7916.98158,647.049576 L7916.98158,647.049576 L7915.84175,646.939579 L7915.84175,646.939579 L7914.92395,646.863545 L7914.92395,646.863545 L7913.95319,646.794432 L7913.95319,646.794432 L7913.27703,646.752813 L7913.27703,646.752813 L7912.21994,646.697989 L7912.21994,646.697989 L7911.11224,646.653395 L7911.11224,646.653395 L7910.34607,646.629961 L7910.34607,646.629961 L7909.55806,646.611992 L7909.55806,646.611992 L7908.74846,646.599856 L7908.74846,646.599856 L7907.91752,646.593921 L7907.91752,646.593921 L7907.06552,646.594555 L7907.06552,646.594555 L7905.74858,646.608626 C7905.59968,646.611102 7905.44993,646.61389 7905.29934,646.616998 L7904.38568,646.639543 L7904.38568,646.639543 L7903.452,646.670127 L7903.452,646.670127 L7902.49854,646.709119 L7902.49854,646.709119 L7901.52557,646.756884 L7901.52557,646.756884 L7900.53335,646.813792 L7900.53335,646.813792 L7899.52213,646.88021 L7899.52213,646.88021 L7898.49219,646.956506 L7898.49219,646.956506 L7897.44377,647.043046 L7897.44377,647.043046 L7896.37714,647.1402 C7896.19786,647.157298 7896.01784,647.174852 7895.83707,647.192872 L7894.74361,647.306635 L7894.74361,647.306635 L7893.63258,647.43193 L7893.63258,647.43193 L7892.50426,647.569125 L7892.50426,647.569125 L7891.35888,647.718587 L7891.35888,647.718587 L7890.19673,647.880685 L7890.19673,647.880685 L7889.01805,648.055786 L7889.01805,648.055786 L7887.82311,648.244257 C7887.62261,648.276804 7887.42145,648.309923 7887.21962,648.343622 L7886.00077,648.552839 L7886.00077,648.552839 C7874.7011,650.545276 7867.30319,653.325233 7861.97213,656.065362 L7861.16802,656.486495 C7861.03664,656.556594 7860.90655,656.626639 7860.77773,656.696616 L7860.01976,657.115551 L7860.01976,657.115551 L7859.29069,657.532183 L7859.29069,657.532183 L7858.58904,657.945844 L7858.58904,657.945844 L7857.91332,658.355864 L7857.91332,658.355864 L7857.26204,658.761574 L7857.26204,658.761574 L7856.63373,659.162303 L7856.63373,659.162303 L7856.02689,659.557382 L7856.02689,659.557382 L7855.15365,660.137945 L7855.15365,660.137945 L7852.25566,662.108518 L7852.25566,662.108518 L7851.76718,662.434301 L7851.76718,662.434301 L7851.28682,662.748408 L7851.28682,662.748408 L7850.81308,663.050172 C7850.7346,663.0994 7850.65633,663.148085 7850.57824,663.196215 L7850.11167,663.478207 L7850.11167,663.478207 L7849.64801,663.74618 L7849.64801,663.74618 L7849.18578,663.999467 C7847.87677,664.695672 7846.56713,665.206954 7845.10487,665.464789 C7840.44013,666.287308 7837.64129,664.242301 7835.35556,661.203105 L7835.03238,660.762373 L7835.03238,660.762373 L7834.71529,660.309329 L7834.71529,660.309329 L7834.40344,659.845186 L7834.40344,659.845186 L7834.09593,659.371157 L7834.09593,659.371157 L7833.79191,658.888457 L7833.79191,658.888457 L7833.19077,657.901896 L7833.19077,657.901896 L7831.64532,655.298717 L7831.64532,655.298717 L7831.22029,654.600653 L7831.22029,654.600653 L7830.78607,653.908022 L7830.78607,653.908022 L7830.49036,653.450842 L7830.49036,653.450842 L7830.18888,652.998413 L7830.18888,652.998413 L7829.88095,652.551669 C7829.82905,652.477738 7829.77686,652.404082 7829.72436,652.330721 L7829.4055,651.894257 C7829.35169,651.822155 7829.29755,651.750388 7829.24306,651.678974 L7828.91174,651.254892 L7828.91174,651.254892 L7828.57128,650.840234 C7828.4562,650.703688 7828.33947,650.568869 7828.221,650.435933 L7827.86022,650.042924 C7825.05231,647.075532 7821.25956,645.186138 7815.11345,646.269862 C7810.94851,647.004254 7806.54763,650.3217 7803.21678,654.867816 L7802.7885,655.467645 C7802.64783,655.669836 7802.50929,655.874238 7802.37299,656.080741 L7801.97092,656.706437 C7798.80971,661.760625 7796.99909,667.960294 7798.0229,673.76661 L7798.1019,674.214628 L7800.60855,685.783275 L7799.23525,693.878535 L7801.33174,711.062876 L7801.42294,732.758332 L7807.26877,765.911677 L7805.66457,783.286602 L7807.56052,794.039038 L7806.44548,806.246287 L7811.02734,832.231341 L7813.61909,854.871725 L7813.67577,855.751722 L7813.67577,855.751722 L7813.77897,857.084133 L7813.77897,857.084133 L7813.94687,858.999721 L7813.94687,858.999721 L7814.19785,861.631222 L7814.19785,861.631222 L7814.69579,866.513415 L7814.69579,866.513415 L7815.35478,872.67846 L7815.35478,872.67846 L7816.76081,885.432798 L7816.76081,885.432798 L7818.41032,900.328199 L7818.41032,900.328199 L7819.11042,906.78508 L7819.11042,906.78508 L7819.56516,911.085947 L7819.56516,911.085947 L7819.89339,914.280533 L7819.89339,914.280533 L7820.11455,916.133232 L7820.11455,916.133232 L7820.56356,920.116506 L7820.56356,920.116506 L7821.18315,926.030964 L7821.18315,926.030964 L7821.93216,933.78479 L7821.93216,933.78479 L7825.5235,948.857758 L7827.12473,960.586055 L7827.74287,961.019321 L7827.74287,961.019321 L7828.54586,961.56305 L7828.54586,961.56305 L7829.42763,962.141561 L7829.42763,962.141561 L7830.255,962.668443 L7830.255,962.668443 L7831.17752,963.238405 L7831.17752,963.238405 L7831.92448,963.686444 L7831.92448,963.686444 L7832.71292,964.146109 L7832.71292,964.146109 L7833.25904,964.456344 L7833.25904,964.456344 L7833.81977,964.767744 L7833.81977,964.767744 L7834.39357,965.078708 L7834.39357,965.078708 L7834.97892,965.387636 L7834.97892,965.387636 L7835.5743,965.692927 L7835.5743,965.692927 L7836.17816,965.992979 L7836.17816,965.992979 L7836.78898,966.286193 L7836.78898,966.286193 L7837.40523,966.570968 C7837.5083,966.617638 7837.61154,966.66389 7837.71491,966.70969 L7838.33644,966.978804 C7838.54397,967.066523 7838.75176,967.15217 7838.95957,967.235476 L7839.58278,967.478105 L7839.58278,967.478105 L7840.20453,967.705092 C7842.58318,968.543179 7844.89606,969.00118 7846.75541,968.673327 Z M7925.22876,770.923458 L7911.59833,768.711295 L7885.29962,772.425353 L7884.85958,772.314251 L7884.85958,772.314251 L7884.3426,772.171255 L7884.3426,772.171255 L7883.95768,772.057472 L7883.95768,772.057472 L7883.32363,771.858021 L7883.32363,771.858021 L7882.86531,771.705227 L7882.86531,771.705227 L7882.38024,771.536059 L7882.38024,771.536059 L7881.86991,771.350078 L7881.86991,771.350078 L7881.3358,771.146843 L7881.3358,771.146843 L7880.7794,770.925916 L7880.7794,770.925916 L7880.2022,770.686855 L7880.2022,770.686855 L7879.60569,770.429222 C7879.50474,770.384711 7879.40306,770.339408 7879.30066,770.293303 L7878.67797,770.006987 C7878.57285,769.957641 7878.46708,769.907475 7878.36069,769.85648 L7877.71518,769.540491 L7877.71518,769.540491 L7877.05631,769.20417 C7869.62994,765.333441 7859.98379,757.577648 7857.44537,743.181549 C7853.49882,720.799554 7879.18512,702.885198 7903.03292,698.680188 C7927.79794,694.313447 7947.84487,708.779376 7952.18607,733.39957 C7955.80269,753.91043 7941.6482,764.016086 7931.77773,768.475129 L7931.03667,768.80301 L7931.03667,768.80301 L7930.31423,769.109641 C7930.19549,769.159001 7930.07762,769.207494 7929.96066,769.255132 L7929.27018,769.530754 C7929.15704,769.575004 7929.0449,769.618417 7928.9338,769.661002 L7928.28011,769.906659 C7928.17337,769.945973 7928.06776,769.984478 7927.96334,770.022185 L7927.05651,770.340243 L7927.05651,770.340243 L7926.49089,770.529096 L7926.49089,770.529096 L7925.70623,770.778756 L7925.70623,770.778756 L7925.22876,770.923458 L7925.22876,770.923458 Z M8122.87181,697.124223 C8135.31482,694.930184 8136.24114,657.744784 8135.29547,631.255643 L8135.20162,628.805017 C8135.18516,628.402267 8135.16832,628.002477 8135.15114,627.605821 L8135.04415,625.26489 C8135.02572,624.881469 8135.00702,624.50153 8134.98809,624.125248 L8134.87193,621.912836 C8134.8522,621.551879 8134.8323,621.194929 8134.81228,620.842158 L8134.69093,618.777087 L8134.69093,618.777087 L8134.56832,616.820701 L8134.56832,616.820701 L8134.44622,614.981365 L8134.44622,614.981365 L8134.3264,613.267445 L8134.3264,613.267445 L8134.15481,610.950019 L8134.15481,610.950019 L8133.99826,608.961835 L8133.99826,608.961835 L8133.787,606.45653 L8133.787,606.45653 L8133.63928,604.839723 L8133.63928,604.839723 L8133.4193,587.728366 L8130.18394,579.955534 L8125.91247,547.798969 L8126.48001,543.868388 L8126.48001,543.868388 L8126.9455,540.507306 L8126.9455,540.507306 L8127.41809,536.969403 L8127.41809,536.969403 L8127.92434,533.016063 L8127.92434,533.016063 L8128.29212,530.012834 L8128.29212,530.012834 L8128.65431,526.915965 L8128.65431,526.915965 L8128.93364,524.40418 L8128.93364,524.40418 L8129.06817,523.145533 L8129.06817,523.145533 L8129.26183,521.262995 L8129.26183,521.262995 L8129.38463,520.016193 L8129.38463,520.016193 L8129.55785,518.166211 L8129.55785,518.166211 L8129.66512,516.950972 L8129.66512,516.950972 L8129.76512,515.75388 L8129.76512,515.75388 L8129.85724,514.57809 L8129.85724,514.57809 L8129.97932,512.86125 L8129.97932,512.86125 L8130.04908,511.752519 L8130.04908,511.752519 L8130.10884,510.676134 L8130.10884,510.676134 L8130.15798,509.63525 C8130.16525,509.464903 8130.17206,509.296166 8130.17838,509.129106 L8130.21047,508.147389 C8130.28012,505.585924 8130.22038,503.487269 8129.97941,502.120665 C8127.83922,489.983066 8113.5704,480.44759 8103.62323,482.201546 C8090.96318,484.433853 8079.51558,496.186241 8081.73503,508.77338 L8084.43008,524.057764 L8082.47424,560.556993 L8085.46291,574.862569 L8084.73733,605.119143 L8089.57256,632.541125 L8084.75423,660.738257 C8084.77769,663.515226 8084.8804,666.741736 8085.356,669.438981 C8088.28885,686.071986 8100.71673,701.030761 8122.87181,697.124223 Z M8126.45675,792.535224 C8145.01517,789.262873 8154.50383,768.962833 8151.31843,750.89757 C8148.21268,733.283938 8131.15457,718.596155 8112.1435,721.94832 C8091.32185,725.619739 8074.85909,743.424114 8078.28339,762.844272 C8078.98536,766.825321 8081.04742,770.69175 8083.1263,773.836463 L8083.57154,774.499063 L8083.57154,774.499063 L8084.01436,775.138241 L8084.01436,775.138241 L8084.45182,775.752672 L8084.45182,775.752672 L8084.88098,776.341026 L8084.88098,776.341026 L8085.50274,777.171762 L8085.50274,777.171762 L8086.08931,777.936361 L8086.08931,777.936361 L8087.66313,779.949841 L8087.66313,779.949841 L8087.88544,780.243779 L8087.88544,780.243779 L8092.94003,787.734639 L8107.54426,791.39835 L8107.54426,791.39835 L8108.28924,791.566212 L8108.28924,791.566212 L8108.9627,791.708318 L8108.9627,791.708318 L8109.76389,791.867109 L8109.76389,791.867109 L8110.68106,792.036179 L8110.68106,792.036179 L8111.70246,792.209124 L8111.70246,792.209124 L8112.24858,792.295047 L8112.24858,792.295047 L8113.10789,792.420994 L8113.10789,792.420994 L8114.01096,792.541013 L8114.01096,792.541013 L8114.63487,792.616398 L8114.63487,792.616398 L8115.27456,792.687146 L8115.27456,792.687146 L8115.92856,792.752458 L8115.92856,792.752458 L8116.5954,792.811532 L8116.5954,792.811532 L8117.2736,792.863567 L8117.2736,792.863567 L8117.96171,792.907764 L8117.96171,792.907764 L8118.65825,792.94332 L8118.65825,792.94332 L8119.36176,792.969437 L8119.36176,792.969437 L8120.07076,792.985312 C8120.54493,792.992304 8121.02179,792.991934 8121.49938,792.983136 L8122.21605,792.963484 C8123.64952,792.911002 8125.08071,792.777857 8126.45675,792.535224 Z" id="beep"></path>
        </g>
    </g>
</svg>