<?xml version="1.0" encoding="UTF-8"?>
<svg width="221px" height="121px" viewBox="0 0 221 121" version="1.1" xmlns="http://www.w3.org/2000/svg" xmlns:xlink="http://www.w3.org/1999/xlink">
    <title>logo-orbit copy</title>
    <g id="Inspiration" stroke="none" stroke-width="1" fill="none" fill-rule="evenodd">
        <g id="Artboard-Copy-58" transform="translate(-325.000000, -71.000000)">
            <g id="logo-orbit-copy" transform="translate(325.000000, 71.000000)">
                <path d="M130.529819,120.349499 L139.712103,107.875452 L138.499349,114.285726 L139.712103,114.285726 L145.775876,120.349499 L200.349828,120.349499 L220.793404,14.8398573 L218.021394,7.39007961 L212.477373,1.84605904 L212.477373,2.01930968 L211.957622,0.460053894 L128.624062,0.460053894 C126.198553,0.460053894 123.657543,0.893180501 121.001034,1.75943372 C118.344525,2.62568693 115.716889,3.75181611 113.11813,5.13782125 C110.51937,6.52382639 108.064985,8.05420619 105.754977,9.72896329 C103.44497,11.4037204 101.539213,12.9918495 100.037706,14.493356 L0.245335954,114.285726 L2.32434367,114.285726 L8.38811617,120.349499 L130.529819,120.349499 Z M122.906791,111.860217 L6.13585781,111.860217 L101.770213,16.2258624 C103.271719,14.7243559 105.119724,13.1939761 107.314233,11.6347204 C109.508742,10.0754646 111.81875,8.6317101 114.244259,7.30345429 C116.669768,5.97519848 119.124153,4.90682127 121.607411,4.09831739 C124.09067,3.28981351 126.429553,2.88556289 128.624062,2.88556289 L210.225115,2.88556289 L212.304123,8.25633282 L192.033798,111.860217 L141.44461,111.860217 L157.55692,29.5661619 L146.122377,29.5661619 L94.1471844,83.6203625 L143.696868,83.6203625 L122.906791,111.860217 Z M144.909623,81.3681041 L112.165251,81.3681041 L153.225654,38.4019447 L144.909623,81.3681041 Z" id="a" fill="#EF603B" fill-rule="nonzero"></path>
                <path d="M122.906791,111.860217 L6.13585781,111.860217 L101.770213,16.2258624 C103.271719,14.7243559 105.119724,13.1939761 107.314233,11.6347204 C109.508742,10.0754646 111.81875,8.6317101 114.244259,7.30345429 C116.669768,5.97519848 119.124153,4.90682127 121.607411,4.09831739 C124.09067,3.28981351 126.429553,2.88556289 128.624062,2.88556289 L210.225115,2.88556289 L212.304123,8.25633282 L192.033798,111.860217 L141.44461,111.860217 L157.55692,29.5661619 L146.122377,29.5661619 L94.1471844,83.6203625 L143.696868,83.6203625 L122.906791,111.860217 Z" id="Path" fill="#2A2536"></path>
            </g>
        </g>
    </g>
</svg>