<?xml version="1.0" encoding="UTF-8"?>
<svg width="221px" height="120px" viewBox="0 0 221 120" version="1.1" xmlns="http://www.w3.org/2000/svg" xmlns:xlink="http://www.w3.org/1999/xlink">
    <title>logo-letter</title>
    <g id="Inspiration" stroke="none" stroke-width="1" fill="none" fill-rule="evenodd">
        <g id="Artboard-Copy-57" transform="translate(-325.000000, -98.000000)">
            <g id="logo-letter" transform="translate(325.000000, 98.000000)">
                <path d="M130.284483,119.889445 L139.466767,107.415399 L138.254013,113.825672 L139.466767,113.825672 L145.53054,119.889445 L200.104492,119.889445 L220.548068,14.3798034 L217.776058,6.93002571 L212.232037,1.38600514 L212.232037,1.55925579 L211.712286,8.24229573e-13 L128.378726,8.24229573e-13 C125.953217,8.24229573e-13 123.412207,0.433126607 120.755698,1.29937982 C118.099189,2.16563304 115.471553,3.29176221 112.872794,4.67776736 C110.274034,6.0637725 107.819649,7.5941523 105.509641,9.26890939 C103.199634,10.9436665 101.293877,12.5317956 99.7923703,14.0333021 L-2.95585778e-12,113.825672 L2.07900771,113.825672 L8.14278021,119.889445 L130.284483,119.889445 Z M122.661455,111.400163 L5.89052186,111.400163 L101.524877,15.7658085 C103.026383,14.264302 104.874388,12.7339223 107.068897,11.1746665 C109.263406,9.61541068 111.573414,8.1716562 113.998923,6.84340039 C116.424432,5.51514458 118.878817,4.44676738 121.362075,3.6382635 C123.845334,2.82975962 126.184217,2.425509 128.378726,2.425509 L209.979779,2.425509 L212.058787,7.79627893 L191.788462,111.400163 L141.199274,111.400163 L157.311584,29.106108 L145.877041,29.106108 L93.9018484,83.1603086 L143.451532,83.1603086 L122.661455,111.400163 Z M144.664287,80.9080502 L111.919915,80.9080502 L152.980318,37.9418908 L144.664287,80.9080502 Z" fill="#EF603B" fill-rule="nonzero"></path>
                <path d="M122.661455,111.400163 L5.89052186,111.400163 L101.524877,15.7658085 C103.026383,14.264302 104.874388,12.7339223 107.068897,11.1746665 C109.263406,9.61541068 111.573414,8.1716562 113.998923,6.84340039 C116.424432,5.51514458 118.878817,4.44676738 121.362075,3.6382635 C123.845334,2.82975962 126.184217,2.425509 128.378726,2.425509 L209.979779,2.425509 L212.058787,7.79627893 L191.788462,111.400163 L141.199274,111.400163 L157.311584,29.106108 L145.877041,29.106108 L93.9018484,83.1603086 L143.451532,83.1603086 L122.661455,111.400163 Z" id="Path" fill="#37303D"></path>
            </g>
        </g>
    </g>
</svg>