<?xml version="1.0" encoding="UTF-8"?>
<svg width="320px" height="286px" viewBox="0 0 320 286" version="1.1" xmlns="http://www.w3.org/2000/svg" xmlns:xlink="http://www.w3.org/1999/xlink">
    <title>face</title>
    <defs>
        <path d="M55.5674703,84.5043616 L264.559413,84.5043616 C265.367051,84.5043616 266.14161,84.8251945 266.712696,85.3962807 L275.252018,93.9356028 C275.719872,94.403455 276.02262,95.010956 276.11446,95.6661949 C278.725967,114.298214 280.031721,132.930233 280.031721,151.562252 C280.031721,170.194265 278.725968,188.826279 276.114462,207.458292 C276.022632,208.113534 275.719883,208.721037 275.252029,209.188891 L266.712696,217.728224 C266.14161,218.29931 265.367051,218.620143 264.559413,218.620143 L55.5674703,218.620143 C54.7598325,218.620143 53.9852734,218.29931 53.4141872,217.728224 L44.8748651,209.188902 C44.4070117,208.721049 44.1042637,208.113548 44.0124238,207.458309 C41.4009163,188.82629 40.0951626,170.194271 40.0951626,151.562252 C40.0951626,132.930239 41.4009155,114.298226 44.0124214,95.6662126 C44.1042515,95.0109703 44.4070004,94.4034674 44.8748547,93.9356131 L53.4141872,85.3962807 C53.9852734,84.8251945 54.7598325,84.5043616 55.5674703,84.5043616 Z" id="path-1"></path>
    </defs>
    <g id="face" stroke="none" stroke-width="1" fill="none" fill-rule="evenodd">
        <path d="M46.3124504,12.1808089 C71.9429025,0 136.975407,0 160,0 C183.024593,0 248.057098,0 273.68755,12.1808089 C299.318002,24.3616178 320,75.4974422 320,142.870738 C320,210.244033 299.318002,261.379857 273.68755,273.560666 C248.057098,285.741475 218.857596,285.741475 160,285.741475 C101.142404,285.741475 71.9429025,285.741475 46.3124504,273.560666 C20.6819984,261.379857 0,210.244033 0,142.870738 C0,75.4974422 20.6819984,24.3616178 46.3124504,12.1808089 Z" id="Face-Black-Background" fill="#000000"></path>
        <g id="Gray-Area-Around-Display">
            <path stroke="#BA9D5A" stroke-width="8.88183981" d="M264.559413,80.0634417 C266.544856,80.0634417 268.448981,80.8521559 269.852901,82.2560761 L269.852901,82.2560761 L278.392219,90.7953944 C279.54236,91.9455323 280.286617,93.4389733 280.51239,95.0497707 C283.152697,113.887265 284.472641,132.724768 284.472641,151.562252 C284.472641,170.39973 283.152698,189.237228 280.512402,208.074649 C280.28665,209.685472 279.54239,211.178939 278.392233,212.329096 L278.392233,212.329096 L269.852901,220.868428 C268.448981,222.272348 266.544856,223.061063 264.559413,223.061063 L264.559413,223.061063 L55.5674703,223.061063 C53.5820273,223.061063 51.6779028,222.272348 50.2739826,220.868428 L50.2739826,220.868428 L41.7346644,212.32911 C40.5845236,211.178972 39.8402667,209.685531 39.6144936,208.074734 C36.9741862,189.23724 35.6542427,170.399736 35.6542427,151.562252 C35.6542427,132.724774 36.9741854,113.887276 39.6144817,95.0498553 C39.8402334,93.439032 40.5844934,91.9455653 41.7346502,90.7954086 L41.7346502,90.7954086 L50.2739826,82.2560761 C51.6779028,80.8521559 53.5820273,80.0634417 55.5674703,80.0634417 L55.5674703,80.0634417 Z" fill="#5B5B57" fill-rule="evenodd"></path>
            <path stroke="#000000" stroke-width="5.07533703" d="M264.559413,81.9666931 C266.040082,81.9666931 267.460107,82.5548867 268.507099,83.6018781 L268.507099,83.6018781 L277.046419,92.141198 C277.904151,92.9989278 278.459189,94.1126802 278.627563,95.3139525 C281.255527,114.063386 282.569389,132.812825 282.569389,151.562252 C282.569389,170.311674 281.255528,189.061107 278.62757,207.810496 C278.459214,209.011785 277.904173,210.125552 277.046431,210.983294 L277.046431,210.983294 L268.507099,219.522626 C267.460107,220.569618 266.040082,221.157811 264.559413,221.157811 L264.559413,221.157811 L55.5674703,221.157811 C54.0868009,221.157811 52.6667759,220.569618 51.6197846,219.522626 L51.6197846,219.522626 L43.0804647,210.983306 C42.2227328,210.125577 41.667694,209.011824 41.4993208,207.810552 C38.8713563,189.061119 37.5574941,170.31168 37.5574941,151.562252 C37.5574941,132.81283 38.8713554,114.063398 41.499313,95.3140085 C41.6676697,94.1127199 42.2227107,92.9989519 43.0804521,92.1412105 L43.0804521,92.1412105 L51.6197846,83.6018781 C52.6667759,82.5548867 54.0868009,81.9666931 55.5674703,81.9666931 L55.5674703,81.9666931 Z"></path>
        </g>
        <path d="M73.0431453,103.790642 L246.956854,103.790642 C256.180809,103.790642 263.798731,110.995152 264.31286,120.204767 C264.895193,130.636115 265.18636,141.067463 265.18636,151.49881 C265.18636,161.930158 264.895193,172.361506 264.31286,182.792853 C263.798731,192.002468 256.18081,199.206979 246.956855,199.206979 L73.0431458,199.206979 C63.8191909,199.206979 56.2012692,192.002469 55.6871396,182.792854 C55.1048065,172.361506 54.81364,161.930158 54.81364,151.49881 C54.81364,141.067463 55.1048065,130.636115 55.6871396,120.204768 C56.2012687,110.995153 63.8191905,103.790642 73.0431453,103.790642 Z" id="Display" fill="#171811" opacity="0.400000006"></path>
        <path d="M247.168914,107.089611 C254.947325,107.089611 261.252974,113.39526 261.252974,121.173672 L261.252974,132.339413 C261.252974,134.581838 259.435129,136.399683 257.192704,136.399683 L217.097542,136.399683 C214.855117,136.399683 213.037272,134.581838 213.037272,132.339413 L213.037272,111.149881 C213.037272,108.907456 214.855117,107.089611 217.097542,107.089611 L247.168914,107.089611 Z" id="Combined-Shape" fill="#A7A398"></path>
        <path d="M103.156225,107.089611 C110.934637,107.089611 117.240285,113.39526 117.240285,121.173672 L117.240285,132.339413 C117.240285,134.581838 115.422441,136.399683 113.180016,136.399683 L62.8072958,136.399683 C60.5648708,136.399683 58.7470262,134.581838 58.7470262,132.339413 L58.7470262,111.149881 C58.7470262,108.907456 60.5648708,107.089611 62.8072958,107.089611 L103.156225,107.089611 Z" id="Combined-Shape-Copy" fill="#A7A398" transform="translate(87.993656, 121.744647) scale(-1, 1) translate(-87.993656, -121.744647) "></path>
        <rect id="Rectangle" fill="#A7A398" x="170.785091" y="107.089611" width="39.5876289" height="29.3100714" rx="4.06026963"></rect>
        <rect id="Rectangle-Copy" fill="#A7A398" x="119.904837" y="107.089611" width="48.2157018" height="29.3100714" rx="4.06026963"></rect>
        <path d="M68.21103,139.698652 L251.788972,139.698652 C258.389227,139.698654 263.887231,144.758791 264.433742,151.336381 C264.935487,157.375192 265.18636,163.414004 265.18636,169.452815 C265.18636,173.933027 265.048275,178.41324 264.772104,182.893452 C264.206986,192.061117 256.607072,199.206979 247.422006,199.206979 L72.5779927,199.206979 C63.3929261,199.206978 55.7930125,192.061115 55.2278961,182.89345 C54.9517253,178.413238 54.81364,173.933027 54.81364,169.452815 C54.81364,163.414004 55.0645128,157.375192 55.5662584,151.336381 C56.1127692,144.75879 61.610774,139.698652 68.21103,139.698652 Z" id="Digit-display" fill="#D1CEC7"></path>
        <path d="M240.531826,277.620917 C240.742092,277.620848 240.912545,277.791302 240.912545,278.001568 C240.912545,278.194758 240.767851,278.357323 240.575963,278.37972 C222.276781,280.515566 202.922831,281.610292 182.514113,281.663898 L176.321968,281.669474 C175.964155,281.670286 175.605086,281.671042 175.244754,281.671745 L173.067523,281.675369 L170.859554,281.677925 L168.620445,281.679598 L166.349796,281.680576 L156.423783,281.681096 L152.922649,281.680328 L149.495186,281.678245 L147.25044,281.675801 L145.037389,281.672285 C144.671165,281.671599 144.306245,281.67086 143.942619,281.670064 L137.716057,281.664574 C117.212349,281.612187 97.7696749,280.515161 79.3880352,278.373496 C79.1833153,278.343438 79.0361821,278.157498 79.0601174,277.952065 C79.0821123,277.763285 79.2420304,277.620917 79.4320872,277.620917 L240.531826,277.620917 Z M259.264761,272.038065 C259.839586,272.038065 260.305573,272.504053 260.305573,273.078877 C260.305573,273.528859 260.016399,273.927885 259.588778,274.067969 L255.317005,275.467362 C254.041946,275.885059 252.708705,276.097874 251.366973,276.097874 L172.191998,276.097874 C171.070913,276.097874 170.162094,275.189055 170.162094,274.067969 C170.162094,272.946884 171.070913,272.038065 172.191998,272.038065 L259.264761,272.038065 Z M147.772475,272.038065 C148.89356,272.038065 149.802379,272.946884 149.802379,274.067969 C149.802379,275.189055 148.89356,276.097874 147.772475,276.097874 L68.5975125,276.097874 C67.2557823,276.097874 65.9225435,275.88506 64.6474867,275.467364 L60.3757005,274.067969 C59.82944,273.88902 59.5316756,273.301121 59.7106251,272.754861 C59.8507095,272.327239 60.2497355,272.038065 60.6997172,272.038065 L147.772475,272.038065 Z M272.375769,266.457505 C272.975509,266.457505 273.461694,266.94369 273.461694,267.543429 C273.461694,267.933327 273.252667,268.293298 272.914039,268.486562 L272.282183,268.847178 C270.366404,269.940562 268.198677,270.515618 265.992843,270.515618 L54.0071343,270.515618 C51.8013089,270.515618 49.6335889,269.940566 47.7178143,268.847189 L47.0859361,268.486562 C46.5650583,268.189285 46.3837941,267.526039 46.6810711,267.005161 C46.8743345,266.666532 47.2343059,266.457505 47.6242037,266.457505 L272.375769,266.457505 Z M279.835833,260.874544 C280.482727,260.874544 281.007138,261.398955 281.007138,262.045849 C281.007138,262.371908 280.871226,262.683211 280.632098,262.904869 C279.224078,264.210027 277.375039,264.935194 275.455155,264.935195 L44.5449651,264.935253 C42.6250501,264.935253 40.7759816,264.210076 39.367938,262.904899 C38.893507,262.465128 38.8654092,261.724021 39.30518,261.24959 C39.5268417,261.010458 39.8381492,260.874544 40.1642135,260.874544 L279.835833,260.874544 Z M284.95702,255.291193 C285.642055,255.291193 286.197386,255.846524 286.197386,256.531559 C286.197386,256.819854 286.096961,257.099146 285.913373,257.321429 C284.851459,258.607166 283.270968,259.351665 281.6034,259.351665 L38.3965997,259.351665 C36.7290323,259.351665 35.1485409,258.607166 34.0866267,257.321429 C33.6503934,256.79325 33.7249304,256.011439 34.2531098,255.575205 C34.4753929,255.391618 34.7546845,255.291193 35.0429799,255.291193 L284.95702,255.291193 Z M289.026795,249.707653 C289.744803,249.707653 290.326863,250.289713 290.326863,251.007721 C290.326863,251.268325 290.248542,251.522915 290.102063,251.738457 C289.238766,253.008787 287.802497,253.769261 286.266587,253.769261 L33.7334132,253.769261 C32.1975034,253.769261 30.7612338,253.008787 29.8979368,251.738457 C29.4943624,251.144603 29.6486146,250.336027 30.2424688,249.932453 C30.458011,249.785974 30.7126007,249.707653 30.973205,249.707653 L289.026795,249.707653 Z" id="Combined-Shape" fill="#5B5958"></path>
        <path d="M152.987153,276.192863 C153.58452,276.192863 153.841332,276.103537 154.036733,275.829976 C154.165139,275.645741 154.181887,275.534084 154.18747,274.98138 L154.18747,272.441174 L153.327708,272.441174 L153.327708,274.886471 C153.322125,275.221443 153.316542,275.243775 153.266297,275.333101 C153.210468,275.422427 153.115559,275.455924 152.908993,275.455924 C152.691261,275.455924 152.596352,275.42801 152.551689,275.361015 C152.49586,275.27981 152.486171,275.235516 152.484871,274.850629 L152.484695,274.65199 L151.680761,274.65199 C151.675178,274.808311 151.675178,274.836225 151.675178,274.908803 C151.675178,275.668073 151.758921,275.902554 152.088311,276.07004 C152.266963,276.164948 152.490278,276.192863 152.987153,276.192863 Z M155.175638,276.164948 L155.382205,275.489421 L156.8505,275.489421 L157.062649,276.164948 L157.944742,276.164948 L156.750008,272.441174 L155.460365,272.441174 L154.282379,276.164948 L155.175638,276.164948 Z M156.671848,274.858557 L155.572022,274.858557 L156.119144,273.088787 L156.671848,274.858557 Z M158.960825,276.164948 L158.960825,275.087454 L159.669849,275.087454 C160.110896,275.076289 160.228136,275.076289 160.261634,275.070706 C160.484948,275.065123 160.691515,274.986963 160.853418,274.852974 C161.07115,274.674322 161.166059,274.356098 161.166059,273.792228 C161.166059,273.317684 161.121396,273.077621 160.987407,272.859889 C160.831086,272.614243 160.540777,272.463505 160.183473,272.446757 L160.149708,272.445244 L160.149708,272.445244 L160.089815,272.443089 C160.069136,272.442541 160.046135,272.442151 160.015987,272.441872 L158.101063,272.441174 L158.101063,276.164948 L158.960825,276.164948 Z M159.675432,274.344933 L158.960825,274.344933 L158.960825,273.150198 L159.714512,273.150198 C159.954576,273.150198 159.993656,273.155781 160.082982,273.189278 C160.244885,273.256273 160.289548,273.384679 160.289548,273.764314 C160.289548,274.272355 160.211388,274.344933 159.675432,274.344933 Z M161.863918,276.164948 L162.070484,275.489421 L163.538779,275.489421 L163.750928,276.164948 L164.633021,276.164948 L163.438287,272.441174 L162.148644,272.441174 L160.970658,276.164948 L161.863918,276.164948 Z M163.360127,274.858557 L162.260301,274.858557 L162.807423,273.088787 L163.360127,274.858557 Z M165.632355,276.164948 L165.632355,274.361681 C165.632355,274.082538 165.62119,273.691737 165.598858,273.178113 L165.632355,273.178113 L165.749596,273.474005 C165.956162,274.015543 166.006408,274.138366 166.106899,274.361681 L166.927581,276.164948 L168.379128,276.164948 L168.379128,272.441174 L167.524948,272.441174 L167.524948,274.250024 C167.524948,274.646408 167.524948,274.696653 167.54728,275.115369 L167.558446,275.405678 L167.524948,275.405678 L167.396542,275.09862 C167.189976,274.579413 167.17881,274.551499 167.005741,274.166281 L166.229722,272.441174 L164.789342,272.441174 L164.789342,276.164948 L165.632355,276.164948 Z" id="JAPAN" fill="#BA9D5A" fill-rule="nonzero"></path>
        <path d="M57.1324346,244.607454 L57.1324346,239.296114 C57.1324346,238.697859 57.117843,238.391435 57.0594766,237.165741 L57.0157018,236.465345 L57.0740682,236.465345 L57.2929421,237.136558 C57.7015067,238.391435 57.8036479,238.697859 57.9933386,239.16479 L60.1528945,244.607454 L61.8309278,244.607454 L63.9758921,239.121015 C64.1363997,238.697859 64.2385408,238.362252 64.6471055,237.092784 L64.8659794,236.42157 L64.9243458,236.42157 L64.8951626,237.136558 C64.8601427,237.898239 64.8408818,238.271201 64.8310763,238.598986 L64.8258709,238.814587 C64.8238994,238.922812 64.8228229,239.034499 64.8224078,239.162373 L64.8222046,244.607454 L66.6607454,244.607454 L66.6607454,234.874861 L63.5965107,234.874861 L61.8747026,239.398255 C61.7141951,239.850595 61.5974623,240.186201 61.2180809,241.411895 L60.999207,242.083109 L60.9408406,242.083109 L60.7219667,241.397304 C60.3134021,240.157018 60.2112609,239.836003 60.0361618,239.383664 L58.2997621,234.874861 L55.2938937,234.874861 L55.2938937,244.607454 L57.1324346,244.607454 Z M73.3957177,244.695004 C74.5192704,244.695004 75.2780333,244.636638 75.6574148,244.519905 C76.2118953,244.359397 76.6350515,244.067565 76.9268834,243.688184 C77.2916733,243.206661 77.4375892,242.55004 77.4375892,241.353529 L77.4375892,234.874861 L75.5698652,234.874861 L75.5698652,241.382712 C75.5698652,242.885646 75.3072165,243.089929 73.4103093,243.089929 C71.5134021,243.089929 71.2215702,242.871055 71.2215702,241.45567 L71.2215702,234.874861 L69.3538462,234.874861 L69.3538462,241.45567 C69.3538462,243.221253 69.6894528,243.921649 70.7400476,244.373989 C71.3091197,244.622046 71.9657415,244.695004 73.3957177,244.695004 Z M86.5655829,244.607454 L86.5655829,242.973196 L82.0275971,242.973196 L82.0275971,234.874861 L80.1598731,234.874861 L80.1598731,244.607454 L86.5655829,244.607454 Z M91.4620143,244.607454 L91.4620143,236.50912 L94.3365583,236.50912 L94.3365583,234.874861 L86.7781126,234.874861 L86.7781126,236.50912 L89.5942902,236.50912 L89.5942902,244.607454 L91.4620143,244.607454 Z M98.2115781,244.607454 L98.2115781,234.874861 L96.3438541,234.874861 L96.3438541,244.607454 L98.2115781,244.607454 Z M106.676606,244.607454 L107.274861,242.73973 L111.47724,242.73973 L112.104679,244.607454 L114.016178,244.607454 L110.718477,234.874861 L107.960666,234.874861 L104.721332,244.607454 L106.676606,244.607454 Z M111.054084,241.353529 L107.712609,241.353529 L109.376051,236.304837 L111.054084,241.353529 Z M122.283267,244.607454 L122.283267,242.973196 L117.745282,242.973196 L117.745282,234.874861 L115.877557,234.874861 L115.877557,244.607454 L122.283267,244.607454 Z M125.793497,244.607454 L126.391753,242.73973 L130.594132,242.73973 L131.22157,244.607454 L133.133069,244.607454 L129.835369,234.874861 L127.077557,234.874861 L123.838224,244.607454 L125.793497,244.607454 Z M130.170975,241.353529 L126.8295,241.353529 L128.492942,236.304837 L130.170975,241.353529 Z M136.862173,244.607454 L136.862173,241.368121 L139.48866,241.368121 C140.524663,241.338937 140.977002,241.791277 140.947819,242.856463 L140.947819,244.607454 L142.830135,244.607454 L142.830135,242.491673 C142.844726,241.309754 142.290246,240.653132 141.181285,240.594766 L141.181285,240.521808 C142.596669,240.244568 142.932276,239.71927 142.932276,237.778588 C142.932276,235.604441 142.129738,234.874861 139.780492,234.874861 L134.994449,234.874861 L134.994449,244.607454 L136.862173,244.607454 Z M139.474068,239.777637 L136.862173,239.777637 L136.862173,236.479937 L139.605393,236.479937 C140.801903,236.479937 141.035369,236.742585 141.035369,238.114195 C141.035369,238.945916 140.962411,239.237748 140.655987,239.485805 C140.437113,239.690087 140.057732,239.777637 139.474068,239.777637 Z M147.142902,244.607454 L147.142055,239.069506 C147.138233,238.599803 147.120529,238.22801 147.069944,237.165741 L147.02617,236.465345 L147.084536,236.465345 L147.30341,237.136558 C147.711975,238.391435 147.814116,238.697859 148.003807,239.16479 L150.163362,244.607454 L151.841396,244.607454 L153.98636,239.121015 C154.146868,238.697859 154.249009,238.362252 154.657573,237.092784 L154.876447,236.42157 L154.934814,236.42157 L154.90563,237.136558 C154.851155,238.321396 154.834813,238.565627 154.832876,239.162373 L154.832672,244.607454 L156.671213,244.607454 L156.671213,234.874861 L153.606979,234.874861 L151.88517,239.398255 C151.724663,239.850595 151.60793,240.186201 151.228549,241.411895 L151.009675,242.083109 L150.951308,242.083109 L150.732435,241.397304 C150.32387,240.157018 150.221729,239.836003 150.04663,239.383664 L148.31023,234.874861 L145.304362,234.874861 L145.304362,244.607454 L147.142902,244.607454 Z" id="MULTIALARM" fill="#BA9D5A" fill-rule="nonzero"></path>
        <g id="Group-2" transform="translate(163.806503, 234.861221)" fill="#BA9D5A">
            <rect id="Rectangle" x="1.01506741" y="0.888183981" width="2.15701824" height="7.73988898"></rect>
            <rect id="Rectangle-Copy-3" x="3.80650278" y="0.888183981" width="2.15701824" height="7.73988898"></rect>
            <rect id="Rectangle-Copy-6" x="6.59793814" y="0.888183981" width="2.15701824" height="7.73988898"></rect>
            <rect id="Rectangle" x="0" y="0" width="9.77002379" height="1.14195083"></rect>
            <rect id="Rectangle-Copy-7" x="0" y="8.37430611" width="9.77002379" height="1.14195083"></rect>
        </g>
        <path d="M30.7443616,68.7922284 L30.7443616,65.6658208 C30.7443616,65.600222 30.7441872,65.5375892 30.7437292,65.4757197 L30.7413957,65.2901983 C30.7345916,64.9149247 30.7136558,64.4878351 30.6550357,63.5331642 L30.6215385,62.8297224 L30.6773672,62.8297224 L30.8895163,63.5108327 C31.1658684,64.3629183 31.2944489,64.7505789 31.4131339,65.0910713 L31.4777186,65.2746246 C31.5103489,65.3665702 31.5441079,65.4606503 31.5817922,65.5653291 L32.7876923,68.7922284 L34.2950674,68.7922284 L35.4898017,65.5541634 C35.6684536,65.051705 35.780111,64.7167328 36.1597462,63.4996669 L36.3718953,62.807391 L36.427724,62.807391 L36.3942268,63.5219984 C36.3356067,64.6455511 36.3197304,64.982617 36.3166772,65.4532573 L36.3160666,68.7922284 L38.0132593,68.7922284 L38.0132593,61.3446788 L35.2329897,61.3446788 L34.2504044,64.1361142 C34.0940841,64.5715781 34.0159239,64.8395559 33.7256146,65.8556384 L33.5581285,66.4362569 L33.491134,66.4362569 C33.1524399,65.2899075 33.0096287,64.825771 32.8840792,64.4449411 L32.8308083,64.2850826 C32.8130565,64.2323326 32.7951361,64.1795365 32.7765266,64.1249485 L31.7716098,61.3446788 L29.0471689,61.3446788 L29.0471689,68.7922284 L30.7443616,68.7922284 Z M42.6939558,68.8480571 C43.375066,68.8480571 43.9780161,68.8033941 44.3018226,68.7363997 C44.9717671,68.591245 45.4742254,68.2674385 45.7645347,67.7984774 C46.0883412,67.2513561 46.1665014,66.7488977 46.1665014,65.0628707 C46.1665014,64.0356225 46.1441699,63.5443299 46.0771755,63.2093577 C45.9320208,62.371927 45.5300541,61.8471372 44.8377782,61.5456622 C44.4023142,61.3558446 43.9110216,61.2888501 42.8614419,61.2888501 C42.1803317,61.2888501 41.5550502,61.3335131 41.2535751,61.4005075 C40.6506251,61.5233307 40.1258353,61.8471372 39.835526,62.2714354 C39.4670565,62.7962252 39.3777306,63.4326725 39.3777306,65.3755115 C39.3777306,66.1794449 39.4000621,66.5590801 39.4558908,66.8940523 C39.5898797,67.6644885 39.8913547,68.1446154 40.483139,68.4795876 C40.9521001,68.7475654 41.5215529,68.8480571 42.6939558,68.8480571 Z M42.8837734,67.3741792 C41.9235196,67.3741792 41.6108789,67.3183505 41.4210613,67.0950357 C41.1865807,66.8158921 41.130752,66.4920856 41.130752,65.2973513 C41.130752,63.5554956 41.175415,63.2875178 41.47689,63.01954 C41.7002048,62.8185567 41.9570169,62.762728 42.7386188,62.762728 C43.6318781,62.762728 43.9221874,62.8185567 44.112005,63.0418715 C44.3665839,63.3388803 44.4095441,63.5351182 44.4132036,64.8272387 L44.41348,65.0405393 C44.41348,66.1794449 44.3911485,66.4474227 44.2683253,66.7823949 C44.0896735,67.2513561 43.8105299,67.3741792 42.8837734,67.3741792 Z M51.2938275,68.7922284 C52.7118767,68.7922284 53.4711471,68.4237589 53.8842795,67.5528311 C54.1187601,67.039207 54.1745888,66.4139255 54.1745888,64.2812688 C54.1745888,62.2044409 53.3371582,61.3446788 51.3273248,61.3446788 L47.5421384,61.3446788 L47.5421384,68.7922284 L51.2938275,68.7922284 Z M51.0705127,67.3183505 L49.2616626,67.3183505 L49.2616626,62.8408882 L51.1151757,62.8408882 C51.6957942,62.8408882 51.9972692,62.9525456 52.1759211,63.2316891 C52.3657387,63.5108327 52.4215674,63.9351308 52.4215674,65.007042 C52.4215674,66.1571134 52.3657387,66.5702458 52.1647554,66.8828866 C51.963772,67.1955274 51.662297,67.3183505 51.0705127,67.3183505 Z M60.7869586,68.7922284 L60.7869586,67.3741792 L57.2139213,67.3741792 L57.2139213,65.6099921 L60.5301465,65.6099921 L60.5301465,64.3929262 L57.2139213,64.3929262 L57.2139213,62.762728 L60.7422956,62.762728 L60.7422956,61.3446788 L55.4943971,61.3446788 L55.4943971,68.7922284 L60.7869586,68.7922284 Z" id="MODE" fill="#CCCBCC" fill-rule="nonzero"></path>
        <path d="M244.940841,58.260904 L244.940841,56.7758604 L241.646947,56.7758604 L241.646947,50.8133545 L239.927423,50.8133545 L239.927423,58.260904 L244.940841,58.260904 Z M247.734527,58.260904 L247.734527,50.8133545 L246.015003,50.8133545 L246.015003,58.260904 L247.734527,58.260904 Z M252.44872,58.3167328 C254.201742,58.3167328 254.815858,58.1827439 255.273653,57.702617 C255.67562,57.2671531 255.798443,56.7981919 255.798443,55.6481205 C255.798443,55.1233307 255.787277,54.6320381 255.776111,54.1742427 L252.44872,54.1742427 L252.44872,55.3913085 L254.067753,55.3913085 C254.078919,55.5029659 254.090084,55.6146233 254.090084,55.6369548 C254.090084,56.664203 253.810941,56.8763521 252.482218,56.8763521 C251.577793,56.8763521 251.175826,56.7423632 251.019506,56.3738937 C250.885517,56.0724187 250.885517,56.061253 250.863185,54.419889 C250.874351,53.0576685 250.885517,53.0018398 251.030671,52.7115305 C251.220489,52.3207296 251.600124,52.1979064 252.571544,52.1979064 C253.777444,52.1979064 253.967261,52.3207296 254.034256,53.0911657 L255.776111,53.0911657 C255.742614,51.9745916 255.530465,51.4163045 255.005675,51.1148295 C254.503217,50.8245202 254.067753,50.7575258 252.73903,50.7575258 C251.700616,50.7575258 251.16466,50.8021887 250.796191,50.9026804 C250.048086,51.1148295 249.534462,51.5837906 249.322313,52.2760666 C249.154827,52.7896907 249.110164,53.4038065 249.110164,55.2349881 C249.110164,56.8986836 249.478633,57.6691197 250.450053,58.0822522 C250.885517,58.260904 251.343312,58.3167328 252.44872,58.3167328 Z M258.82661,58.260904 L258.82661,55.2126566 L261.84136,55.2126566 L261.84136,58.260904 L263.560884,58.260904 L263.560884,50.8133545 L261.84136,50.8133545 L261.84136,53.7387787 L258.82661,53.7387787 L258.82661,50.8133545 L257.107085,50.8133545 L257.107085,58.260904 L258.82661,58.260904 Z M268.375569,58.260904 L268.375569,52.2983981 L270.485895,52.2983981 L270.485895,50.8133545 L264.646212,50.8133545 L264.646212,52.2983981 L266.656045,52.2983981 L266.656045,58.260904 L268.375569,58.260904 Z" id="LIGHT" fill="#CCCBCC" fill-rule="nonzero"></path>
        <path d="M224.917621,68.8480571 C226.41383,68.8480571 227.005615,68.7252339 227.474576,68.28977 C227.831879,67.9547978 227.965868,67.4523394 227.965868,66.4920856 C227.965868,65.5095004 227.798382,65.0740365 227.318255,64.7613957 C226.93862,64.5157494 226.525488,64.4264235 225.330753,64.359429 C224.124853,64.2812688 224.124853,64.2812688 223.968533,64.2477716 C223.633561,64.1584457 223.499572,63.9462966 223.499572,63.4885012 C223.499572,62.7738937 223.745218,62.6175734 224.906455,62.6175734 C225.956035,62.6175734 226.123521,62.7515623 226.123521,63.6001586 L227.764885,63.6001586 C227.776051,63.4773354 227.776051,63.3433466 227.776051,63.2986836 C227.776051,62.6622363 227.642062,62.2156067 227.362918,61.8806344 C226.983283,61.4340048 226.369167,61.2888501 224.850626,61.2888501 C223.466075,61.2888501 222.863125,61.4005075 222.382998,61.7354798 C221.969865,62.0369548 221.780048,62.5840761 221.780048,63.4773354 C221.780048,64.5380809 222.014528,65.0852022 222.595147,65.3755115 C222.974782,65.5653291 223.32092,65.6211578 224.537986,65.699318 C225.88904,65.7886439 225.88904,65.7886439 226.067692,65.9337986 C226.212847,66.0342902 226.268676,66.2352736 226.268676,66.5590801 C226.268676,66.949881 226.190515,67.1843616 226.034195,67.3071848 C225.844377,67.4523394 225.676891,67.4858366 224.995781,67.4858366 C223.979699,67.4858366 223.823378,67.4635052 223.644726,67.3183505 C223.47724,67.1620301 223.410246,66.9387153 223.410246,66.5367486 L223.410246,66.4027597 L221.768882,66.4027597 C221.768882,67.3295163 221.847042,67.7203172 222.081523,68.0776209 C222.449992,68.6694052 223.097605,68.8480571 224.917621,68.8480571 Z M232.523742,68.7922284 L232.523742,62.8297224 L234.634067,62.8297224 L234.634067,61.3446788 L228.794384,61.3446788 L228.794384,62.8297224 L230.804217,62.8297224 L230.804217,68.7922284 L232.523742,68.7922284 Z M236.233019,68.7922284 L236.646151,67.4411737 L239.582741,67.4411737 L240.007039,68.7922284 L241.771226,68.7922284 L239.381758,61.3446788 L236.802471,61.3446788 L234.4465,68.7922284 L236.233019,68.7922284 Z M239.225437,66.1794449 L237.025786,66.1794449 L238.120029,62.6399048 L239.225437,66.1794449 Z M244.442089,68.7922284 L244.442089,66.5702458 L246.183945,66.5702458 C246.819648,66.5494031 247.134373,66.8398116 247.155355,67.4868622 L247.155365,68.7922284 L248.89722,68.7922284 L248.89722,67.3071848 C248.908386,66.391594 248.472922,65.9003013 247.590829,65.8444726 L247.590829,65.7886439 C248.729734,65.5318319 248.964215,65.1521967 248.964215,63.6001586 C248.964215,62.4947502 248.707403,61.9252974 248.048624,61.6014909 C247.702486,61.422839 247.200028,61.3446788 246.429591,61.3446788 L242.722565,61.3446788 L242.722565,68.7922284 L244.442089,68.7922284 Z M246.228608,65.1075337 L244.442089,65.1075337 L244.442089,62.8185567 L246.228608,62.8185567 C247.054873,62.8185567 247.211193,62.9972086 247.211193,63.8904679 C247.211193,64.8842189 247.032541,65.1075337 246.228608,65.1075337 Z M253.656077,68.7922284 L253.656077,62.8297224 L255.766402,62.8297224 L255.766402,61.3446788 L249.926719,61.3446788 L249.926719,62.8297224 L251.936553,62.8297224 L251.936553,68.7922284 L253.656077,68.7922284 Z" id="START" fill="#CCCBCC" fill-rule="nonzero"></path>
        <path d="M264.8859,68.8480571 C266.382109,68.8480571 266.973894,68.7252339 267.442855,68.28977 C267.800159,67.9547978 267.934148,67.4523394 267.934148,66.4920856 C267.934148,65.5095004 267.766661,65.0740365 267.286534,64.7613957 C266.906899,64.5157494 266.493767,64.4264235 265.299033,64.359429 C264.093132,64.2812688 264.093132,64.2812688 263.936812,64.2477716 C263.60184,64.1584457 263.467851,63.9462966 263.467851,63.4885012 C263.467851,62.7738937 263.713497,62.6175734 264.874734,62.6175734 C265.924314,62.6175734 266.0918,62.7515623 266.0918,63.6001586 L267.733164,63.6001586 C267.74433,63.4773354 267.74433,63.3433466 267.74433,63.2986836 C267.74433,62.6622363 267.610341,62.2156067 267.331197,61.8806344 C266.951562,61.4340048 266.337446,61.2888501 264.818906,61.2888501 C263.434354,61.2888501 262.831404,61.4005075 262.351277,61.7354798 C261.938144,62.0369548 261.748327,62.5840761 261.748327,63.4773354 C261.748327,64.5380809 261.982807,65.0852022 262.563426,65.3755115 C262.943061,65.5653291 263.289199,65.6211578 264.506265,65.699318 C265.85732,65.7886439 265.85732,65.7886439 266.035971,65.9337986 C266.181126,66.0342902 266.236955,66.2352736 266.236955,66.5590801 C266.236955,66.949881 266.158795,67.1843616 266.002474,67.3071848 C265.812657,67.4523394 265.64517,67.4858366 264.96406,67.4858366 C263.947978,67.4858366 263.791657,67.4635052 263.613006,67.3183505 C263.445519,67.1620301 263.378525,66.9387153 263.378525,66.5367486 L263.378525,66.4027597 L261.737161,66.4027597 C261.737161,67.3295163 261.815321,67.7203172 262.049802,68.0776209 C262.418271,68.6694052 263.065884,68.8480571 264.8859,68.8480571 Z M272.492021,68.7922284 L272.492021,62.8297224 L274.602346,62.8297224 L274.602346,61.3446788 L268.762663,61.3446788 L268.762663,62.8297224 L270.772497,62.8297224 L270.772497,68.7922284 L272.492021,68.7922284 Z M278.79175,68.8480571 C279.47286,68.8480571 280.07581,68.8033941 280.399617,68.7363997 C281.069561,68.591245 281.572019,68.2674385 281.862329,67.7984774 C282.186135,67.2513561 282.264295,66.7488977 282.264295,65.0628707 C282.264295,64.0356225 282.241964,63.5443299 282.174969,63.2093577 C282.029815,62.371927 281.627848,61.8471372 280.935572,61.5456622 C280.500108,61.3558446 280.008816,61.2888501 278.959236,61.2888501 C278.278126,61.2888501 277.652844,61.3335131 277.351369,61.4005075 C276.748419,61.5233307 276.223629,61.8471372 275.93332,62.2714354 C275.564851,62.7962252 275.475525,63.4326725 275.475525,65.3755115 C275.475525,66.1794449 275.497856,66.5590801 275.553685,66.8940523 C275.687674,67.6644885 275.989149,68.1446154 276.580933,68.4795876 C277.049894,68.7475654 277.619347,68.8480571 278.79175,68.8480571 Z M278.981567,67.3741792 C278.021314,67.3741792 277.708673,67.3183505 277.518855,67.0950357 C277.284375,66.8158921 277.228546,66.4920856 277.228546,65.2973513 C277.228546,63.5554956 277.273209,63.2875178 277.574684,63.01954 C277.797999,62.8185567 278.054811,62.762728 278.836413,62.762728 C279.729672,62.762728 280.019981,62.8185567 280.209799,63.0418715 C280.464378,63.3388803 280.507338,63.5351182 280.510998,64.8272387 L280.511274,65.0405393 C280.511274,66.1794449 280.488943,66.4474227 280.366119,66.7823949 C280.187467,67.2513561 279.908324,67.3741792 278.981567,67.3741792 Z M285.314794,68.7922284 L285.314794,66.6372403 L286.732843,66.6372403 C287.614936,66.6149088 287.849417,66.6149088 287.916411,66.6037431 C288.363041,66.5925773 288.776173,66.4362569 289.09998,66.1682791 C289.535444,65.8109754 289.725262,65.1745282 289.725262,64.0467883 C289.725262,63.0977002 289.635936,62.6175734 289.367958,62.1821094 C289.055317,61.6908168 288.474698,61.3893418 287.760091,61.3558446 C287.729385,61.3544489 287.702518,61.3532276 287.677133,61.352159 L287.603073,61.3493894 C287.553525,61.3478192 287.500488,61.3467724 287.425119,61.3460745 L287.292962,61.3452676 C287.267359,61.3451695 287.239772,61.3450877 287.209906,61.3450196 L283.595269,61.3446788 L283.595269,68.7922284 L285.314794,68.7922284 Z M286.744009,65.1521967 L285.314794,65.1521967 L285.314794,62.762728 L286.822169,62.762728 C287.302296,62.762728 287.380456,62.7738937 287.559108,62.8408882 C287.882914,62.9748771 287.97224,63.2316891 287.97224,63.9909596 C287.97224,65.007042 287.81592,65.1521967 286.744009,65.1521967 Z" id="STOP" fill="#CCCBCC" fill-rule="nonzero"></path>
        <polygon id="/" fill="#CCCBCC" fill-rule="nonzero" points="256.798224 69.4924663 260.538747 62.121935 259.578113 62.121935 255.84609 69.4924663"></polygon>
        <g id="Group-3-Copy" transform="translate(220.665345, 229.532117)" fill="#CCCBCC" fill-rule="nonzero">
            <path d="M3.24412924,7 L3.24412924,4.77801745 L4.98598491,4.77801745 C5.62168779,4.75717473 5.93641283,5.04758326 5.9573945,5.69463384 L5.95740442,7 L7.69926009,7 L7.69926009,5.51495638 C7.71042583,4.59936558 7.27496192,4.10807296 6.39286834,4.05224425 L6.39286834,3.99641554 C7.53177397,3.73960349 7.76625454,3.35996828 7.76625454,1.80793021 C7.76625454,0.702521808 7.50944249,0.133068993 6.85066374,-0.19073751 C6.50452575,-0.369389374 6.00206739,-0.447549564 5.23163123,-0.447549564 L1.52460506,-0.447549564 L1.52460506,7 L3.24412924,7 Z M5.03064788,3.31530531 L3.24412924,3.31530531 L3.24412924,1.02632831 L5.03064788,1.02632831 C5.85691275,1.02632831 6.01323313,1.20498017 6.01323313,2.09823949 C6.01323313,3.09199048 5.83458126,3.31530531 5.03064788,3.31530531 Z M14.4232873,7 L14.4232873,5.58195083 L10.85025,5.58195083 L10.85025,3.81776368 L14.1664752,3.81776368 L14.1664752,2.60069786 L10.85025,2.60069786 L10.85025,0.970499603 L14.3786243,0.970499603 L14.3786243,-0.447549564 L9.1307258,-0.447549564 L9.1307258,7 L14.4232873,7 Z M17.1276475,7 L17.5407799,5.64894528 L20.4773699,5.64894528 L20.9016681,7 L22.6658553,7 L20.2763866,-0.447549564 L17.6971003,-0.447549564 L15.3411289,7 L17.1276475,7 Z M20.1200662,4.38721649 L17.9204151,4.38721649 L19.0146578,0.847676447 L20.1200662,4.38721649 Z M27.3688832,7 C28.7869324,7 29.5462028,6.63153053 29.9593352,5.7606027 C30.1938158,5.24697859 30.2496445,4.62169707 30.2496445,2.48904044 C30.2496445,0.41221253 29.4122139,-0.447549564 27.4023804,-0.447549564 L23.6171941,-0.447549564 L23.6171941,7 L27.3688832,7 Z M27.1455684,5.52612213 L25.3367183,5.52612213 L25.3367183,1.04865979 L27.1902314,1.04865979 C27.7708499,1.04865979 28.0723249,1.16031721 28.2509768,1.43946075 C28.4407944,1.71860428 28.4966231,2.14290246 28.4966231,3.21481364 C28.4966231,4.36488501 28.4407944,4.77801745 28.2398111,5.09065821 C28.0388277,5.40329897 27.7373527,5.52612213 27.1455684,5.52612213 Z" id="READ"></path>
            <path d="M38.9065186,7.05582871 C40.402728,7.05582871 40.9945123,6.93300555 41.4634734,6.49754163 C41.8207772,6.16256939 41.9547661,5.66011102 41.9547661,4.69985726 C41.9547661,3.71727201 41.7872799,3.28180809 41.3071531,2.96916733 C40.9275178,2.72352102 40.5143854,2.63419508 39.3196511,2.56720063 C38.113751,2.48904044 38.113751,2.48904044 37.9574306,2.45554322 C37.6224584,2.36621729 37.4884695,2.1540682 37.4884695,1.6962728 C37.4884695,0.981665345 37.7341158,0.825344964 38.8953529,0.825344964 C39.9449326,0.825344964 40.1124187,0.959333862 40.1124187,1.80793021 L41.7537827,1.80793021 C41.7649485,1.68510706 41.7649485,1.55111816 41.7649485,1.50645519 C41.7649485,0.87000793 41.6309596,0.423378271 41.351816,0.088406027 C40.9721808,-0.358223632 40.358065,-0.503378271 38.8395242,-0.503378271 C37.4549722,-0.503378271 36.8520222,-0.391720856 36.3718953,-0.0567486122 C35.9587629,0.244726408 35.7689453,0.79184774 35.7689453,1.68510706 C35.7689453,2.7458525 36.0034259,3.29297383 36.5840444,3.58328311 C36.9636796,3.77310071 37.3098176,3.82892942 38.5268834,3.90708961 C39.8779381,3.99641554 39.8779381,3.99641554 40.05659,4.14157018 C40.2017446,4.24206186 40.2575734,4.4430452 40.2575734,4.7668517 C40.2575734,5.15765266 40.1794132,5.39213323 40.0230928,5.51495638 C39.8332752,5.66011102 39.6657891,5.69360825 38.9846788,5.69360825 C37.9685964,5.69360825 37.812276,5.67127676 37.6336241,5.52612213 C37.466138,5.36980174 37.3991435,5.14648692 37.3991435,4.74452022 L37.3991435,4.61053132 L35.7577795,4.61053132 C35.7577795,5.53728787 35.8359397,5.92808882 36.0704203,6.28539255 C36.4388898,6.87717684 37.0865028,7.05582871 38.9065186,7.05582871 Z M48.5894673,7 L48.5894673,5.58195083 L45.01643,5.58195083 L45.01643,3.81776368 L48.3326552,3.81776368 L48.3326552,2.60069786 L45.01643,2.60069786 L45.01643,0.970499603 L48.5448043,0.970499603 L48.5448043,-0.447549564 L43.2969058,-0.447549564 L43.2969058,7 L48.5894673,7 Z M53.2701638,7 L53.2701638,1.03749405 L55.3804889,1.03749405 L55.3804889,-0.447549564 L49.5408061,-0.447549564 L49.5408061,1.03749405 L51.5506396,1.03749405 L51.5506396,7 L53.2701638,7 Z" id="SET"></path>
            <polygon id="/" points="30.8188422 7.70023791 34.5593656 0.329706582 33.5987312 0.329706582 29.866709 7.70023791"></polygon>
        </g>
        <g id="Group-3-Copy-2" transform="translate(218.000793, 239.809675)" fill="#CCCBCC" fill-rule="nonzero">
            <path d="M6.24955213,7 L6.24955213,5.51495638 L2.95565839,5.51495638 L2.95565839,-0.447549564 L1.2361342,-0.447549564 L1.2361342,7 L6.24955213,7 Z M8.78642624,7 L9.19955867,5.64894528 L12.1361487,5.64894528 L12.5604469,7 L14.324634,7 L11.9351653,-0.447549564 L9.35587905,-0.447549564 L6.9999076,7 L8.78642624,7 Z M11.778845,4.38721649 L9.57919388,4.38721649 L10.6734365,0.847676447 L11.778845,4.38721649 Z M16.995497,7 L16.995497,4.8450119 L18.4135462,4.8450119 C19.2956398,4.82268041 19.5301203,4.82268041 19.5971148,4.81151467 C20.0437444,4.80034893 20.4568769,4.64402855 20.7806834,4.37605075 C21.2161473,4.01874703 21.4059649,3.38229976 21.4059649,2.25455987 C21.4059649,1.30547185 21.316639,0.825344964 21.0486612,0.389881047 C20.7360204,-0.101411578 20.1554019,-0.402886598 19.4407944,-0.436383822 C19.4100886,-0.43777954 19.383221,-0.439000793 19.3578364,-0.440069389 L19.2837762,-0.442839017 C19.2342282,-0.444409199 19.1811909,-0.445455987 19.1058222,-0.446153846 L18.9736651,-0.446960745 C18.9480624,-0.447058882 18.9204752,-0.447140662 18.890609,-0.447208812 L15.2759728,-0.447549564 L15.2759728,7 L16.995497,7 Z M18.4247119,3.35996828 L16.995497,3.35996828 L16.995497,0.970499603 L18.5028721,0.970499603 C18.982999,0.970499603 19.0611592,0.981665345 19.2398111,1.04865979 C19.5636176,1.18264869 19.6529435,1.43946075 19.6529435,2.19873117 C19.6529435,3.21481364 19.4966231,3.35996828 18.4247119,3.35996828 Z" id="LAP"></path>
            <path d="M28.9903251,7 L28.9903251,4.77801745 L30.7321808,4.77801745 C31.3678837,4.75717473 31.6826087,5.04758326 31.7035904,5.69463384 L31.7036003,7 L33.445456,7 L33.445456,5.51495638 C33.4566217,4.59936558 33.0211578,4.10807296 32.1390642,4.05224425 L32.1390642,3.99641554 C33.2779699,3.73960349 33.5124504,3.35996828 33.5124504,1.80793021 C33.5124504,0.702521808 33.2556384,0.133068993 32.5968596,-0.19073751 C32.2507216,-0.369389374 31.7482633,-0.447549564 30.9778271,-0.447549564 L27.270801,-0.447549564 L27.270801,7 L28.9903251,7 Z M30.7768438,3.31530531 L28.9903251,3.31530531 L28.9903251,1.02632831 L30.7768438,1.02632831 C31.6031086,1.02632831 31.759429,1.20498017 31.759429,2.09823949 C31.759429,3.09199048 31.5807772,3.31530531 30.7768438,3.31530531 Z M40.1694832,7 L40.1694832,5.58195083 L36.5964459,5.58195083 L36.5964459,3.81776368 L39.9126711,3.81776368 L39.9126711,2.60069786 L36.5964459,2.60069786 L36.5964459,0.970499603 L40.1248202,0.970499603 L40.1248202,-0.447549564 L34.8769217,-0.447549564 L34.8769217,7 L40.1694832,7 Z M44.4147157,7.05582871 C45.9109251,7.05582871 46.5027094,6.93300555 46.9716705,6.49754163 C47.3289742,6.16256939 47.4629631,5.66011102 47.4629631,4.69985726 C47.4629631,3.71727201 47.295477,3.28180809 46.8153501,2.96916733 C46.4357149,2.72352102 46.0225825,2.63419508 44.8278481,2.56720063 C43.755937,2.49772491 43.6368357,2.49000538 43.5138135,2.46562149 L43.4656277,2.45554322 L43.4656277,2.45554322 C43.1306554,2.36621729 42.9966665,2.1540682 42.9966665,1.6962728 C42.9966665,0.981665345 43.2423129,0.825344964 44.40355,0.825344964 C45.4531297,0.825344964 45.6206158,0.959333862 45.6206158,1.80793021 L47.2619798,1.80793021 C47.2731455,1.68510706 47.2731455,1.55111816 47.2731455,1.50645519 C47.2731455,0.87000793 47.1391566,0.423378271 46.8600131,0.088406027 C46.4803779,-0.358223632 45.8662621,-0.503378271 44.3477213,-0.503378271 C42.9631693,-0.503378271 42.3602193,-0.391720856 41.8800924,-0.0567486122 C41.46696,0.244726408 41.2771424,0.79184774 41.2771424,1.68510706 C41.2771424,2.7458525 41.5116229,3.29297383 42.0922415,3.58328311 C42.4718767,3.77310071 42.8180147,3.82892942 44.0350805,3.90708961 C45.3861352,3.99641554 45.3861352,3.99641554 45.5647871,4.14157018 C45.7099417,4.24206186 45.7657704,4.4430452 45.7657704,4.7668517 C45.7657704,5.15765266 45.6876102,5.39213323 45.5312899,5.51495638 C45.3414723,5.66011102 45.1739861,5.69360825 44.4928759,5.69360825 C43.4767934,5.69360825 43.320473,5.67127676 43.1418212,5.52612213 C42.9743351,5.36980174 42.9073406,5.14648692 42.9073406,4.74452022 L42.9073406,4.61053132 L41.2659766,4.61053132 C41.2659766,5.53728787 41.3441368,5.92808882 41.5786174,6.28539255 C41.9470868,6.87717684 42.5946999,7.05582871 44.4147157,7.05582871 Z M54.0976644,7 L54.0976644,5.58195083 L50.5246271,5.58195083 L50.5246271,3.81776368 L53.8408523,3.81776368 L53.8408523,2.60069786 L50.5246271,2.60069786 L50.5246271,0.970499603 L54.0530014,0.970499603 L54.0530014,-0.447549564 L48.8051029,-0.447549564 L48.8051029,7 L54.0976644,7 Z M58.7783608,7 L58.7783608,1.03749405 L60.888686,1.03749405 L60.888686,-0.447549564 L55.0490032,-0.447549564 L55.0490032,1.03749405 L57.0588367,1.03749405 L57.0588367,7 L58.7783608,7 Z" id="RESET"></path>
            <polygon id="/" points="22.0638858 7.70023791 25.8044092 0.329706582 24.8437748 0.329706582 21.1117526 7.70023791"></polygon>
        </g>
        <path d="M130.399839,56.2093577 C132.232163,56.2093577 132.947331,56.4240103 133.760916,57.2327319 C134.094757,57.6388899 134.451983,57.1627146 134.458152,56.7394477 L134.458152,56.3955433 L135.361546,56.3955433 L135.361546,61.0507605 L134.46346,61.0507605 C134.46346,59.4637971 133.039292,57.2696815 131.191761,57.2696815 C128.446719,57.2696815 127.655658,59.8151777 127.655658,62.9553178 C127.655658,66.0950266 128.288191,68.6409541 131.191761,68.6409541 C133.28232,68.6409541 134.30608,67.1605263 134.497892,65.0722274 L135.595249,65.066189 C135.229845,68.8799044 133.068559,69.9127676 130.399839,69.9127676 C127.26644,69.9127676 124.726408,67.980606 124.726408,62.9553178 C124.726408,58.670603 127.26644,56.2093577 130.399839,56.2093577 Z M142.065623,56.3955433 L142.065623,57.2685313 C141.564073,57.2685313 140.798548,57.5330732 140.798548,58.3793194 L140.798548,58.3793194 L140.798548,67.5574828 C140.798548,68.1657852 141.141715,68.6684147 142.065623,68.6684147 L142.065623,68.6684147 L142.065623,69.5677131 L136.681272,69.5677131 L136.681272,68.6684147 C137.605181,68.6684147 137.94806,68.1657852 137.94806,67.5574828 L137.94806,67.5574828 L137.94806,58.3793194 C137.94806,57.5330732 137.182679,57.2685313 136.681272,57.2685313 L136.681272,57.2685313 L136.681272,56.3955433 L142.065623,56.3955433 Z M160.487706,56.3955433 L160.487706,57.2685313 C159.986156,57.2685313 159.220918,57.5330732 159.220918,58.3793194 L159.220918,58.3793194 L159.220918,67.5574828 C159.220918,68.1657852 159.563941,68.6684147 160.487706,68.6684147 L160.487706,68.6684147 L160.487706,69.5677131 L155.103355,69.5677131 L155.103355,68.6684147 C156.027407,68.6684147 156.37043,68.1657852 156.37043,67.5574828 L156.37043,67.5574828 L156.37043,58.3793194 C156.37043,57.5330732 155.604905,57.2685313 155.103355,57.2685313 L155.103355,57.2685313 L155.103355,56.3955433 L160.487706,56.3955433 Z M187.989059,56.3955433 L192.951195,64.3835561 L192.951195,58.3793194 C192.951195,57.5330732 192.185671,57.2685313 191.68412,57.2685313 L191.68412,57.2685313 L191.68412,56.3955433 L195.273592,56.3955433 L195.273592,57.2685313 C194.772329,57.2685313 194.006804,57.5330732 194.006804,58.3793194 L194.006804,58.3793194 L194.006804,69.5677131 L192.845606,69.5677131 L186.141815,58.7498218 L186.141815,67.5574828 C186.141815,68.1657852 186.484981,68.6684147 187.408603,68.6684147 L187.408603,68.6684147 L187.408603,69.5677131 L183.819131,69.5677131 L183.819131,68.6684147 C184.743183,68.6684147 185.085919,68.1657852 185.085919,67.5574828 L185.085919,67.5574828 L185.085919,58.3793194 C185.085919,57.5330732 184.320681,57.2685313 183.819131,57.2685313 L183.819131,57.2685313 L183.819131,56.3955433 L187.989059,56.3955433 Z M153.889505,56.3955433 L153.889505,60.469056 L152.991993,60.469056 L152.991993,59.5433034 C152.991993,57.2685313 150.748358,57.2951293 150.036202,57.2951293 L150.036202,67.5574828 C150.036202,68.1657852 150.379225,68.6684147 151.30299,68.6684147 L151.30299,69.5677131 L145.919069,69.5677131 L145.919069,68.6684147 C146.842548,68.6684147 147.185714,68.1657852 147.185714,67.5574828 L147.185714,57.2951293 C146.473128,57.2951293 144.229779,57.2685313 144.229779,59.5433034 L144.229779,60.469056 L143.332411,60.469056 L143.332411,56.3955433 L153.889505,56.3955433 Z M171.203041,56.3955433 L165.291315,68.6155063 L167.262803,68.6155124 C168.04212,68.6149036 170.147719,68.5707301 170.147719,66.3670446 L170.147719,66.3670446 L170.147719,65.441292 L171.044943,65.441292 L171.044943,69.5677131 L161.701556,69.5677131 L167.666507,57.2951293 L165.906303,57.2951224 C165.126612,57.2957144 163.021282,57.339618 163.021282,59.5433034 L163.021282,59.5433034 L163.021282,60.469056 L162.124058,60.469056 L162.124058,56.3955433 L171.203041,56.3955433 Z M182.393958,56.3955433 L182.393958,60.469056 L181.496877,60.469056 L181.496877,59.5433034 C181.496877,57.339618 179.391278,57.2957144 178.611831,57.2951224 L176.74592,57.2951293 L176.74592,62.1089278 L178.276682,62.1089278 C178.883679,62.1089278 179.385229,61.7650234 179.385229,60.8394146 L180.282454,60.8394146 L180.282454,64.4363207 L179.385229,64.4363207 C179.385229,63.5107119 178.883679,63.1666637 178.276682,63.1666637 L176.74592,63.1666637 L176.74592,68.6684147 L178.540656,68.6684147 C179.253242,68.6684147 181.496877,68.6947251 181.496877,66.4200968 L181.496877,65.494488 L182.393958,65.494488 L182.393958,69.5677131 L172.628643,69.5677131 L172.628643,68.6684147 C173.552265,68.6684147 173.895432,68.1657852 173.895432,67.5574828 L173.895432,58.3793194 C173.895432,57.5330732 173.130194,57.2685313 172.628643,57.2685313 L172.628643,56.3955433 L182.393958,56.3955433 Z" id="Citizen-wordmark" fill="#BA9D5A"></path>
        <g id="Group-5" transform="translate(153.528945, 24.996035)" fill="#BA9D5A" fill-rule="nonzero">
            <path d="M12.9421094,6.52180809 L8.37430611,3.9333862 L3.80650278,6.52180809 L3.80650278,16.2909122 L8.37430611,18.8793341 L12.9421094,16.2909122 L12.9421094,6.52180809 Z M8.37430611,5.6834101 L11.4195083,7.40915158 L11.4195083,15.4034418 L8.37430611,17.1291833 L5.32910389,15.4035687 L5.32910389,7.40902469 L8.37430611,5.6834101 Z" id="Rectangle-Copy-2"></path>
            <polygon id="Path" points="3.06530728e-14 2.58842189 4.56780333 1.56871608e-13 8.74963685 2.36970566 7.99897536 3.69440241 4.56780333 1.7500239 1.52260111 3.47563849 1.52260111 11.4701825 4.56780333 13.1957971 7.65634058 11.4457052 14.5904804 15.3735526 13.8400356 16.6983721 7.65652657 13.1956702 4.56780333 14.9459479 3.06530728e-14 12.357526"></polygon>
        </g>
        <path d="M147.565366,45.1686668 C147.565366,46.2899154 146.656414,47.198867 145.535166,47.198867 L24.6231887,47.198867 L24.6231887,47.198867 C23.8498347,47.198867 23.2229073,46.5719397 23.2229073,45.7985856 C23.2229073,45.5798218 23.2741636,45.364101 23.3725668,45.1687182 C23.9995086,43.9239052 25.2743532,43.1385694 26.6681305,43.1385694 L145.535166,43.1384684 C146.656413,43.1384675 147.565365,44.0474175 147.565366,45.1686651 C147.565366,45.1686657 147.565366,45.1686663 147.565366,45.1686668 Z M147.565366,39.585477 C147.565366,40.7067599 146.656387,41.6157395 145.535104,41.6157405 L27.561618,41.6158457 L27.561618,41.6158457 C26.8146841,41.6158457 26.2091745,41.0103361 26.2091745,40.2634022 C26.2091745,40.0253616 26.2720015,39.7915377 26.3913081,39.5855541 C27.1191465,38.3289354 28.4613396,37.5552624 29.9135238,37.5552624 L145.535104,37.5552161 C146.656386,37.5552157 147.565365,38.4641941 147.565366,39.5854762 C147.565366,39.5854765 147.565366,39.5854767 147.565366,39.585477 Z M147.565366,34.0029235 C147.565366,35.1245216 146.656131,36.0337568 145.534533,36.0337576 L30.9732042,36.0338399 L30.9732042,36.0338399 C30.2551932,36.0338399 29.6731304,35.451777 29.6731304,34.7337661 C29.6731304,34.4731607 29.7514513,34.21857 29.8979312,34.0030269 C30.7612317,32.7326917 32.1975073,31.9722138 33.7334237,31.9722138 L145.534533,31.972093 C146.65613,31.9720918 147.565364,32.8813246 147.565366,34.0029213 C147.565366,34.002922 147.565366,34.0029227 147.565366,34.0029235 Z M147.565366,28.4200047 C147.565366,29.5412958 146.65638,30.4502818 145.535089,30.4502818 L35.0429576,30.4502818 L35.0429576,30.4502818 C34.3579282,30.4502818 33.8026021,29.8949558 33.8026021,29.2099264 C33.8026021,28.9216334 33.9030256,28.6423441 34.0866117,28.4200629 C35.1485165,27.1343367 36.7289943,26.3898439 38.3965474,26.3898439 L145.535089,26.3897298 C146.656378,26.3897286 147.565364,27.2987126 147.565366,28.4200025 C147.565366,28.4200033 147.565366,28.420004 147.565366,28.4200047 Z M147.565366,22.8365476 C147.565366,23.9578654 146.656358,24.8668732 145.535041,24.8668738 L40.1642135,24.8669307 L40.1642135,24.8669307 C39.5173107,24.8669307 38.9928924,24.3425124 38.9928924,23.6956097 C38.9928924,23.3695453 39.1288062,23.0582379 39.367938,22.8365762 C40.7759816,21.5313994 42.6250501,20.8062224 44.5449651,20.8062224 L145.535041,20.8062224 C146.656358,20.8062224 147.565366,21.71523 147.565366,22.8365476 Z" id="Shape" fill="#5B5958"></path>
        <path d="M293.331869,43.1385694 C294.725647,43.1385694 296.000491,43.9239052 296.627433,45.1687182 C296.975299,45.8594176 296.697378,46.7013413 296.006679,47.0492075 C295.811296,47.1476107 295.595575,47.198867 295.376811,47.198867 L174.464778,47.198867 C173.343528,47.198867 172.434576,46.2899143 172.434576,45.1686643 C172.434576,44.0474153 173.343528,43.1384634 174.464777,43.1384634 C174.464777,43.1384634 174.464778,43.1384634 174.464778,43.1384634 L293.331869,43.1385694 L293.331869,43.1385694 Z M290.086476,37.5552624 C291.53866,37.5552624 292.880853,38.3289354 293.608692,39.5855541 C293.983057,40.2318984 293.762574,41.0593469 293.11623,41.4337121 C292.910246,41.5530187 292.676423,41.6158457 292.438382,41.6158457 L174.464837,41.6157354 C173.343555,41.6157344 172.434576,40.7067547 172.434576,39.5854718 C172.434576,38.4641898 173.343554,37.5552111 174.464837,37.5552111 C174.464837,37.5552111 174.464837,37.5552111 174.464837,37.5552111 L290.086476,37.5552624 L290.086476,37.5552624 Z M286.266576,31.9722125 C287.802493,31.9722125 289.238768,32.7326917 290.102069,34.0030269 C290.505645,34.5968837 290.351392,35.4054629 289.757535,35.8090391 C289.541992,35.9555189 289.287401,36.0338399 289.026796,36.0338399 L174.465345,36.0337525 C173.343782,36.0337517 172.434576,35.1245449 172.434576,34.0029818 C172.434576,32.8814189 173.343782,31.9722125 174.465345,31.9722125 L286.266576,31.9722125 L286.266576,31.9722125 Z M281.603453,26.3898439 C283.271006,26.3898439 284.851484,27.1343367 285.913388,28.4200629 C286.349618,28.9482381 286.275081,29.7300426 285.746906,30.1662722 C285.524625,30.3498583 285.245335,30.4502818 284.957042,30.4502818 L174.464855,30.4502818 C173.343563,30.4502818 172.434576,29.5412946 172.434576,28.4200021 C172.434576,27.2987109 173.343562,26.3897247 174.464853,26.3897247 C174.464854,26.3897247 174.464855,26.3897247 174.464855,26.3897247 L281.603453,26.3898439 L281.603453,26.3898439 Z M275.455155,20.8062805 C277.375039,20.806281 279.224078,21.5314484 280.632098,22.836606 C281.106522,23.2763709 281.134619,24.0174674 280.694854,24.4918913 C280.473195,24.7310192 280.161893,24.8669307 279.835833,24.8669307 L174.464901,24.8668688 C173.343583,24.8668681 172.434576,23.9578602 172.434576,22.8365424 C172.434576,21.7152255 173.343583,20.8062185 174.4649,20.8062185 C174.4649,20.8062185 174.4649,20.8062185 174.464901,20.8062185 L275.455155,20.8062805 L275.455155,20.8062805 Z" id="Shape" fill="#5B5958"></path>
        <path d="M272.359289,19.2839702 L47.6406886,19.2839702 C47.0413122,19.2839702 46.5554216,18.7980796 46.5554216,18.1987032 C46.5554216,17.8081537 46.7652673,17.4477232 47.1049043,17.2549132 L47.7654464,16.8799271 C49.675161,15.7957927 51.8335548,15.2258562 54.0295414,15.2258562 L265.970442,15.2258562 C268.166439,15.2258562 270.324843,15.7957981 272.234564,16.8799421 L272.895076,17.2549132 C273.416316,17.5508202 273.598985,18.2132491 273.303078,18.7344895 C273.110268,19.0741254 272.749838,19.2839702 272.359289,19.2839702 Z" id="Path" fill="#5B5958"></path>
        <path d="M257.137629,13.7026032 L62.8623618,13.7026032 C62.2930492,13.7026032 61.8315302,13.2410842 61.8315302,12.6717716 C61.8315302,12.2002781 62.1514297,11.7888812 62.608389,11.6727162 L69.0547867,10.0339581 C70.0765285,9.77421807 71.1266586,9.64282921 72.1808983,9.64282921 L247.819084,9.64282921 C248.873322,9.64282921 249.923451,9.77421776 250.945192,10.0339572 L257.391601,11.6727162 C257.943364,11.8129814 258.276949,12.3739811 258.136684,12.9257442 C258.020519,13.3827036 257.609122,13.7026032 257.137629,13.7026032 Z" id="Path" fill="#5B5958"></path>
        <path d="M236.425145,8.12054492 L87.9089071,8.12054492 C87.7121152,8.09621783 87.5525839,7.93668651 87.5525839,7.73989464 C87.5525839,7.55566916 87.6930148,7.40181806 87.8764757,7.38505043 C93.1200789,6.90580477 96.7587272,6.58390015 98.7924204,6.41933655 C116.768403,4.96474535 132.546245,4.19541494 146.125947,4.11134532 L173.874053,4.11134532 C185.756591,4.18459296 199.417382,4.79207808 214.856425,5.93380067 C218.66728,6.2156147 225.864458,6.83421705 236.44796,7.78960771 C236.475188,7.96834833 236.506909,8.00636466 236.503027,8.04937735 C236.499389,8.08967673 236.465608,8.12054492 236.425145,8.12054492 Z" id="Path" fill="#5B5958"></path>
        <path d="M302.340827,129.04314 C303.496989,129.04314 303.954277,128.948232 304.316656,128.611737 C304.592754,128.352895 304.696291,127.964631 304.696291,127.222617 C304.696291,126.463347 304.56687,126.126852 304.195863,125.885266 C303.902509,125.695448 303.58327,125.626423 302.660066,125.574655 C301.728234,125.514259 301.728234,125.514259 301.607441,125.488374 C301.348599,125.41935 301.245062,125.255416 301.245062,124.901665 C301.245062,124.349469 301.43488,124.228676 302.332199,124.228676 C303.143238,124.228676 303.272659,124.332213 303.272659,124.987946 L304.540986,124.987946 C304.549614,124.893037 304.549614,124.7895 304.549614,124.754988 C304.549614,124.263188 304.446077,123.918065 304.230375,123.659223 C303.937021,123.3141 303.462477,123.201935 302.289059,123.201935 C301.219178,123.201935 300.753262,123.288216 300.382255,123.547058 C300.063016,123.780016 299.916339,124.202791 299.916339,124.893037 C299.916339,125.712704 300.097528,126.13548 300.546188,126.35981 C300.839543,126.506487 301.107013,126.549627 302.047473,126.610024 C303.09147,126.679048 303.09147,126.679048 303.229519,126.791213 C303.341684,126.868866 303.384824,127.024171 303.384824,127.274385 C303.384824,127.576368 303.324428,127.757557 303.203635,127.852466 C303.056958,127.964631 302.927536,127.990515 302.401224,127.990515 C301.616069,127.990515 301.495276,127.973259 301.357227,127.861094 C301.227806,127.740301 301.176038,127.56774 301.176038,127.257129 L301.176038,127.153592 L299.907711,127.153592 C299.907711,127.869722 299.968107,128.171705 300.149297,128.447803 C300.434023,128.905091 300.934452,129.04314 302.340827,129.04314 Z M304.424507,136 L304.424507,134.904235 L301.663524,134.904235 L301.663524,133.540999 L304.226061,133.540999 L304.226061,132.600539 L301.663524,132.600539 L301.663524,131.340841 L304.389995,131.340841 L304.389995,130.245075 L300.3348,130.245075 L300.3348,136 L304.424507,136 Z M304.446077,143 L304.446077,141.852466 L301.900796,141.852466 L301.900796,137.245075 L300.572072,137.245075 L300.572072,143 L304.446077,143 Z M304.467647,150 L304.467647,148.904235 L301.706664,148.904235 L301.706664,147.540999 L304.269202,147.540999 L304.269202,146.600539 L301.706664,146.600539 L301.706664,145.340841 L304.433135,145.340841 L304.433135,144.245075 L300.377941,144.245075 L300.377941,150 L304.467647,150 Z M302.267489,157.04314 C302.854198,157.04314 303.328742,157.025884 303.518559,156.991372 C303.811914,156.939603 304.122525,156.792926 304.32097,156.620365 C304.674721,156.309754 304.76963,155.990515 304.76963,155.067312 L304.76963,154.886122 L303.458163,154.886122 L303.458163,154.998287 C303.458163,155.360666 303.449535,155.446947 303.38051,155.584996 C303.268345,155.817954 302.983619,155.904235 302.336513,155.904235 C301.72392,155.904235 301.465078,155.826582 301.335657,155.593624 C301.214864,155.38425 301.184263,155.189907 301.18072,154.358207 L301.180352,154.169992 C301.180352,152.944806 301.206236,152.754988 301.387425,152.56517 C301.542731,152.409865 301.810201,152.349469 302.379654,152.349469 C302.983619,152.349469 303.207949,152.409865 303.320114,152.608311 C303.389138,152.737732 303.406394,152.824013 303.415023,153.23816 L304.735118,153.23816 C304.717862,152.70322 304.709233,152.556542 304.674721,152.366725 C304.58844,151.866297 304.372739,151.564314 303.975847,151.383125 C303.656609,151.236447 303.389138,151.201935 302.586728,151.201935 C301.214864,151.201935 300.774832,151.305472 300.326172,151.736875 C299.937909,152.107883 299.808488,152.582427 299.808488,153.652308 C299.808488,154.454718 299.843,155.213989 299.886141,155.584996 C299.937909,156.007772 300.153611,156.413291 300.438337,156.637621 C300.861113,156.974116 301.171724,157.04314 302.267489,157.04314 Z M302.918908,164 L302.918908,159.392609 L304.549614,159.392609 L304.549614,158.245075 L300.037132,158.245075 L300.037132,159.392609 L301.590185,159.392609 L301.590185,164 L302.918908,164 Z" id="SELECT" fill="#CCCBCC" fill-rule="nonzero"></path>
        <path d="M73.3438907,99.6098335 L73.6443507,98.6272482 L75.7800525,98.6272482 L76.088633,99.6098335 L77.3716782,99.6098335 L75.6338828,94.1934338 L73.7580382,94.1934338 L72.0446044,99.6098335 L73.3438907,99.6098335 Z M75.5201952,97.7096273 L73.920449,97.7096273 L74.7162619,95.1354163 L75.5201952,97.7096273 Z M81.3633659,99.6098335 L81.3633659,98.5298017 L78.9678068,98.5298017 L78.9678068,94.1934338 L77.7172438,94.1934338 L77.7172438,99.6098335 L81.3633659,99.6098335 Z M82.8620481,99.6098335 L83.1625081,98.6272482 L85.2982099,98.6272482 L85.6067904,99.6098335 L86.8898356,99.6098335 L85.1520402,94.1934338 L83.2761956,94.1934338 L81.5627618,99.6098335 L82.8620481,99.6098335 Z M85.0383526,97.7096273 L83.4386064,97.7096273 L84.2344192,95.1354163 L85.0383526,97.7096273 Z M88.4859642,99.6098335 L88.4859642,97.9938462 L89.7527683,97.9938462 C90.2481212,97.9776051 90.4754963,98.2212213 90.4592553,98.7652974 L90.4592553,99.6098335 L91.7260594,99.6098335 L91.7260594,98.5298017 C91.7341799,97.8639175 91.4174789,97.5066138 90.7759563,97.4660111 L90.7759563,97.4254084 C91.6042513,97.238636 91.7747826,96.9625377 91.7747826,95.8337827 C91.7747826,95.0298493 91.5880102,94.6157018 91.1088984,94.3802062 C90.8571617,94.2502776 90.4917374,94.1934338 89.9314202,94.1934338 L87.2354012,94.1934338 L87.2354012,99.6098335 L88.4859642,99.6098335 Z M89.7852505,96.9300555 L88.4859642,96.9300555 L88.4859642,95.265345 L89.7852505,95.265345 C90.3861704,95.265345 90.499858,95.3952736 90.499858,96.0449167 C90.499858,96.7676447 90.3699293,96.9300555 89.7852505,96.9300555 Z M93.6551301,99.6098335 L93.6551301,97.3360825 C93.6551301,96.9544171 93.6470096,96.710801 93.5901658,95.7850595 L93.5658042,95.2734655 L93.6064069,95.2734655 L93.7606972,95.7688184 C93.963086,96.3928506 94.0564962,96.6743787 94.1433198,96.923273 L94.2013501,97.0877684 C94.2211173,97.1432557 94.2416829,97.2005319 94.2641706,97.2629976 L95.1411888,99.6098335 L96.2374616,99.6098335 L97.1063593,97.2548771 C97.236288,96.8894528 97.3174933,96.6458366 97.5935917,95.7606979 L97.7478819,95.2572244 L97.7884846,95.2572244 L97.764123,95.7769389 C97.7191477,96.6389654 97.7087688,96.8644185 97.7074382,97.2389021 L97.7072792,99.6098335 L98.9416012,99.6098335 L98.9416012,94.1934338 L96.9195869,94.1934338 L96.2049795,96.2235686 C96.0912919,96.5402696 96.0344481,96.7351626 95.8233141,97.4741316 L95.701506,97.8963997 L95.6527828,97.8963997 C95.4205354,97.1103315 95.3149323,96.7653349 95.2270885,96.4963249 L95.1802805,96.3549337 C95.1648286,96.3088523 95.1493094,96.2630886 95.1330683,96.2154481 L94.4022198,94.1934338 L92.4208082,94.1934338 L92.4208082,99.6098335 L93.6551301,99.6098335 Z M104.62033,99.6098335 L104.62033,94.1934338 L103.134271,94.1934338 L101.266547,95.8256622 L101.981154,96.621475 L103.402249,95.2897066 L103.402249,99.6098335 L104.62033,99.6098335 Z" id="ALARM1" fill="#000000" fill-rule="nonzero"></path>
        <path d="M182.173548,99.012498 C182.449647,98.9637748 182.741986,98.8257256 182.928758,98.6633148 C183.261701,98.3709754 183.351027,98.0705155 183.351027,97.2016178 L183.351027,97.0310864 L182.116705,97.0310864 L182.116705,97.1366534 C182.116705,97.4777161 182.108584,97.5589215 182.04362,97.6888501 C181.938053,97.9081047 181.670075,97.9893101 181.061034,97.9893101 C180.484476,97.9893101 180.24086,97.9162252 180.119052,97.6969707 C180.005364,97.4999122 179.976563,97.3170016 179.973229,96.5342249 L179.972882,96.3570817 C179.972882,95.2039651 179.997244,95.0253132 180.167775,94.8466614 C180.313945,94.7004917 180.565682,94.6436479 181.101637,94.6436479 C181.670075,94.6436479 181.881209,94.7004917 181.986776,94.8872641 C182.05174,95.0090722 182.067981,95.0902776 182.076102,95.4800634 L183.318544,95.4800634 C183.302303,94.97659 183.294183,94.8385408 183.261701,94.659889 C183.180495,94.1888977 182.977482,93.9046788 182.603937,93.7341475 C182.303477,93.5960983 182.05174,93.5636162 181.29653,93.5636162 C180.005364,93.5636162 179.591217,93.6610626 179.168949,94.0670896 C178.803525,94.4162728 178.681716,94.8629025 178.681716,95.8698493 C178.681716,96.6250595 178.714199,97.3396669 178.754801,97.6888501 C178.803525,98.0867565 179.006538,98.4684219 179.274516,98.6795559 C179.672422,98.9962569 179.964762,99.0612213 180.99607,99.0612213 C181.548267,99.0612213 181.994896,99.0449802 182.173548,99.012498 Z M185.142048,99.0206186 L185.142048,96.8037113 L187.334594,96.8037113 L187.334594,99.0206186 L188.585157,99.0206186 L188.585157,93.6042189 L187.334594,93.6042189 L187.334594,95.7318002 L185.142048,95.7318002 L185.142048,93.6042189 L183.891485,93.6042189 L183.891485,99.0206186 L185.142048,99.0206186 Z M190.603553,99.0206186 L190.603553,93.6042189 L189.35299,93.6042189 L189.35299,99.0206186 L190.603553,99.0206186 Z M192.678794,99.0206186 L192.678794,96.7468676 C192.678794,96.3652022 192.670673,96.121586 192.61383,95.1958446 L192.589468,94.6842506 L192.630071,94.6842506 L192.784361,95.1796035 C192.98675,95.8036357 193.08016,96.0851637 193.166984,96.3340581 L193.225014,96.4985535 C193.244781,96.5540408 193.265347,96.611317 193.287834,96.6737827 L194.164853,99.0206186 L195.261125,99.0206186 L196.130023,96.6656622 C196.259952,96.3002379 196.341157,96.0566217 196.617255,95.171483 L196.771546,94.6680095 L196.812148,94.6680095 L196.787787,95.187724 C196.742811,96.0497505 196.732433,96.2752036 196.731102,96.6496872 L196.730943,99.0206186 L197.965265,99.0206186 L197.965265,93.6042189 L195.943251,93.6042189 L195.228643,95.6343537 C195.114956,95.9510547 195.058112,96.1459477 194.846978,96.8849167 L194.72517,97.3071848 L194.676447,97.3071848 C194.444199,96.5211166 194.338596,96.17612 194.250752,95.90711 L194.203944,95.7657187 C194.188492,95.7196374 194.172973,95.6738736 194.156732,95.6262331 L193.425884,93.6042189 L191.444472,93.6042189 L191.444472,99.0206186 L192.678794,99.0206186 Z M202.647199,99.0206186 L202.647199,97.9893101 L200.048626,97.9893101 L200.048626,96.7062649 L202.460426,96.7062649 L202.460426,95.8211261 L200.048626,95.8211261 L200.048626,94.6355274 L202.614716,94.6355274 L202.614716,93.6042189 L198.798063,93.6042189 L198.798063,99.0206186 L202.647199,99.0206186 Z" id="CHIME" fill="#000000" fill-rule="nonzero"></path>
        <path d="M224.224017,99.0612213 C225.312169,99.0612213 225.742558,98.9718953 226.08362,98.6551943 C226.343478,98.4115781 226.440924,98.0461538 226.440924,97.3477875 C226.440924,96.63318 226.319116,96.316479 225.969933,96.0891039 C225.693835,95.910452 225.393375,95.8454877 224.524477,95.7967645 C223.647459,95.7399207 223.647459,95.7399207 223.533771,95.7155591 C223.290155,95.6505948 223.192708,95.4963045 223.192708,95.1633624 C223.192708,94.6436479 223.37136,94.5299603 224.215896,94.5299603 C224.979227,94.5299603 225.101035,94.6274068 225.101035,95.2445678 L226.294754,95.2445678 C226.302875,95.1552419 226.302875,95.0577954 226.302875,95.0253132 C226.302875,94.5624425 226.205428,94.2376209 226.002415,93.9940048 C225.726317,93.6691832 225.279687,93.5636162 224.175294,93.5636162 C223.168347,93.5636162 222.729838,93.6448216 222.380654,93.8884377 C222.080195,94.1076923 221.942145,94.5055987 221.942145,95.1552419 C221.942145,95.9266931 222.112677,96.3245995 222.534945,96.5357335 C222.811043,96.6737827 223.06278,96.7143854 223.947919,96.7712292 C224.930504,96.8361935 224.930504,96.8361935 225.060432,96.9417605 C225.165999,97.0148454 225.206602,97.1610151 225.206602,97.3965107 C225.206602,97.6807296 225.149758,97.8512609 225.036071,97.9405868 C224.911827,98.0355971 224.800738,98.0648311 224.41865,98.0697278 L224.280861,98.0705155 C223.541892,98.0705155 223.428204,98.0542744 223.298275,97.9487074 C223.176467,97.8350198 223.127744,97.672609 223.127744,97.3802696 L223.127744,97.2828232 L221.934025,97.2828232 C221.934025,97.9568279 221.990869,98.2410468 222.1614,98.500904 C222.429378,98.9312926 222.900369,99.0612213 224.224017,99.0612213 Z M229.409424,99.0206186 L229.409424,94.6842506 L230.944206,94.6842506 L230.944206,93.6042189 L226.697164,93.6042189 L226.697164,94.6842506 L228.158861,94.6842506 L228.158861,99.0206186 L229.409424,99.0206186 Z M233.644728,99.0612213 C234.140081,99.0612213 234.57859,99.0287391 234.814085,98.9800159 C235.301318,98.8744489 235.666742,98.6389532 235.877876,98.2978906 C236.113372,97.8999841 236.170216,97.5345599 236.170216,96.3083584 C236.170216,95.5612688 236.153974,95.2039651 236.105251,94.9603489 C235.999684,94.3513085 235.707345,93.9696431 235.203871,93.7503886 C234.88717,93.6123394 234.529867,93.5636162 233.766536,93.5636162 C233.271183,93.5636162 232.816433,93.5960983 232.597178,93.6448216 C232.158669,93.7341475 231.777004,93.9696431 231.56587,94.2782236 C231.297892,94.659889 231.232928,95.1227597 231.232928,96.5357335 C231.232928,97.1204124 231.249169,97.3965107 231.289771,97.6401269 C231.387218,98.2004441 231.606472,98.5496273 232.036861,98.7932435 C232.377924,98.9881364 232.792071,99.0612213 233.644728,99.0612213 Z M233.782777,97.9893101 C233.084411,97.9893101 232.857036,97.9487074 232.718986,97.7862966 C232.548455,97.5832831 232.507852,97.3477875 232.507852,96.4788898 C232.507852,95.2120856 232.540334,95.0171927 232.759589,94.8222998 C232.922,94.6761301 233.108772,94.6355274 233.67721,94.6355274 C234.326853,94.6355274 234.537987,94.6761301 234.676036,94.8385408 C234.870929,95.0659159 234.895291,95.2120856 234.895291,96.2921174 C234.895291,97.1204124 234.87905,97.3153053 234.789724,97.5589215 C234.659795,97.8999841 234.456782,97.9893101 233.782777,97.9893101 Z M238.042443,99.0206186 L238.042443,97.4533545 L239.073751,97.4533545 C239.715274,97.4371134 239.885805,97.4371134 239.934528,97.4289929 C240.25935,97.4208723 240.55981,97.3071848 240.795305,97.1122918 C241.112006,96.8524346 241.250056,96.3895638 241.250056,95.5693894 C241.250056,94.8791435 241.185091,94.5299603 240.990198,94.2132593 C240.762823,93.8559556 240.340555,93.636701 239.820841,93.6123394 C239.793356,93.6110901 239.770099,93.610033 239.747878,93.6091385 L239.681124,93.6069134 C239.657779,93.6063146 239.632276,93.6058489 239.60142,93.6054867 L239.489602,93.6046809 C239.467226,93.6045885 239.442713,93.6045146 239.415664,93.6044554 L236.791879,93.6042189 L236.791879,99.0206186 L238.042443,99.0206186 Z M239.081872,96.3733228 L238.042443,96.3733228 L238.042443,94.6355274 L239.138715,94.6355274 C239.487898,94.6355274 239.544742,94.6436479 239.674671,94.6923711 C239.910167,94.7898176 239.975131,94.97659 239.975131,95.5287867 C239.975131,96.2677557 239.861443,96.3733228 239.081872,96.3733228 Z M242.293987,99.0206186 L242.293987,97.9081047 L241.254558,97.9081047 L241.254558,99.0206186 L242.293987,99.0206186 Z M245.644153,99.0206186 L246.228831,96.7955908 C246.366881,96.2758763 246.383122,96.210912 246.50493,95.6505948 L246.586135,95.2689294 L246.634858,95.2689294 L246.716064,95.6505948 C246.837872,96.2677557 246.845992,96.2839968 246.967801,96.7955908 L247.528118,99.0206186 L249.338998,99.0206186 L250.662646,93.6042189 L249.403962,93.6042189 L248.803042,96.121586 C248.689355,96.6006979 248.656873,96.7549881 248.510703,97.5020777 L248.421377,97.9649485 L248.380774,97.9649485 L248.234605,97.3234259 C248.153399,96.9255194 248.080314,96.6250595 247.950386,96.1297066 L247.300743,93.6042189 L245.944613,93.6042189 L245.270608,96.121586 C245.165041,96.5357335 245.059474,96.9173989 245.035112,97.0473275 C245.00263,97.2016178 244.962027,97.355908 244.929545,97.5020777 L244.823978,97.9649485 L244.775255,97.9649485 L244.69405,97.5020777 C244.54788,96.7062649 244.523518,96.6006979 244.417951,96.121586 L243.833272,93.6042189 L242.574589,93.6042189 L243.857634,99.0206186 L245.644153,99.0206186 Z" id="STOP.W" fill="#000000" fill-rule="nonzero"></path>
        <path d="M128.209077,99.0206186 L128.509537,98.0380333 L130.645239,98.0380333 L130.953819,99.0206186 L132.236865,99.0206186 L130.499069,93.6042189 L128.623225,93.6042189 L126.909791,99.0206186 L128.209077,99.0206186 Z M130.385382,97.1204124 L128.785635,97.1204124 L129.581448,94.5462014 L130.385382,97.1204124 Z M136.228552,99.0206186 L136.228552,97.9405868 L133.832993,97.9405868 L133.832993,93.6042189 L132.58243,93.6042189 L132.58243,99.0206186 L136.228552,99.0206186 Z M137.727234,99.0206186 L138.027694,98.0380333 L140.163396,98.0380333 L140.471977,99.0206186 L141.755022,99.0206186 L140.017227,93.6042189 L138.141382,93.6042189 L136.427948,99.0206186 L137.727234,99.0206186 Z M139.903539,97.1204124 L138.303793,97.1204124 L139.099606,94.5462014 L139.903539,97.1204124 Z M143.351151,99.0206186 L143.351151,97.4046312 L144.617955,97.4046312 C145.113308,97.3883902 145.340683,97.6320063 145.324442,98.1760825 L145.324442,99.0206186 L146.591246,99.0206186 L146.591246,97.9405868 C146.599366,97.2747026 146.282665,96.9173989 145.641143,96.8767962 L145.641143,96.8361935 C146.469438,96.6494211 146.639969,96.3733228 146.639969,95.2445678 C146.639969,94.4406344 146.453197,94.0264869 145.974085,93.7909913 C145.722348,93.6610626 145.356924,93.6042189 144.796607,93.6042189 L142.100588,93.6042189 L142.100588,99.0206186 L143.351151,99.0206186 Z M144.650437,96.3408406 L143.351151,96.3408406 L143.351151,94.6761301 L144.650437,94.6761301 C145.251357,94.6761301 145.365044,94.8060587 145.365044,95.4557018 C145.365044,96.1784298 145.235116,96.3408406 144.650437,96.3408406 Z M148.520317,99.0206186 L148.520317,96.7468676 C148.520317,96.3652022 148.512196,96.121586 148.455352,95.1958446 L148.430991,94.6842506 L148.471593,94.6842506 L148.625884,95.1796035 C148.828272,95.8036357 148.921683,96.0851637 149.008506,96.3340581 L149.066536,96.4985535 C149.086304,96.5540408 149.106869,96.611317 149.129357,96.6737827 L150.006375,99.0206186 L151.102648,99.0206186 L151.971546,96.6656622 L152.000775,96.5831483 L152.000775,96.5831483 L152.056706,96.4227557 C152.149333,96.1536357 152.246395,95.8523589 152.458778,95.171483 L152.613068,94.6680095 L152.653671,94.6680095 L152.629309,95.187724 C152.584334,96.0497505 152.573955,96.2752036 152.572625,96.6496872 L152.572466,99.0206186 L153.806788,99.0206186 L153.806788,93.6042189 L151.784773,93.6042189 L151.070166,95.6343537 C150.956478,95.9510547 150.899635,96.1459477 150.6885,96.8849167 L150.566692,97.3071848 L150.517969,97.3071848 C150.285722,96.5211166 150.180119,96.17612 150.092275,95.90711 L150.045467,95.7657187 C150.030015,95.7196374 150.014496,95.6738736 149.998255,95.6262331 L149.267406,93.6042189 L147.285995,93.6042189 L147.285995,99.0206186 L148.520317,99.0206186 Z M160.791337,99.0206186 L160.791337,98.0299128 L157.802978,98.0299128 L157.802978,97.8999841 C157.811099,97.4208723 157.900425,97.3153053 158.412019,97.2097383 C159.703184,96.93364 159.816872,96.9011578 160.125452,96.7549881 C160.596444,96.5438541 160.783216,96.121586 160.783216,95.3095321 C160.783216,93.9615226 160.304104,93.5636162 158.704358,93.5636162 C157.624326,93.5636162 157.096491,93.7503886 156.820393,94.2132593 C156.657982,94.5055987 156.6255,94.6842506 156.6255,95.5450278 L157.802978,95.5450278 C157.802978,94.97659 157.819219,94.871023 157.949148,94.7167328 C158.046594,94.6030452 158.225246,94.5624425 158.696238,94.5624425 C159.459568,94.5624425 159.581376,94.659889 159.581376,95.2689294 C159.581376,95.6587153 159.540774,95.804885 159.410845,95.9023315 C159.264675,96.0078985 159.215952,96.0241396 158.306452,96.210912 C156.885357,96.4788898 156.6255,96.7306265 156.609259,97.8431404 L156.609259,99.0206186 L160.791337,99.0206186 Z" id="ALARM2" fill="#000000" fill-rule="nonzero"></path>
    </g>
</svg>