<?xml version="1.0" encoding="UTF-8"?>
<svg width="320px" height="286px" viewBox="0 0 320 286" version="1.1" xmlns="http://www.w3.org/2000/svg" xmlns:xlink="http://www.w3.org/1999/xlink">
    <title>Face</title>
    <defs>
        <path d="M55.5674703,84.5043616 L264.559413,84.5043616 C265.367051,84.5043616 266.14161,84.8251945 266.712696,85.3962807 L275.252018,93.9356028 C275.719872,94.403455 276.02262,95.010956 276.11446,95.6661949 C278.725967,114.298214 280.031721,132.930233 280.031721,151.562252 C280.031721,170.194265 278.725968,188.826279 276.114462,207.458292 C276.022632,208.113534 275.719883,208.721037 275.252029,209.188891 L266.712696,217.728224 C266.14161,218.29931 265.367051,218.620143 264.559413,218.620143 L55.5674703,218.620143 C54.7598325,218.620143 53.9852734,218.29931 53.4141872,217.728224 L44.8748651,209.188902 C44.4070117,208.721049 44.1042637,208.113548 44.0124238,207.458309 C41.4009163,188.82629 40.0951626,170.194271 40.0951626,151.562252 C40.0951626,132.930239 41.4009155,114.298226 44.0124214,95.6662126 C44.1042515,95.0109703 44.4070004,94.4034674 44.8748547,93.9356131 L53.4141872,85.3962807 C53.9852734,84.8251945 54.7598325,84.5043616 55.5674703,84.5043616 Z" id="path-1"></path>
    </defs>
    <g id="Face" stroke="none" stroke-width="1" fill="none" fill-rule="evenodd">
        <path d="M46.3124504,12.1808089 C71.9429025,0 136.975407,0 160,0 C183.024593,0 248.057098,0 273.68755,12.1808089 C299.318002,24.3616178 320,75.4974422 320,142.870738 C320,210.244033 299.318002,261.379857 273.68755,273.560666 C248.057098,285.741475 218.857596,285.741475 160,285.741475 C101.142404,285.741475 71.9429025,285.741475 46.3124504,273.560666 C20.6819984,261.379857 0,210.244033 0,142.870738 C0,75.4974422 20.6819984,24.3616178 46.3124504,12.1808089 Z" id="Face-Black-Background" fill="#000000"></path>
        <g id="Gray-Area-Around-Display">
            <path stroke="#BA9D5A" stroke-width="8.88183981" d="M264.559413,80.0634417 C266.544856,80.0634417 268.448981,80.8521559 269.852901,82.2560761 L269.852901,82.2560761 L278.392219,90.7953944 C279.54236,91.9455323 280.286617,93.4389733 280.51239,95.0497707 C283.152697,113.887265 284.472641,132.724768 284.472641,151.562252 C284.472641,170.39973 283.152698,189.237228 280.512402,208.074649 C280.28665,209.685472 279.54239,211.178939 278.392233,212.329096 L278.392233,212.329096 L269.852901,220.868428 C268.448981,222.272348 266.544856,223.061063 264.559413,223.061063 L264.559413,223.061063 L55.5674703,223.061063 C53.5820273,223.061063 51.6779028,222.272348 50.2739826,220.868428 L50.2739826,220.868428 L41.7346644,212.32911 C40.5845236,211.178972 39.8402667,209.685531 39.6144936,208.074734 C36.9741862,189.23724 35.6542427,170.399736 35.6542427,151.562252 C35.6542427,132.724774 36.9741854,113.887276 39.6144817,95.0498553 C39.8402334,93.439032 40.5844934,91.9455653 41.7346502,90.7954086 L41.7346502,90.7954086 L50.2739826,82.2560761 C51.6779028,80.8521559 53.5820273,80.0634417 55.5674703,80.0634417 L55.5674703,80.0634417 Z" fill="#5B5B57" fill-rule="evenodd"></path>
            <path stroke="#000000" stroke-width="5.07533703" d="M264.559413,81.9666931 C266.040082,81.9666931 267.460107,82.5548867 268.507099,83.6018781 L268.507099,83.6018781 L277.046419,92.141198 C277.904151,92.9989278 278.459189,94.1126802 278.627563,95.3139525 C281.255527,114.063386 282.569389,132.812825 282.569389,151.562252 C282.569389,170.311674 281.255528,189.061107 278.62757,207.810496 C278.459214,209.011785 277.904173,210.125552 277.046431,210.983294 L277.046431,210.983294 L268.507099,219.522626 C267.460107,220.569618 266.040082,221.157811 264.559413,221.157811 L264.559413,221.157811 L55.5674703,221.157811 C54.0868009,221.157811 52.6667759,220.569618 51.6197846,219.522626 L51.6197846,219.522626 L43.0804647,210.983306 C42.2227328,210.125577 41.667694,209.011824 41.4993208,207.810552 C38.8713563,189.061119 37.5574941,170.31168 37.5574941,151.562252 C37.5574941,132.81283 38.8713554,114.063398 41.499313,95.3140085 C41.6676697,94.1127199 42.2227107,92.9989519 43.0804521,92.1412105 L43.0804521,92.1412105 L51.6197846,83.6018781 C52.6667759,82.5548867 54.0868009,81.9666931 55.5674703,81.9666931 L55.5674703,81.9666931 Z"></path>
        </g>
        <path d="M73.0431453,103.790642 L246.956854,103.790642 C256.180809,103.790642 263.798731,110.995152 264.31286,120.204767 C264.895193,130.636115 265.18636,141.067463 265.18636,151.49881 C265.18636,161.930158 264.895193,172.361506 264.31286,182.792853 C263.798731,192.002468 256.18081,199.206979 246.956855,199.206979 L73.0431458,199.206979 C63.8191909,199.206979 56.2012692,192.002469 55.6871396,182.792854 C55.1048065,172.361506 54.81364,161.930158 54.81364,151.49881 C54.81364,141.067463 55.1048065,130.636115 55.6871396,120.204768 C56.2012687,110.995153 63.8191905,103.790642 73.0431453,103.790642 Z" id="Display" fill="#171811" opacity="0.400000006"></path>
        <path d="M247.168914,107.089611 C254.947325,107.089611 261.252974,113.39526 261.252974,121.173672 L261.252974,132.339413 C261.252974,134.581838 259.435129,136.399683 257.192704,136.399683 L217.097542,136.399683 C214.855117,136.399683 213.037272,134.581838 213.037272,132.339413 L213.037272,111.149881 C213.037272,108.907456 214.855117,107.089611 217.097542,107.089611 L247.168914,107.089611 Z" id="Combined-Shape" fill="#A7A398"></path>
        <path d="M103.156225,107.089611 C110.934637,107.089611 117.240285,113.39526 117.240285,121.173672 L117.240285,132.339413 C117.240285,134.581838 115.422441,136.399683 113.180016,136.399683 L62.8072958,136.399683 C60.5648708,136.399683 58.7470262,134.581838 58.7470262,132.339413 L58.7470262,111.149881 C58.7470262,108.907456 60.5648708,107.089611 62.8072958,107.089611 L103.156225,107.089611 Z" id="Combined-Shape-Copy" fill="#A7A398" transform="translate(87.993656, 121.744647) scale(-1, 1) translate(-87.993656, -121.744647) "></path>
        <rect id="Rectangle" fill="#A7A398" x="170.785091" y="107.089611" width="39.5876289" height="29.3100714" rx="4.06026963"></rect>
        <rect id="Rectangle-Copy" fill="#A7A398" x="119.904837" y="107.089611" width="48.2157018" height="29.3100714" rx="4.06026963"></rect>
        <path d="M68.21103,139.698652 L251.788972,139.698652 C258.389227,139.698654 263.887231,144.758791 264.433742,151.336381 C264.935487,157.375192 265.18636,163.414004 265.18636,169.452815 C265.18636,173.933027 265.048275,178.41324 264.772104,182.893452 C264.206986,192.061117 256.607072,199.206979 247.422006,199.206979 L72.5779927,199.206979 C63.3929261,199.206978 55.7930125,192.061115 55.2278961,182.89345 C54.9517253,178.413238 54.81364,173.933027 54.81364,169.452815 C54.81364,163.414004 55.0645128,157.375192 55.5662584,151.336381 C56.1127692,144.75879 61.610774,139.698652 68.21103,139.698652 Z" id="Digit-display" fill="#D1CEC7"></path>
        <path d="M240.531826,277.620917 C240.742092,277.620848 240.912545,277.791302 240.912545,278.001568 C240.912545,278.194758 240.767851,278.357323 240.575963,278.37972 C222.276781,280.515566 202.922831,281.610292 182.514113,281.663898 L176.321968,281.669474 C175.964155,281.670286 175.605086,281.671042 175.244754,281.671745 L173.067523,281.675369 L170.859554,281.677925 L168.620445,281.679598 L166.349796,281.680576 L156.423783,281.681096 L152.922649,281.680328 L149.495186,281.678245 L147.25044,281.675801 L145.037389,281.672285 C144.671165,281.671599 144.306245,281.67086 143.942619,281.670064 L137.716057,281.664574 C117.212349,281.612187 97.7696749,280.515161 79.3880352,278.373496 C79.1833153,278.343438 79.0361821,278.157498 79.0601174,277.952065 C79.0821123,277.763285 79.2420304,277.620917 79.4320872,277.620917 L240.531826,277.620917 Z M259.264761,272.038065 C259.839586,272.038065 260.305573,272.504053 260.305573,273.078877 C260.305573,273.528859 260.016399,273.927885 259.588778,274.067969 L255.317005,275.467362 C254.041946,275.885059 252.708705,276.097874 251.366973,276.097874 L172.191998,276.097874 C171.070913,276.097874 170.162094,275.189055 170.162094,274.067969 C170.162094,272.946884 171.070913,272.038065 172.191998,272.038065 L259.264761,272.038065 Z M147.772475,272.038065 C148.89356,272.038065 149.802379,272.946884 149.802379,274.067969 C149.802379,275.189055 148.89356,276.097874 147.772475,276.097874 L68.5975125,276.097874 C67.2557823,276.097874 65.9225435,275.88506 64.6474867,275.467364 L60.3757005,274.067969 C59.82944,273.88902 59.5316756,273.301121 59.7106251,272.754861 C59.8507095,272.327239 60.2497355,272.038065 60.6997172,272.038065 L147.772475,272.038065 Z M272.375769,266.457505 C272.975509,266.457505 273.461694,266.94369 273.461694,267.543429 C273.461694,267.933327 273.252667,268.293298 272.914039,268.486562 L272.282183,268.847178 C270.366404,269.940562 268.198677,270.515618 265.992843,270.515618 L54.0071343,270.515618 C51.8013089,270.515618 49.6335889,269.940566 47.7178143,268.847189 L47.0859361,268.486562 C46.5650583,268.189285 46.3837941,267.526039 46.6810711,267.005161 C46.8743345,266.666532 47.2343059,266.457505 47.6242037,266.457505 L272.375769,266.457505 Z M279.835833,260.874544 C280.482727,260.874544 281.007138,261.398955 281.007138,262.045849 C281.007138,262.371908 280.871226,262.683211 280.632098,262.904869 C279.224078,264.210027 277.375039,264.935194 275.455155,264.935195 L44.5449651,264.935253 C42.6250501,264.935253 40.7759816,264.210076 39.367938,262.904899 C38.893507,262.465128 38.8654092,261.724021 39.30518,261.24959 C39.5268417,261.010458 39.8381492,260.874544 40.1642135,260.874544 L279.835833,260.874544 Z M284.95702,255.291193 C285.642055,255.291193 286.197386,255.846524 286.197386,256.531559 C286.197386,256.819854 286.096961,257.099146 285.913373,257.321429 C284.851459,258.607166 283.270968,259.351665 281.6034,259.351665 L38.3965997,259.351665 C36.7290323,259.351665 35.1485409,258.607166 34.0866267,257.321429 C33.6503934,256.79325 33.7249304,256.011439 34.2531098,255.575205 C34.4753929,255.391618 34.7546845,255.291193 35.0429799,255.291193 L284.95702,255.291193 Z M289.026795,249.707653 C289.744803,249.707653 290.326863,250.289713 290.326863,251.007721 C290.326863,251.268325 290.248542,251.522915 290.102063,251.738457 C289.238766,253.008787 287.802497,253.769261 286.266587,253.769261 L33.7334132,253.769261 C32.1975034,253.769261 30.7612338,253.008787 29.8979368,251.738457 C29.4943624,251.144603 29.6486146,250.336027 30.2424688,249.932453 C30.458011,249.785974 30.7126007,249.707653 30.973205,249.707653 L289.026795,249.707653 Z" id="Combined-Shape" fill="#5B5958"></path>
        <text id="Japan" font-family="Eurostile-Hea, Eurostile" font-size="5.58287074" font-weight="700" letter-spacing="-0.133988897" fill="#BA9D5A">
            <tspan x="151.569104" y="276.164948">JAPAN</tspan>
        </text>
        <text id="MULTI-ALARM" font-family="Eurostile-Bol, Eurostile" font-size="14.591594" font-weight="bold" letter-spacing="1.01506741" fill="#BA9D5A">
            <tspan x="54.4329897" y="244.607454">MULTI ALARM</tspan>
        </text>
        <g id="Group-2" transform="translate(163.806503, 234.861221)" fill="#BA9D5A">
            <rect id="Rectangle" x="1.01506741" y="0.888183981" width="2.15701824" height="7.73988898"></rect>
            <rect id="Rectangle-Copy-3" x="3.80650278" y="0.888183981" width="2.15701824" height="7.73988898"></rect>
            <rect id="Rectangle-Copy-6" x="6.59793814" y="0.888183981" width="2.15701824" height="7.73988898"></rect>
            <rect id="Rectangle" x="0" y="0" width="9.77002379" height="1.14195083"></rect>
            <rect id="Rectangle-Copy-7" x="0" y="8.37430611" width="9.77002379" height="1.14195083"></rect>
        </g>
        <text id="MODE" font-family="Eurostile-Hea, Eurostile" font-size="11.1657415" font-weight="700" letter-spacing="0.370720267" fill="#CCCBCC">
            <tspan x="28.4218874" y="68.7922284">MODE</tspan>
        </text>
        <text id="LIGHT" font-family="Eurostile-Hea, Eurostile" font-size="11.1657415" font-weight="700" letter-spacing="0.370720267" fill="#CCCBCC">
            <tspan x="239.302141" y="58.260904">LIGHT</tspan>
        </text>
        <text id="START" font-family="Eurostile-Hea, Eurostile" font-size="11.1657415" font-weight="700" letter-spacing="0.370720267" fill="#CCCBCC">
            <tspan x="221.411578" y="68.7922284">START</tspan>
        </text>
        <text id="STOP" font-family="Eurostile-Hea, Eurostile" font-size="11.1657415" font-weight="700" letter-spacing="0.370720267" fill="#CCCBCC">
            <tspan x="261.379857" y="68.7922284">STOP</tspan>
        </text>
        <text id="/" font-family="Eurostile-Bla, Eurostile" font-size="8.50118953" font-weight="800" letter-spacing="0.28225293" fill="#CCCBCC">
            <tspan x="256.177637" y="67.7922284">/</tspan>
        </text>
        <g id="Group-3-Copy" transform="translate(220.665345, 229.532117)" fill="#CCCBCC">
            <text id="READ" font-family="Eurostile-Hea, Eurostile" font-size="11.1657415" font-weight="700" letter-spacing="0.370720267">
                <tspan x="0.899323533" y="7">READ</tspan>
            </text>
            <text id="SET" font-family="Eurostile-Hea, Eurostile" font-size="11.1657415" font-weight="700" letter-spacing="0.370720267">
                <tspan x="35.4004758" y="7">SET</tspan>
            </text>
            <text id="/" font-family="Eurostile-Bla, Eurostile" font-size="8.50118953" font-weight="800" letter-spacing="0.28225293">
                <tspan x="30.1982554" y="6">/</tspan>
            </text>
        </g>
        <g id="Group-3-Copy-2" transform="translate(218.000793, 239.809675)" fill="#CCCBCC">
            <text id="LAP" font-family="Eurostile-Hea, Eurostile" font-size="11.1657415" font-weight="700" letter-spacing="0.370720267">
                <tspan x="0.610852681" y="7">LAP</tspan>
            </text>
            <text id="RESET" font-family="Eurostile-Hea, Eurostile" font-size="11.1657415" font-weight="700" letter-spacing="0.370720267">
                <tspan x="26.6455194" y="7">RESET</tspan>
            </text>
            <text id="/" font-family="Eurostile-Bla, Eurostile" font-size="8.50118953" font-weight="800" letter-spacing="0.28225293">
                <tspan x="21.443299" y="6">/</tspan>
            </text>
        </g>
        <path d="M130.399839,56.2093577 C132.232163,56.2093577 132.947331,56.4240103 133.760916,57.2327319 C134.094757,57.6388899 134.451983,57.1627146 134.458152,56.7394477 L134.458152,56.3955433 L135.361546,56.3955433 L135.361546,61.0507605 L134.46346,61.0507605 C134.46346,59.4637971 133.039292,57.2696815 131.191761,57.2696815 C128.446719,57.2696815 127.655658,59.8151777 127.655658,62.9553178 C127.655658,66.0950266 128.288191,68.6409541 131.191761,68.6409541 C133.28232,68.6409541 134.30608,67.1605263 134.497892,65.0722274 L135.595249,65.066189 C135.229845,68.8799044 133.068559,69.9127676 130.399839,69.9127676 C127.26644,69.9127676 124.726408,67.980606 124.726408,62.9553178 C124.726408,58.670603 127.26644,56.2093577 130.399839,56.2093577 Z M142.065623,56.3955433 L142.065623,57.2685313 C141.564073,57.2685313 140.798548,57.5330732 140.798548,58.3793194 L140.798548,58.3793194 L140.798548,67.5574828 C140.798548,68.1657852 141.141715,68.6684147 142.065623,68.6684147 L142.065623,68.6684147 L142.065623,69.5677131 L136.681272,69.5677131 L136.681272,68.6684147 C137.605181,68.6684147 137.94806,68.1657852 137.94806,67.5574828 L137.94806,67.5574828 L137.94806,58.3793194 C137.94806,57.5330732 137.182679,57.2685313 136.681272,57.2685313 L136.681272,57.2685313 L136.681272,56.3955433 L142.065623,56.3955433 Z M160.487706,56.3955433 L160.487706,57.2685313 C159.986156,57.2685313 159.220918,57.5330732 159.220918,58.3793194 L159.220918,58.3793194 L159.220918,67.5574828 C159.220918,68.1657852 159.563941,68.6684147 160.487706,68.6684147 L160.487706,68.6684147 L160.487706,69.5677131 L155.103355,69.5677131 L155.103355,68.6684147 C156.027407,68.6684147 156.37043,68.1657852 156.37043,67.5574828 L156.37043,67.5574828 L156.37043,58.3793194 C156.37043,57.5330732 155.604905,57.2685313 155.103355,57.2685313 L155.103355,57.2685313 L155.103355,56.3955433 L160.487706,56.3955433 Z M187.989059,56.3955433 L192.951195,64.3835561 L192.951195,58.3793194 C192.951195,57.5330732 192.185671,57.2685313 191.68412,57.2685313 L191.68412,57.2685313 L191.68412,56.3955433 L195.273592,56.3955433 L195.273592,57.2685313 C194.772329,57.2685313 194.006804,57.5330732 194.006804,58.3793194 L194.006804,58.3793194 L194.006804,69.5677131 L192.845606,69.5677131 L186.141815,58.7498218 L186.141815,67.5574828 C186.141815,68.1657852 186.484981,68.6684147 187.408603,68.6684147 L187.408603,68.6684147 L187.408603,69.5677131 L183.819131,69.5677131 L183.819131,68.6684147 C184.743183,68.6684147 185.085919,68.1657852 185.085919,67.5574828 L185.085919,67.5574828 L185.085919,58.3793194 C185.085919,57.5330732 184.320681,57.2685313 183.819131,57.2685313 L183.819131,57.2685313 L183.819131,56.3955433 L187.989059,56.3955433 Z M153.889505,56.3955433 L153.889505,60.469056 L152.991993,60.469056 L152.991993,59.5433034 C152.991993,57.2685313 150.748358,57.2951293 150.036202,57.2951293 L150.036202,67.5574828 C150.036202,68.1657852 150.379225,68.6684147 151.30299,68.6684147 L151.30299,69.5677131 L145.919069,69.5677131 L145.919069,68.6684147 C146.842548,68.6684147 147.185714,68.1657852 147.185714,67.5574828 L147.185714,57.2951293 C146.473128,57.2951293 144.229779,57.2685313 144.229779,59.5433034 L144.229779,60.469056 L143.332411,60.469056 L143.332411,56.3955433 L153.889505,56.3955433 Z M171.203041,56.3955433 L165.291315,68.6155063 L167.262803,68.6155124 C168.04212,68.6149036 170.147719,68.5707301 170.147719,66.3670446 L170.147719,66.3670446 L170.147719,65.441292 L171.044943,65.441292 L171.044943,69.5677131 L161.701556,69.5677131 L167.666507,57.2951293 L165.906303,57.2951224 C165.126612,57.2957144 163.021282,57.339618 163.021282,59.5433034 L163.021282,59.5433034 L163.021282,60.469056 L162.124058,60.469056 L162.124058,56.3955433 L171.203041,56.3955433 Z M182.393958,56.3955433 L182.393958,60.469056 L181.496877,60.469056 L181.496877,59.5433034 C181.496877,57.339618 179.391278,57.2957144 178.611831,57.2951224 L176.74592,57.2951293 L176.74592,62.1089278 L178.276682,62.1089278 C178.883679,62.1089278 179.385229,61.7650234 179.385229,60.8394146 L180.282454,60.8394146 L180.282454,64.4363207 L179.385229,64.4363207 C179.385229,63.5107119 178.883679,63.1666637 178.276682,63.1666637 L176.74592,63.1666637 L176.74592,68.6684147 L178.540656,68.6684147 C179.253242,68.6684147 181.496877,68.6947251 181.496877,66.4200968 L181.496877,65.494488 L182.393958,65.494488 L182.393958,69.5677131 L172.628643,69.5677131 L172.628643,68.6684147 C173.552265,68.6684147 173.895432,68.1657852 173.895432,67.5574828 L173.895432,58.3793194 C173.895432,57.5330732 173.130194,57.2685313 172.628643,57.2685313 L172.628643,56.3955433 L182.393958,56.3955433 Z" id="Citizen-wordmark" fill="#BA9D5A"></path>
        <g id="Group-5" transform="translate(153.528945, 24.996035)" fill="#BA9D5A" fill-rule="nonzero">
            <path d="M12.9421094,6.52180809 L8.37430611,3.9333862 L3.80650278,6.52180809 L3.80650278,16.2909122 L8.37430611,18.8793341 L12.9421094,16.2909122 L12.9421094,6.52180809 Z M8.37430611,5.6834101 L11.4195083,7.40915158 L11.4195083,15.4034418 L8.37430611,17.1291833 L5.32910389,15.4035687 L5.32910389,7.40902469 L8.37430611,5.6834101 Z" id="Rectangle-Copy-2"></path>
            <polygon id="Path" points="3.06530728e-14 2.58842189 4.56780333 1.56871608e-13 8.74963685 2.36970566 7.99897536 3.69440241 4.56780333 1.7500239 1.52260111 3.47563849 1.52260111 11.4701825 4.56780333 13.1957971 7.65634058 11.4457052 14.5904804 15.3735526 13.8400356 16.6983721 7.65652657 13.1956702 4.56780333 14.9459479 3.06530728e-14 12.357526"></polygon>
        </g>
        <path d="M147.565366,45.1686668 C147.565366,46.2899154 146.656414,47.198867 145.535166,47.198867 L24.6231887,47.198867 L24.6231887,47.198867 C23.8498347,47.198867 23.2229073,46.5719397 23.2229073,45.7985856 C23.2229073,45.5798218 23.2741636,45.364101 23.3725668,45.1687182 C23.9995086,43.9239052 25.2743532,43.1385694 26.6681305,43.1385694 L145.535166,43.1384684 C146.656413,43.1384675 147.565365,44.0474175 147.565366,45.1686651 C147.565366,45.1686657 147.565366,45.1686663 147.565366,45.1686668 Z M147.565366,39.585477 C147.565366,40.7067599 146.656387,41.6157395 145.535104,41.6157405 L27.561618,41.6158457 L27.561618,41.6158457 C26.8146841,41.6158457 26.2091745,41.0103361 26.2091745,40.2634022 C26.2091745,40.0253616 26.2720015,39.7915377 26.3913081,39.5855541 C27.1191465,38.3289354 28.4613396,37.5552624 29.9135238,37.5552624 L145.535104,37.5552161 C146.656386,37.5552157 147.565365,38.4641941 147.565366,39.5854762 C147.565366,39.5854765 147.565366,39.5854767 147.565366,39.585477 Z M147.565366,34.0029235 C147.565366,35.1245216 146.656131,36.0337568 145.534533,36.0337576 L30.9732042,36.0338399 L30.9732042,36.0338399 C30.2551932,36.0338399 29.6731304,35.451777 29.6731304,34.7337661 C29.6731304,34.4731607 29.7514513,34.21857 29.8979312,34.0030269 C30.7612317,32.7326917 32.1975073,31.9722138 33.7334237,31.9722138 L145.534533,31.972093 C146.65613,31.9720918 147.565364,32.8813246 147.565366,34.0029213 C147.565366,34.002922 147.565366,34.0029227 147.565366,34.0029235 Z M147.565366,28.4200047 C147.565366,29.5412958 146.65638,30.4502818 145.535089,30.4502818 L35.0429576,30.4502818 L35.0429576,30.4502818 C34.3579282,30.4502818 33.8026021,29.8949558 33.8026021,29.2099264 C33.8026021,28.9216334 33.9030256,28.6423441 34.0866117,28.4200629 C35.1485165,27.1343367 36.7289943,26.3898439 38.3965474,26.3898439 L145.535089,26.3897298 C146.656378,26.3897286 147.565364,27.2987126 147.565366,28.4200025 C147.565366,28.4200033 147.565366,28.420004 147.565366,28.4200047 Z M147.565366,22.8365476 C147.565366,23.9578654 146.656358,24.8668732 145.535041,24.8668738 L40.1642135,24.8669307 L40.1642135,24.8669307 C39.5173107,24.8669307 38.9928924,24.3425124 38.9928924,23.6956097 C38.9928924,23.3695453 39.1288062,23.0582379 39.367938,22.8365762 C40.7759816,21.5313994 42.6250501,20.8062224 44.5449651,20.8062224 L145.535041,20.8062224 C146.656358,20.8062224 147.565366,21.71523 147.565366,22.8365476 Z" id="Shape" fill="#5B5958"></path>
        <path d="M293.331869,43.1385694 C294.725647,43.1385694 296.000491,43.9239052 296.627433,45.1687182 C296.975299,45.8594176 296.697378,46.7013413 296.006679,47.0492075 C295.811296,47.1476107 295.595575,47.198867 295.376811,47.198867 L174.464778,47.198867 C173.343528,47.198867 172.434576,46.2899143 172.434576,45.1686643 C172.434576,44.0474153 173.343528,43.1384634 174.464777,43.1384634 C174.464777,43.1384634 174.464778,43.1384634 174.464778,43.1384634 L293.331869,43.1385694 L293.331869,43.1385694 Z M290.086476,37.5552624 C291.53866,37.5552624 292.880853,38.3289354 293.608692,39.5855541 C293.983057,40.2318984 293.762574,41.0593469 293.11623,41.4337121 C292.910246,41.5530187 292.676423,41.6158457 292.438382,41.6158457 L174.464837,41.6157354 C173.343555,41.6157344 172.434576,40.7067547 172.434576,39.5854718 C172.434576,38.4641898 173.343554,37.5552111 174.464837,37.5552111 C174.464837,37.5552111 174.464837,37.5552111 174.464837,37.5552111 L290.086476,37.5552624 L290.086476,37.5552624 Z M286.266576,31.9722125 C287.802493,31.9722125 289.238768,32.7326917 290.102069,34.0030269 C290.505645,34.5968837 290.351392,35.4054629 289.757535,35.8090391 C289.541992,35.9555189 289.287401,36.0338399 289.026796,36.0338399 L174.465345,36.0337525 C173.343782,36.0337517 172.434576,35.1245449 172.434576,34.0029818 C172.434576,32.8814189 173.343782,31.9722125 174.465345,31.9722125 L286.266576,31.9722125 L286.266576,31.9722125 Z M281.603453,26.3898439 C283.271006,26.3898439 284.851484,27.1343367 285.913388,28.4200629 C286.349618,28.9482381 286.275081,29.7300426 285.746906,30.1662722 C285.524625,30.3498583 285.245335,30.4502818 284.957042,30.4502818 L174.464855,30.4502818 C173.343563,30.4502818 172.434576,29.5412946 172.434576,28.4200021 C172.434576,27.2987109 173.343562,26.3897247 174.464853,26.3897247 C174.464854,26.3897247 174.464855,26.3897247 174.464855,26.3897247 L281.603453,26.3898439 L281.603453,26.3898439 Z M275.455155,20.8062805 C277.375039,20.806281 279.224078,21.5314484 280.632098,22.836606 C281.106522,23.2763709 281.134619,24.0174674 280.694854,24.4918913 C280.473195,24.7310192 280.161893,24.8669307 279.835833,24.8669307 L174.464901,24.8668688 C173.343583,24.8668681 172.434576,23.9578602 172.434576,22.8365424 C172.434576,21.7152255 173.343583,20.8062185 174.4649,20.8062185 C174.4649,20.8062185 174.4649,20.8062185 174.464901,20.8062185 L275.455155,20.8062805 L275.455155,20.8062805 Z" id="Shape" fill="#5B5958"></path>
        <path d="M272.359289,19.2839702 L47.6406886,19.2839702 C47.0413122,19.2839702 46.5554216,18.7980796 46.5554216,18.1987032 C46.5554216,17.8081537 46.7652673,17.4477232 47.1049043,17.2549132 L47.7654464,16.8799271 C49.675161,15.7957927 51.8335548,15.2258562 54.0295414,15.2258562 L265.970442,15.2258562 C268.166439,15.2258562 270.324843,15.7957981 272.234564,16.8799421 L272.895076,17.2549132 C273.416316,17.5508202 273.598985,18.2132491 273.303078,18.7344895 C273.110268,19.0741254 272.749838,19.2839702 272.359289,19.2839702 Z" id="Path" fill="#5B5958"></path>
        <path d="M257.137629,13.7026032 L62.8623618,13.7026032 C62.2930492,13.7026032 61.8315302,13.2410842 61.8315302,12.6717716 C61.8315302,12.2002781 62.1514297,11.7888812 62.608389,11.6727162 L69.0547867,10.0339581 C70.0765285,9.77421807 71.1266586,9.64282921 72.1808983,9.64282921 L247.819084,9.64282921 C248.873322,9.64282921 249.923451,9.77421776 250.945192,10.0339572 L257.391601,11.6727162 C257.943364,11.8129814 258.276949,12.3739811 258.136684,12.9257442 C258.020519,13.3827036 257.609122,13.7026032 257.137629,13.7026032 Z" id="Path" fill="#5B5958"></path>
        <path d="M236.425145,8.12054492 L87.9089071,8.12054492 C87.7121152,8.09621783 87.5525839,7.93668651 87.5525839,7.73989464 C87.5525839,7.55566916 87.6930148,7.40181806 87.8764757,7.38505043 C93.1200789,6.90580477 96.7587272,6.58390015 98.7924204,6.41933655 C116.768403,4.96474535 132.546245,4.19541494 146.125947,4.11134532 L173.874053,4.11134532 C185.756591,4.18459296 199.417382,4.79207808 214.856425,5.93380067 C218.66728,6.2156147 225.864458,6.83421705 236.44796,7.78960771 C236.475188,7.96834833 236.506909,8.00636466 236.503027,8.04937735 C236.499389,8.08967673 236.465608,8.12054492 236.425145,8.12054492 Z" id="Path" fill="#5B5958"></path>
        <text id="SELECT" font-family="Eurostile-Hea, Eurostile" font-size="8.62807296" font-weight="700" line-spacing="6.47105472" letter-spacing="0.286465644" fill="#CCCBCC">
            <tspan x="298.571311" y="126.888945">S</tspan>
            <tspan x="298.791327" y="133.36">E</tspan>
            <tspan x="299.028599" y="139.831055">L</tspan>
            <tspan x="298.834467" y="146.302109">E</tspan>
            <tspan x="298.46346" y="152.773164">C</tspan>
            <tspan x="298.925062" y="159.244219">T</tspan>
        </text>
        <text id="ALARM-1" font-family="Eurostile-Hea, Eurostile" font-size="8.12053925" font-weight="700" letter-spacing="-0.0767024371" fill="#000000">
            <tspan x="72.0770866" y="96.6098335">ALARM</tspan>
            <tspan x="99.319649" y="96.6098335" font-family="LucidaGrande-Bold, Lucida Grande" font-weight="bold"> </tspan>
            <tspan x="100.86864" y="96.6098335">1</tspan>
        </text>
        <text id="CHIME" font-family="Eurostile-Hea, Eurostile" font-size="8.12053925" font-weight="700" letter-spacing="-0.0767024371" fill="#000000">
            <tspan x="178.413739" y="99.0206186">CHIME</tspan>
        </text>
        <text id="STOP.W" font-family="Eurostile-Hea, Eurostile" font-size="8.12053925" font-weight="700" letter-spacing="-0.0767024371" fill="#000000">
            <tspan x="221.674168" y="99.0206186">STOP.W</tspan>
        </text>
        <text id="ALARM-2" font-family="Eurostile-Hea, Eurostile" font-size="8.12053925" font-weight="700" letter-spacing="-0.0767024371" fill="#000000">
            <tspan x="126.942273" y="99.0206186">ALARM 2</tspan>
        </text>
    </g>
</svg>