<svg width="0" height="0">
  <defs>
    <clipPath id="myPath">
      <path d="M95.5,0 C127.903826,0 156.538288,16.1385682 173.80412,40.8164393 C178.440869,33.1359893 186.870647,28 196.5,28 C211.135546,28 223,39.8644541 223,54.5 C223,65.6773755 216.079944,75.2384853 206.290413,79.1327493 C220.800273,91.5118202 230,109.931554 230,130.5 C230,158.834108 212.542136,183.090713 187.796166,193.100059 C179.08937,220.305223 153.594666,240 123.5,240 C89.7320508,240 61.7555144,215.204014 56.7849532,182.826604 C23.3323778,167.974799 0,134.462184 0,95.5 C0,42.7568064 42.7568064,0 95.5,0 Z"></path>
    </clipPath>
  </defs>
</svg>