<?xml version="1.0" encoding="UTF-8"?>
<svg width="16px" height="16px" viewBox="0 0 16 16" version="1.1" xmlns="http://www.w3.org/2000/svg" xmlns:xlink="http://www.w3.org/1999/xlink">
    <title>skip-16</title>
    <g id="skip-16" stroke="none" stroke-width="1" fill="none" fill-rule="evenodd" opacity="0.7">
        <path d="M8.99796798,3.32648798 C9.18891867,3.32648798 9.37587741,3.38115913 9.53674367,3.48403872 L15.2806837,7.15748873 C15.7459556,7.45504633 15.8819149,8.0734418 15.5843573,8.53871368 C15.5063197,8.66073607 15.4027061,8.76434967 15.2806837,8.84238725 L9.53674367,12.5158373 C9.07147179,12.8133949 8.45307632,12.6774356 8.15551872,12.2121637 C8.05263914,12.0512974 7.99796798,11.8643387 7.99796798,11.673388 L7.99870283,8.08240128 C7.98581831,8.23978903 7.93536351,8.39641299 7.84435726,8.53871368 C7.76631968,8.66073607 7.66270608,8.76434967 7.54068368,8.84238725 L1.79674367,12.5158373 C1.33147179,12.8133949 0.713076319,12.6774356 0.415518722,12.2121637 C0.312639136,12.0512974 0.257967983,11.8643387 0.257967983,11.673388 L0.257967983,4.32648798 C0.257967983,3.77420323 0.705683233,3.32648798 1.25796798,3.32648798 C1.44891867,3.32648798 1.63587741,3.38115913 1.79674367,3.48403872 L7.54068368,7.15748873 C7.81199157,7.33099959 7.97132485,7.61360344 7.99802246,7.91132582 L7.99796798,4.32648798 C7.99796798,3.77420323 8.44568323,3.32648798 8.99796798,3.32648798 Z" id="Combined-Shape" fill="#000000"></path>
    </g>
</svg>