<?xml version="1.0" encoding="UTF-8"?>
<svg width="16px" height="11px" viewBox="0 0 16 11" version="1.1" xmlns="http://www.w3.org/2000/svg" xmlns:xlink="http://www.w3.org/1999/xlink">
    <title>next</title>
    <g id="next" stroke="none" stroke-width="1" fill="none" fill-rule="evenodd">
        <path d="M1.53877569,0.984100732 L7.2827157,4.65755074 C7.74798758,4.95510834 7.88394687,5.57350381 7.58638927,6.03877569 C7.5083517,6.16079808 7.4047381,6.26441168 7.2827157,6.34244926 L1.53877569,10.0158993 C1.07350381,10.3134569 0.455108337,10.1774976 0.15755074,9.7122257 C0.0546711535,9.55135944 -7.27721678e-13,9.36440069 -7.28306304e-13,9.17345001 L-7.28306304e-13,1.82654999 C-7.28707006e-13,1.27426524 0.44771525,0.826549992 1,0.826549992 C1.19095068,0.826549992 1.37790943,0.881221146 1.53877569,0.984100732 Z" id="Rectangle-Copy" fill="#55535A"></path>
        <path d="M9.27877569,0.984100732 L15.0227157,4.65755074 C15.4879876,4.95510834 15.6239469,5.57350381 15.3263893,6.03877569 C15.2483517,6.16079808 15.1447381,6.26441168 15.0227157,6.34244926 L9.27877569,10.0158993 C8.81350381,10.3134569 8.19510834,10.1774976 7.89755074,9.7122257 C7.79467115,9.55135944 7.74,9.36440069 7.74,9.17345001 L7.74,1.82654999 C7.74,1.27426524 8.18771525,0.826549992 8.74,0.826549992 C8.93095068,0.826549992 9.11790943,0.881221146 9.27877569,0.984100732 Z" id="Rectangle-Copy-2" fill="#55535A"></path>
    </g>
</svg>